<?xml version="1.0" encoding="UTF-8" standalone="no"?>
<svg
   xmlns:dc="http://purl.org/dc/elements/1.1/"
   xmlns:cc="http://creativecommons.org/ns#"
   xmlns:rdf="http://www.w3.org/1999/02/22-rdf-syntax-ns#"
   xmlns:svg="http://www.w3.org/2000/svg"
   xmlns="http://www.w3.org/2000/svg"
   xmlns:sodipodi="http://sodipodi.sourceforge.net/DTD/sodipodi-0.dtd"
   xmlns:inkscape="http://www.inkscape.org/namespaces/inkscape"
   width="1920mm"
   height="1080mm"
   viewBox="0 0 7256.6929 4081.8896"
   version="1.1"
   id="svg24"
   sodipodi:docname="insights-start.svg"
   inkscape:version="1.0.1 (3bc2e813f5, 2020-09-07)">
  <metadata
     id="metadata30">
    <rdf:RDF>
      <cc:Work
         rdf:about="">
        <dc:format>image/svg+xml</dc:format>
        <dc:type
           rdf:resource="http://purl.org/dc/dcmitype/StillImage" />
        <dc:title></dc:title>
      </cc:Work>
    </rdf:RDF>
  </metadata>
  <defs
     id="defs28" />
  <sodipodi:namedview
     pagecolor="#ffffff"
     bordercolor="#666666"
     borderopacity="1"
     objecttolerance="10"
     gridtolerance="10"
     guidetolerance="10"
     inkscape:pageopacity="0"
     inkscape:pageshadow="2"
     inkscape:window-width="1920"
     inkscape:window-height="1027"
     id="namedview26"
     showgrid="false"
     inkscape:zoom="0.15268663"
     inkscape:cx="3628.3465"
     inkscape:cy="2040.9449"
     inkscape:window-x="-8"
     inkscape:window-y="-8"
     inkscape:window-maximized="1"
     inkscape:current-layer="svg24"
     inkscape:document-rotation="0" />
  <g
     id="g1617"
     inkscape:label="All-together">
    <ellipse
       style="fill:#ffccaa;stroke:#000000;stroke-width:10;paint-order:markers stroke fill"
       id="path949"
       ry="1666.8124"
       rx="2659.041"
       cy="1720.6581"
       cx="3628.3464" />
    <text
       xml:space="preserve"
       style="font-size:320px;line-height:1.25;font-family:sans-serif;-inkscape-font-specification:sans-serif;letter-spacing:0px;word-spacing:0px;stroke-width:1"
       x="2377.1746"
       y="3664.3035"
       id="text953"><tspan
         sodipodi:role="line"
         id="tspan951"
         x="2377.1746"
         y="3664.3035"
         style="stroke-width:1">Put all together...</tspan></text>
  </g>
  <g
     id="Prompt"
     style="font-size:192px;line-height:1.25;font-family:sans-serif;-inkscape-font-specification:sans-serif;letter-spacing:0px;word-spacing:0px;fill:transparent"
     inkscape:label="Prompt">
    <animate
       attributeName="fill"
       from="transparent"
       to="black"
       fill="freeze"
       begin="0s"
       dur="2s" />
    <path
       d="m 4794.8447,3779.4229 h 25.5 l 62.0625,117.0937 v -117.0937 h 18.375 v 139.9687 h -25.5 l -62.0625,-117.0937 v 117.0937 h -18.375 z"
       id="path889" />
    <path
       d="m 5027.5322,3862.5791 v 8.4375 h -79.3125 q 1.125,17.8125 10.6875,27.1875 9.6563,9.2813 26.8125,9.2813 9.9375,0 19.2188,-2.4375 9.375,-2.4375 18.5625,-7.3125 v 16.3125 q -9.2813,3.9375 -19.0313,6 -9.75,2.0625 -19.7812,2.0625 -25.125,0 -39.8438,-14.625 -14.625,-14.625 -14.625,-39.5625 0,-25.7813 13.875,-40.875 13.9688,-15.1875 37.5938,-15.1875 21.1875,0 33.4687,13.6875 12.375,13.5937 12.375,37.0312 z m -17.25,-5.0625 q -0.1875,-14.1562 -7.9687,-22.5937 -7.6875,-8.4375 -20.4375,-8.4375 -14.4375,0 -23.1563,8.1562 -8.625,8.1563 -9.9375,22.9688 z"
       id="path891" />
    <path
       d="m 5139.751,3814.3916 -37.9688,51.0938 39.9375,53.9062 h -20.3437 l -30.5625,-41.25 -30.5625,41.25 h -20.3438 l 40.7813,-54.9375 -37.3125,-50.0625 h 20.3437 l 27.8438,37.4063 27.8437,-37.4063 z"
       id="path893" />
    <path
       d="m 5183.1572,3784.5791 v 29.8125 h 35.5313 v 13.4063 h -35.5313 v 57 q 0,12.8437 3.4688,16.5 3.5625,3.6562 14.3437,3.6562 h 17.7188 v 14.4375 h -17.7188 q -19.9687,0 -27.5625,-7.4062 -7.5937,-7.5 -7.5937,-27.1875 v -57 h -12.6563 v -13.4063 h 12.6563 v -29.8125 z"
       id="path895" />
    <path
       d="m 5245.7822,3895.5791 h 19.7813 v 23.8125 h -19.7813 z m 0,-75.4687 h 19.7813 v 23.8125 h -19.7813 z"
       id="path897" />
    <path
       d="m 5383.7822,3903.6416 v 55.6875 h -17.3437 v -144.9375 h 17.3437 v 15.9375 q 5.4375,-9.375 13.6875,-13.875 8.3438,-4.5937 19.875,-4.5937 19.125,0 31.0313,15.1875 12,15.1875 12,39.9375 0,24.75 -12,39.9375 -11.9063,15.1875 -31.0313,15.1875 -11.5312,0 -19.875,-4.5 -8.25,-4.5938 -13.6875,-13.9688 z m 58.6875,-36.6562 q 0,-19.0313 -7.875,-29.8125 -7.7812,-10.875 -21.4687,-10.875 -13.6875,0 -21.5625,10.875 -7.7813,10.7812 -7.7813,29.8125 0,19.0312 7.7813,29.9062 7.875,10.7813 21.5625,10.7813 13.6875,0 21.4687,-10.7813 7.875,-10.875 7.875,-29.9062 z"
       id="path899" />
    <path
       d="m 5549.8135,3830.5166 q -2.9063,-1.6875 -6.375,-2.4375 -3.375,-0.8437 -7.5,-0.8437 -14.625,0 -22.5,9.5625 -7.7813,9.4687 -7.7813,27.2812 v 55.3125 h -17.3437 v -105 h 17.3437 v 16.3125 q 5.4375,-9.5625 14.1563,-14.1562 8.7187,-4.6875 21.1875,-4.6875 1.7812,0 3.9375,0.2812 2.1562,0.1875 4.7812,0.6563 z"
       id="path901" />
    <path
       d="m 5653.501,3862.5791 v 8.4375 h -79.3125 q 1.125,17.8125 10.6875,27.1875 9.6562,9.2813 26.8125,9.2813 9.9375,0 19.2187,-2.4375 9.375,-2.4375 18.5625,-7.3125 v 16.3125 q -9.2812,3.9375 -19.0312,6 -9.75,2.0625 -19.7813,2.0625 -25.125,0 -39.8437,-14.625 -14.625,-14.625 -14.625,-39.5625 0,-25.7813 13.875,-40.875 13.9687,-15.1875 37.5937,-15.1875 21.1875,0 33.4688,13.6875 12.375,13.5937 12.375,37.0312 z m -17.25,-5.0625 q -0.1875,-14.1562 -7.9688,-22.5937 -7.6875,-8.4375 -20.4375,-8.4375 -14.4375,0 -23.1562,8.1562 -8.625,8.1563 -9.9375,22.9688 z"
       id="path903" />
    <path
       d="m 5748.751,3817.4854 v 16.3125 q -7.3125,-3.75 -15.1875,-5.625 -7.875,-1.875 -16.3125,-1.875 -12.8438,0 -19.3125,3.9375 -6.375,3.9375 -6.375,11.8125 0,6 4.5937,9.4687 4.5938,3.375 18.4688,6.4688 l 5.9062,1.3125 q 18.375,3.9375 26.0625,11.1562 7.7813,7.125 7.7813,19.9688 0,14.625 -11.625,23.1562 -11.5313,8.5313 -31.7813,8.5313 -8.4375,0 -17.625,-1.6875 -9.0937,-1.5938 -19.2187,-4.875 v -17.8125 q 9.5625,4.9687 18.8437,7.5 9.2813,2.4375 18.375,2.4375 12.1875,0 18.75,-4.125 6.5625,-4.2188 6.5625,-11.8125 0,-7.0313 -4.7812,-10.7813 -4.6875,-3.75 -20.7188,-7.2187 l -6,-1.4063 q -16.0312,-3.375 -23.1562,-10.3125 -7.125,-7.0312 -7.125,-19.2187 0,-14.8125 10.5,-22.875 10.5,-8.0625 29.8125,-8.0625 9.5625,0 18,1.4062 8.4375,1.4063 15.5625,4.2188 z"
       id="path905" />
    <path
       d="m 5848.7822,3817.4854 v 16.3125 q -7.3125,-3.75 -15.1875,-5.625 -7.875,-1.875 -16.3125,-1.875 -12.8437,0 -19.3125,3.9375 -6.375,3.9375 -6.375,11.8125 0,6 4.5938,9.4687 4.5937,3.375 18.4687,6.4688 l 5.9063,1.3125 q 18.375,3.9375 26.0625,11.1562 7.7812,7.125 7.7812,19.9688 0,14.625 -11.625,23.1562 -11.5312,8.5313 -31.7812,8.5313 -8.4375,0 -17.625,-1.6875 -9.0938,-1.5938 -19.2188,-4.875 v -17.8125 q 9.5625,4.9687 18.8438,7.5 9.2812,2.4375 18.375,2.4375 12.1875,0 18.75,-4.125 6.5625,-4.2188 6.5625,-11.8125 0,-7.0313 -4.7813,-10.7813 -4.6875,-3.75 -20.7187,-7.2187 l -6,-1.4063 q -16.0313,-3.375 -23.1563,-10.3125 -7.125,-7.0312 -7.125,-19.2187 0,-14.8125 10.5,-22.875 10.5,-8.0625 29.8125,-8.0625 9.5625,0 18,1.4062 8.4375,1.4063 15.5625,4.2188 z"
       id="path907" />
    <path
       d="m 6009.8447,3817.4854 v 16.3125 q -7.3125,-3.75 -15.1875,-5.625 -7.875,-1.875 -16.3125,-1.875 -12.8437,0 -19.3125,3.9375 -6.375,3.9375 -6.375,11.8125 0,6 4.5938,9.4687 4.5937,3.375 18.4687,6.4688 l 5.9063,1.3125 q 18.375,3.9375 26.0625,11.1562 7.7812,7.125 7.7812,19.9688 0,14.625 -11.625,23.1562 -11.5312,8.5313 -31.7812,8.5313 -8.4375,0 -17.625,-1.6875 -9.0938,-1.5938 -19.2188,-4.875 v -17.8125 q 9.5625,4.9687 18.8438,7.5 9.2812,2.4375 18.375,2.4375 12.1875,0 18.75,-4.125 6.5625,-4.2188 6.5625,-11.8125 0,-7.0313 -4.7813,-10.7813 -4.6875,-3.75 -20.7187,-7.2187 l -6,-1.4063 q -16.0313,-3.375 -23.1563,-10.3125 -7.125,-7.0312 -7.125,-19.2187 0,-14.8125 10.5,-22.875 10.5,-8.0625 29.8125,-8.0625 9.5625,0 18,1.4062 8.4375,1.4063 15.5625,4.2188 z"
       id="path909" />
    <path
       d="m 6059.626,3903.6416 v 55.6875 h -17.3438 v -144.9375 h 17.3438 v 15.9375 q 5.4375,-9.375 13.6875,-13.875 8.3437,-4.5937 19.875,-4.5937 19.125,0 31.0312,15.1875 12,15.1875 12,39.9375 0,24.75 -12,39.9375 -11.9062,15.1875 -31.0312,15.1875 -11.5313,0 -19.875,-4.5 -8.25,-4.5938 -13.6875,-13.9688 z m 58.6875,-36.6562 q 0,-19.0313 -7.875,-29.8125 -7.7813,-10.875 -21.4688,-10.875 -13.6875,0 -21.5625,10.875 -7.7812,10.7812 -7.7812,29.8125 0,19.0312 7.7812,29.9062 7.875,10.7813 21.5625,10.7813 13.6875,0 21.4688,-10.7813 7.875,-10.875 7.875,-29.9062 z"
       id="path911" />
    <path
       d="m 6212.5322,3866.6104 q -20.9062,0 -28.9687,4.7812 -8.0625,4.7813 -8.0625,16.3125 0,9.1875 6,14.625 6.0937,5.3438 16.5,5.3438 14.3437,0 22.9687,-10.125 8.7188,-10.2188 8.7188,-27.0938 v -3.8437 z m 34.4063,-7.125 v 59.9062 h -17.25 v -15.9375 q -5.9063,9.5625 -14.7188,14.1563 -8.8125,4.5 -21.5625,4.5 -16.125,0 -25.6875,-9 -9.4687,-9.0938 -9.4687,-24.2813 0,-17.7187 11.8125,-26.7187 11.9062,-9 35.4375,-9 h 24.1875 v -1.6875 q 0,-11.9063 -7.875,-18.375 -7.7813,-6.5625 -21.9375,-6.5625 -9,0 -17.5313,2.1562 -8.5312,2.1563 -16.4062,6.4688 v -15.9375 q 9.4687,-3.6563 18.375,-5.4375 8.9062,-1.875 17.3437,-1.875 22.7813,0 34.0313,11.8125 11.25,11.8125 11.25,35.8125 z"
       id="path913" />
    <path
       d="m 6358.0322,3818.4229 v 16.125 q -7.3125,-4.0313 -14.7187,-6 -7.3125,-2.0625 -14.8125,-2.0625 -16.7813,0 -26.0625,10.6875 -9.2813,10.5937 -9.2813,29.8125 0,19.2187 9.2813,29.9062 9.2812,10.5938 26.0625,10.5938 7.5,0 14.8125,-1.9688 7.4062,-2.0625 14.7187,-6.0937 v 15.9375 q -7.2187,3.375 -15,5.0625 -7.6875,1.6875 -16.4062,1.6875 -23.7188,0 -37.6875,-14.9063 -13.9688,-14.9062 -13.9688,-40.2187 0,-25.6875 14.0625,-40.4063 14.1563,-14.7187 38.7188,-14.7187 7.9687,0 15.5625,1.6875 7.5937,1.5937 14.7187,4.875 z"
       id="path915" />
    <path
       d="m 6477.8447,3862.5791 v 8.4375 h -79.3125 q 1.125,17.8125 10.6875,27.1875 9.6563,9.2813 26.8125,9.2813 9.9375,0 19.2188,-2.4375 9.375,-2.4375 18.5625,-7.3125 v 16.3125 q -9.2813,3.9375 -19.0313,6 -9.75,2.0625 -19.7812,2.0625 -25.125,0 -39.8438,-14.625 -14.625,-14.625 -14.625,-39.5625 0,-25.7813 13.875,-40.875 13.9688,-15.1875 37.5938,-15.1875 21.1875,0 33.4687,13.6875 12.375,13.5937 12.375,37.0312 z m -17.25,-5.0625 q -0.1875,-14.1562 -7.9687,-22.5937 -7.6875,-8.4375 -20.4375,-8.4375 -14.4375,0 -23.1563,8.1562 -8.625,8.1563 -9.9375,22.9688 z"
       id="path917" />
    <path
       d="m 6642.5635,3866.9854 q 0,-19.0313 -7.875,-29.8125 -7.7813,-10.875 -21.4688,-10.875 -13.6875,0 -21.5625,10.875 -7.7812,10.7812 -7.7812,29.8125 0,19.0312 7.7812,29.9062 7.875,10.7813 21.5625,10.7813 13.6875,0 21.4688,-10.7813 7.875,-10.875 7.875,-29.9062 z m -58.6875,-36.6563 q 5.4375,-9.375 13.6875,-13.875 8.3437,-4.5937 19.875,-4.5937 19.125,0 31.0312,15.1875 12,15.1875 12,39.9375 0,24.75 -12,39.9375 -11.9062,15.1875 -31.0312,15.1875 -11.5313,0 -19.875,-4.5 -8.25,-4.5938 -13.6875,-13.9688 v 15.75 h -17.3438 v -145.875 h 17.3438 z"
       id="path919" />
    <path
       d="m 6736.7822,3866.6104 q -20.9062,0 -28.9687,4.7812 -8.0625,4.7813 -8.0625,16.3125 0,9.1875 6,14.625 6.0937,5.3438 16.5,5.3438 14.3437,0 22.9687,-10.125 8.7188,-10.2188 8.7188,-27.0938 v -3.8437 z m 34.4063,-7.125 v 59.9062 h -17.25 v -15.9375 q -5.9063,9.5625 -14.7188,14.1563 -8.8125,4.5 -21.5625,4.5 -16.125,0 -25.6875,-9 -9.4687,-9.0938 -9.4687,-24.2813 0,-17.7187 11.8125,-26.7187 11.9062,-9 35.4375,-9 h 24.1875 v -1.6875 q 0,-11.9063 -7.875,-18.375 -7.7813,-6.5625 -21.9375,-6.5625 -9,0 -17.5313,2.1562 -8.5312,2.1563 -16.4062,6.4688 v -15.9375 q 9.4687,-3.6563 18.375,-5.4375 8.9062,-1.875 17.3437,-1.875 22.7813,0 34.0313,11.8125 11.25,11.8125 11.25,35.8125 z"
       id="path921" />
    <path
       d="m 6867.5635,3830.5166 q -2.9063,-1.6875 -6.375,-2.4375 -3.375,-0.8437 -7.5,-0.8437 -14.625,0 -22.5,9.5625 -7.7813,9.4687 -7.7813,27.2812 v 55.3125 h -17.3437 v -105 h 17.3437 v 16.3125 q 5.4375,-9.5625 14.1563,-14.1562 8.7187,-4.6875 21.1875,-4.6875 1.7812,0 3.9375,0.2812 2.1562,0.1875 4.7812,0.6563 z"
       id="path923" />
    <path
       d="m 6870.4697,3895.5791 h 19.7813 v 23.8125 h -19.7813 z"
       id="path925" />
    <path
       d="m 6931.501,3895.5791 h 19.7812 v 23.8125 h -19.7812 z"
       id="path927" />
    <path
       d="m 6992.5322,3895.5791 h 19.7813 v 23.8125 h -19.7813 z"
       id="path929" />
  </g>
  <text
     xml:space="preserve"
     style="font-size:192px;line-height:1.25;font-family:sans-serif;-inkscape-font-specification:sans-serif;letter-spacing:0px;word-spacing:0px"
     x="2141.6414"
     y="432.25787"
     id="text857"
     inkscape:label="SVG"><tspan
       sodipodi:role="line"
       id="tspan855"
       x="2141.6414"
       y="432.25787">SVG: Scalable Vector Graphics</tspan></text>
  <text
     xml:space="preserve"
     style="font-size:192px;line-height:1.25;font-family:sans-serif;-inkscape-font-specification:sans-serif;letter-spacing:0px;word-spacing:0px"
     x="1839.7847"
     y="727.55304"
     id="text857-2"
     inkscape:label="Raster"><tspan
       sodipodi:role="line"
       id="tspan855-3"
       x="1839.7847"
       y="727.55304">WebP: Raster Graphics</tspan></text>
  <text
     xml:space="preserve"
     style="font-size:192px;line-height:1.25;font-family:sans-serif;-inkscape-font-specification:sans-serif;letter-spacing:0px;word-spacing:0px;fill:#ff2a2a;"
     x="2259.5298"
     y="1737.2625"
     id="text857-5"
     inkscape:label="Vidio-Animation-Question"><tspan
       sodipodi:role="line"
       id="tspan855-7"
       x="2259.5298"
       y="1737.2625">Video? Animation?</tspan></text>
  <text
     xml:space="preserve"
     style="font-size:192px;line-height:1.25;font-family:sans-serif;-inkscape-font-specification:sans-serif;letter-spacing:0px;word-spacing:0px;fill:#ff2a2a;"
     x="1034.7992"
     y="1276.9697"
     id="text857-58"
     inkscape:label="Transition-effects-Question"><tspan
       sodipodi:role="line"
       id="tspan855-9"
       x="1034.7992"
       y="1276.9697">Transition Effects?</tspan></text>
  <text
     xml:space="preserve"
     style="font-size:192px;line-height:1.25;font-family:sans-serif;-inkscape-font-specification:sans-serif;letter-spacing:0px;word-spacing:0px"
     x="1604.5938"
     y="2378.533"
     id="text857-5-7-4"
     inkscape:label="Animated-Answer"><tspan
       sodipodi:role="line"
       id="tspan855-7-4-4"
       x="1604.5938"
       y="2378.533">Animated WebP from video clips (FFMpeg)</tspan><tspan
       sodipodi:role="line"
       x="1604.5938"
       y="2618.533"
       id="tspan947">Animated WebP from drawings (GIMP and a lot more)...</tspan></text>
  <text
     xml:space="preserve"
     style="font-size:192px;line-height:1.25;font-family:sans-serif;-inkscape-font-specification:sans-serif;letter-spacing:0px;word-spacing:0px;fill:#2b0000;"
     x="3222.2861"
     y="1273.3914"
     id="text857-5-7-43"
     inkscape:label="Animated-WebP"><tspan
       sodipodi:role="line"
       id="tspan855-7-4-2"
       x="3222.2861"
       y="1273.3914">Animated WebP</tspan></text>
</svg>
