<?xml version="1.0" encoding="UTF-8" standalone="no"?>
<svg
   xmlns:dc="http://purl.org/dc/elements/1.1/"
   xmlns:cc="http://creativecommons.org/ns#"
   xmlns:rdf="http://www.w3.org/1999/02/22-rdf-syntax-ns#"
   xmlns:svg="http://www.w3.org/2000/svg"
   xmlns="http://www.w3.org/2000/svg"
   xmlns:sodipodi="http://sodipodi.sourceforge.net/DTD/sodipodi-0.dtd"
   xmlns:inkscape="http://www.inkscape.org/namespaces/inkscape"
   width="1920mm"
   height="1080mm"
   viewBox="0 0 7256.6929 4081.8896"
   version="1.1">
  <g>
    <g
       id="Prompt"
       style="font-size:192px;line-height:1.25;font-family:sans-serif;-inkscape-font-specification:sans-serif;letter-spacing:0px;word-spacing:0px;fill:transparent"
       inkscape:label="Prompt">
      <animate attributeName="fill" from="transparent" to="black" fill="freeze" begin="4s" dur="2s" />
      <path
         d="m 4794.8447,3779.4229 h 25.5 l 62.0625,117.0937 v -117.0937 h 18.375 v 139.9687 h -25.5 l -62.0625,-117.0937 v 117.0937 h -18.375 z"/>
      <path
         d="m 5027.5322,3862.5791 v 8.4375 h -79.3125 q 1.125,17.8125 10.6875,27.1875 9.6563,9.2813 26.8125,9.2813 9.9375,0 19.2188,-2.4375 9.375,-2.4375 18.5625,-7.3125 v 16.3125 q -9.2813,3.9375 -19.0313,6 -9.75,2.0625 -19.7812,2.0625 -25.125,0 -39.8438,-14.625 -14.625,-14.625 -14.625,-39.5625 0,-25.7813 13.875,-40.875 13.9688,-15.1875 37.5938,-15.1875 21.1875,0 33.4687,13.6875 12.375,13.5937 12.375,37.0312 z m -17.25,-5.0625 q -0.1875,-14.1562 -7.9687,-22.5937 -7.6875,-8.4375 -20.4375,-8.4375 -14.4375,0 -23.1563,8.1562 -8.625,8.1563 -9.9375,22.9688 z"/>
      <path
         d="m 5139.751,3814.3916 -37.9688,51.0938 39.9375,53.9062 h -20.3437 l -30.5625,-41.25 -30.5625,41.25 h -20.3438 l 40.7813,-54.9375 -37.3125,-50.0625 h 20.3437 l 27.8438,37.4063 27.8437,-37.4063 z"/>
      <path
         d="m 5183.1572,3784.5791 v 29.8125 h 35.5313 v 13.4063 h -35.5313 v 57 q 0,12.8437 3.4688,16.5 3.5625,3.6562 14.3437,3.6562 h 17.7188 v 14.4375 h -17.7188 q -19.9687,0 -27.5625,-7.4062 -7.5937,-7.5 -7.5937,-27.1875 v -57 h -12.6563 v -13.4063 h 12.6563 v -29.8125 z"/>
      <path
         d="m 5245.7822,3895.5791 h 19.7813 v 23.8125 h -19.7813 z m 0,-75.4687 h 19.7813 v 23.8125 h -19.7813 z"/>
      <path
         d="m 5383.7822,3903.6416 v 55.6875 h -17.3437 v -144.9375 h 17.3437 v 15.9375 q 5.4375,-9.375 13.6875,-13.875 8.3438,-4.5937 19.875,-4.5937 19.125,0 31.0313,15.1875 12,15.1875 12,39.9375 0,24.75 -12,39.9375 -11.9063,15.1875 -31.0313,15.1875 -11.5312,0 -19.875,-4.5 -8.25,-4.5938 -13.6875,-13.9688 z m 58.6875,-36.6562 q 0,-19.0313 -7.875,-29.8125 -7.7812,-10.875 -21.4687,-10.875 -13.6875,0 -21.5625,10.875 -7.7813,10.7812 -7.7813,29.8125 0,19.0312 7.7813,29.9062 7.875,10.7813 21.5625,10.7813 13.6875,0 21.4687,-10.7813 7.875,-10.875 7.875,-29.9062 z"/>
      <path
         d="m 5549.8135,3830.5166 q -2.9063,-1.6875 -6.375,-2.4375 -3.375,-0.8437 -7.5,-0.8437 -14.625,0 -22.5,9.5625 -7.7813,9.4687 -7.7813,27.2812 v 55.3125 h -17.3437 v -105 h 17.3437 v 16.3125 q 5.4375,-9.5625 14.1563,-14.1562 8.7187,-4.6875 21.1875,-4.6875 1.7812,0 3.9375,0.2812 2.1562,0.1875 4.7812,0.6563 z"/>
      <path
         d="m 5653.501,3862.5791 v 8.4375 h -79.3125 q 1.125,17.8125 10.6875,27.1875 9.6562,9.2813 26.8125,9.2813 9.9375,0 19.2187,-2.4375 9.375,-2.4375 18.5625,-7.3125 v 16.3125 q -9.2812,3.9375 -19.0312,6 -9.75,2.0625 -19.7813,2.0625 -25.125,0 -39.8437,-14.625 -14.625,-14.625 -14.625,-39.5625 0,-25.7813 13.875,-40.875 13.9687,-15.1875 37.5937,-15.1875 21.1875,0 33.4688,13.6875 12.375,13.5937 12.375,37.0312 z m -17.25,-5.0625 q -0.1875,-14.1562 -7.9688,-22.5937 -7.6875,-8.4375 -20.4375,-8.4375 -14.4375,0 -23.1562,8.1562 -8.625,8.1563 -9.9375,22.9688 z"/>
      <path
         d="m 5748.751,3817.4854 v 16.3125 q -7.3125,-3.75 -15.1875,-5.625 -7.875,-1.875 -16.3125,-1.875 -12.8438,0 -19.3125,3.9375 -6.375,3.9375 -6.375,11.8125 0,6 4.5937,9.4687 4.5938,3.375 18.4688,6.4688 l 5.9062,1.3125 q 18.375,3.9375 26.0625,11.1562 7.7813,7.125 7.7813,19.9688 0,14.625 -11.625,23.1562 -11.5313,8.5313 -31.7813,8.5313 -8.4375,0 -17.625,-1.6875 -9.0937,-1.5938 -19.2187,-4.875 v -17.8125 q 9.5625,4.9687 18.8437,7.5 9.2813,2.4375 18.375,2.4375 12.1875,0 18.75,-4.125 6.5625,-4.2188 6.5625,-11.8125 0,-7.0313 -4.7812,-10.7813 -4.6875,-3.75 -20.7188,-7.2187 l -6,-1.4063 q -16.0312,-3.375 -23.1562,-10.3125 -7.125,-7.0312 -7.125,-19.2187 0,-14.8125 10.5,-22.875 10.5,-8.0625 29.8125,-8.0625 9.5625,0 18,1.4062 8.4375,1.4063 15.5625,4.2188 z"/>
      <path
         d="m 5848.7822,3817.4854 v 16.3125 q -7.3125,-3.75 -15.1875,-5.625 -7.875,-1.875 -16.3125,-1.875 -12.8437,0 -19.3125,3.9375 -6.375,3.9375 -6.375,11.8125 0,6 4.5938,9.4687 4.5937,3.375 18.4687,6.4688 l 5.9063,1.3125 q 18.375,3.9375 26.0625,11.1562 7.7812,7.125 7.7812,19.9688 0,14.625 -11.625,23.1562 -11.5312,8.5313 -31.7812,8.5313 -8.4375,0 -17.625,-1.6875 -9.0938,-1.5938 -19.2188,-4.875 v -17.8125 q 9.5625,4.9687 18.8438,7.5 9.2812,2.4375 18.375,2.4375 12.1875,0 18.75,-4.125 6.5625,-4.2188 6.5625,-11.8125 0,-7.0313 -4.7813,-10.7813 -4.6875,-3.75 -20.7187,-7.2187 l -6,-1.4063 q -16.0313,-3.375 -23.1563,-10.3125 -7.125,-7.0312 -7.125,-19.2187 0,-14.8125 10.5,-22.875 10.5,-8.0625 29.8125,-8.0625 9.5625,0 18,1.4062 8.4375,1.4063 15.5625,4.2188 z"/>
      <path
         d="m 6009.8447,3817.4854 v 16.3125 q -7.3125,-3.75 -15.1875,-5.625 -7.875,-1.875 -16.3125,-1.875 -12.8437,0 -19.3125,3.9375 -6.375,3.9375 -6.375,11.8125 0,6 4.5938,9.4687 4.5937,3.375 18.4687,6.4688 l 5.9063,1.3125 q 18.375,3.9375 26.0625,11.1562 7.7812,7.125 7.7812,19.9688 0,14.625 -11.625,23.1562 -11.5312,8.5313 -31.7812,8.5313 -8.4375,0 -17.625,-1.6875 -9.0938,-1.5938 -19.2188,-4.875 v -17.8125 q 9.5625,4.9687 18.8438,7.5 9.2812,2.4375 18.375,2.4375 12.1875,0 18.75,-4.125 6.5625,-4.2188 6.5625,-11.8125 0,-7.0313 -4.7813,-10.7813 -4.6875,-3.75 -20.7187,-7.2187 l -6,-1.4063 q -16.0313,-3.375 -23.1563,-10.3125 -7.125,-7.0312 -7.125,-19.2187 0,-14.8125 10.5,-22.875 10.5,-8.0625 29.8125,-8.0625 9.5625,0 18,1.4062 8.4375,1.4063 15.5625,4.2188 z"/>
      <path
         d="m 6059.626,3903.6416 v 55.6875 h -17.3438 v -144.9375 h 17.3438 v 15.9375 q 5.4375,-9.375 13.6875,-13.875 8.3437,-4.5937 19.875,-4.5937 19.125,0 31.0312,15.1875 12,15.1875 12,39.9375 0,24.75 -12,39.9375 -11.9062,15.1875 -31.0312,15.1875 -11.5313,0 -19.875,-4.5 -8.25,-4.5938 -13.6875,-13.9688 z m 58.6875,-36.6562 q 0,-19.0313 -7.875,-29.8125 -7.7813,-10.875 -21.4688,-10.875 -13.6875,0 -21.5625,10.875 -7.7812,10.7812 -7.7812,29.8125 0,19.0312 7.7812,29.9062 7.875,10.7813 21.5625,10.7813 13.6875,0 21.4688,-10.7813 7.875,-10.875 7.875,-29.9062 z"/>
      <path
         d="m 6212.5322,3866.6104 q -20.9062,0 -28.9687,4.7812 -8.0625,4.7813 -8.0625,16.3125 0,9.1875 6,14.625 6.0937,5.3438 16.5,5.3438 14.3437,0 22.9687,-10.125 8.7188,-10.2188 8.7188,-27.0938 v -3.8437 z m 34.4063,-7.125 v 59.9062 h -17.25 v -15.9375 q -5.9063,9.5625 -14.7188,14.1563 -8.8125,4.5 -21.5625,4.5 -16.125,0 -25.6875,-9 -9.4687,-9.0938 -9.4687,-24.2813 0,-17.7187 11.8125,-26.7187 11.9062,-9 35.4375,-9 h 24.1875 v -1.6875 q 0,-11.9063 -7.875,-18.375 -7.7813,-6.5625 -21.9375,-6.5625 -9,0 -17.5313,2.1562 -8.5312,2.1563 -16.4062,6.4688 v -15.9375 q 9.4687,-3.6563 18.375,-5.4375 8.9062,-1.875 17.3437,-1.875 22.7813,0 34.0313,11.8125 11.25,11.8125 11.25,35.8125 z"/>
      <path
         d="m 6358.0322,3818.4229 v 16.125 q -7.3125,-4.0313 -14.7187,-6 -7.3125,-2.0625 -14.8125,-2.0625 -16.7813,0 -26.0625,10.6875 -9.2813,10.5937 -9.2813,29.8125 0,19.2187 9.2813,29.9062 9.2812,10.5938 26.0625,10.5938 7.5,0 14.8125,-1.9688 7.4062,-2.0625 14.7187,-6.0937 v 15.9375 q -7.2187,3.375 -15,5.0625 -7.6875,1.6875 -16.4062,1.6875 -23.7188,0 -37.6875,-14.9063 -13.9688,-14.9062 -13.9688,-40.2187 0,-25.6875 14.0625,-40.4063 14.1563,-14.7187 38.7188,-14.7187 7.9687,0 15.5625,1.6875 7.5937,1.5937 14.7187,4.875 z"/>
      <path
         d="m 6477.8447,3862.5791 v 8.4375 h -79.3125 q 1.125,17.8125 10.6875,27.1875 9.6563,9.2813 26.8125,9.2813 9.9375,0 19.2188,-2.4375 9.375,-2.4375 18.5625,-7.3125 v 16.3125 q -9.2813,3.9375 -19.0313,6 -9.75,2.0625 -19.7812,2.0625 -25.125,0 -39.8438,-14.625 -14.625,-14.625 -14.625,-39.5625 0,-25.7813 13.875,-40.875 13.9688,-15.1875 37.5938,-15.1875 21.1875,0 33.4687,13.6875 12.375,13.5937 12.375,37.0312 z m -17.25,-5.0625 q -0.1875,-14.1562 -7.9687,-22.5937 -7.6875,-8.4375 -20.4375,-8.4375 -14.4375,0 -23.1563,8.1562 -8.625,8.1563 -9.9375,22.9688 z"/>
      <path
         d="m 6642.5635,3866.9854 q 0,-19.0313 -7.875,-29.8125 -7.7813,-10.875 -21.4688,-10.875 -13.6875,0 -21.5625,10.875 -7.7812,10.7812 -7.7812,29.8125 0,19.0312 7.7812,29.9062 7.875,10.7813 21.5625,10.7813 13.6875,0 21.4688,-10.7813 7.875,-10.875 7.875,-29.9062 z m -58.6875,-36.6563 q 5.4375,-9.375 13.6875,-13.875 8.3437,-4.5937 19.875,-4.5937 19.125,0 31.0312,15.1875 12,15.1875 12,39.9375 0,24.75 -12,39.9375 -11.9062,15.1875 -31.0312,15.1875 -11.5313,0 -19.875,-4.5 -8.25,-4.5938 -13.6875,-13.9688 v 15.75 h -17.3438 v -145.875 h 17.3438 z"/>
      <path
         d="m 6736.7822,3866.6104 q -20.9062,0 -28.9687,4.7812 -8.0625,4.7813 -8.0625,16.3125 0,9.1875 6,14.625 6.0937,5.3438 16.5,5.3438 14.3437,0 22.9687,-10.125 8.7188,-10.2188 8.7188,-27.0938 v -3.8437 z m 34.4063,-7.125 v 59.9062 h -17.25 v -15.9375 q -5.9063,9.5625 -14.7188,14.1563 -8.8125,4.5 -21.5625,4.5 -16.125,0 -25.6875,-9 -9.4687,-9.0938 -9.4687,-24.2813 0,-17.7187 11.8125,-26.7187 11.9062,-9 35.4375,-9 h 24.1875 v -1.6875 q 0,-11.9063 -7.875,-18.375 -7.7813,-6.5625 -21.9375,-6.5625 -9,0 -17.5313,2.1562 -8.5312,2.1563 -16.4062,6.4688 v -15.9375 q 9.4687,-3.6563 18.375,-5.4375 8.9062,-1.875 17.3437,-1.875 22.7813,0 34.0313,11.8125 11.25,11.8125 11.25,35.8125 z"/>
      <path
         d="m 6867.5635,3830.5166 q -2.9063,-1.6875 -6.375,-2.4375 -3.375,-0.8437 -7.5,-0.8437 -14.625,0 -22.5,9.5625 -7.7813,9.4687 -7.7813,27.2812 v 55.3125 h -17.3437 v -105 h 17.3437 v 16.3125 q 5.4375,-9.5625 14.1563,-14.1562 8.7187,-4.6875 21.1875,-4.6875 1.7812,0 3.9375,0.2812 2.1562,0.1875 4.7812,0.6563 z"/>
      <path
         d="m 6870.4697,3895.5791 h 19.7813 v 23.8125 h -19.7813 z"/>
      <path
         d="m 6931.501,3895.5791 h 19.7812 v 23.8125 h -19.7812 z"/>
      <path
         d="m 6992.5322,3895.5791 h 19.7813 v 23.8125 h -19.7813 z"/>
    </g>
    <g
       aria-label="Web Presentation"
       style="font-size:480px;line-height:1.25;font-family:sans-serif;-inkscape-font-specification:sans-serif;letter-spacing:0px;word-spacing:0px;fill:orange;stroke:black;stroke-width:10;stroke-miterlimit:4"
       transform="translate(371.29016,205.68129)"
       inkscape:label="Title">
      <path
         d="m 1179.3223,74.295776 h 47.8125 l 73.5937,295.781254 73.3594,-295.781254 h 53.2031 l 73.5938,295.781254 73.3593,-295.781254 h 48.0469 l -87.8906,349.921874 h -59.5313 l -73.8281,-303.75 -74.5312,303.75 h -59.5313 z"
         style="fill:#ff910d;fill-opacity:1;stroke:#000000;stroke-width:10;stroke-miterlimit:4;stroke-dasharray:none;stroke-opacity:1" />
      <path
         d="m 1879.6348,282.1864 v 21.09375 h -198.2813 q 2.8125,44.53125 26.7188,67.96875 24.1406,23.20313 67.0312,23.20313 24.8438,0 48.0469,-6.09375 23.4375,-6.09375 46.4062,-18.28125 v 40.78125 q -23.2031,9.84375 -47.5781,15 -24.375,5.15625 -49.4531,5.15625 -62.8125,0 -99.6094,-36.5625 -36.5625,-36.5625 -36.5625,-98.90625 0,-64.45313 34.6875,-102.1875 34.9219,-37.96875 93.9844,-37.96875 52.9687,0 83.6719,34.21875 30.9375,33.98437 30.9375,92.57812 z m -43.125,-12.65625 q -0.4688,-35.39062 -19.9219,-56.48437 -19.2188,-21.09375 -51.0938,-21.09375 -36.0937,0 -57.8906,20.39062 -21.5625,20.39063 -24.8437,57.42188 z"
         style="fill:#ff910d;fill-opacity:1;stroke:#000000;stroke-width:10;stroke-miterlimit:4;stroke-dasharray:none;stroke-opacity:1" />
      <path
         d="m 2138.8535,293.20203 q 0,-47.57813 -19.6875,-74.53125 -19.4531,-27.1875 -53.6719,-27.1875 -34.2187,0 -53.9062,27.1875 -19.4531,26.95312 -19.4531,74.53125 0,47.57812 19.4531,74.76562 19.6875,26.95313 53.9062,26.95313 34.2188,0 53.6719,-26.95313 19.6875,-27.1875 19.6875,-74.76562 z M 1992.1348,201.5614 q 13.5937,-23.4375 34.2187,-34.6875 20.8594,-11.48437 49.6875,-11.48437 47.8125,0 77.5781,37.96875 30,37.96875 30,99.84375 0,61.875 -30,99.84375 -29.7656,37.96875 -77.5781,37.96875 -28.8281,0 -49.6875,-11.25 -20.625,-11.48438 -34.2187,-34.92188 v 39.375 h -43.3594 V 59.530151 h 43.3594 z"
         style="fill:#ff910d;fill-opacity:1;stroke:#000000;stroke-width:10;stroke-miterlimit:4;stroke-dasharray:none;stroke-opacity:1" />
      <path
         d="M 2456.9004,113.20203 V 244.6864 h 59.5312 q 33.0469,0 51.0938,-17.10937 18.0469,-17.10938 18.0469,-48.75 0,-31.40625 -18.0469,-48.51563 -18.0469,-17.10937 -51.0938,-17.10937 z m -47.3438,-38.906254 h 106.875 q 58.8282,0 88.8282,26.718754 30.2343,26.48437 30.2343,77.8125 0,51.79687 -30.2343,78.28125 -30,26.48437 -88.8282,26.48437 h -59.5312 v 140.625 h -47.3438 z"
         style="fill:#ff910d;fill-opacity:1;stroke:#000000;stroke-width:10;stroke-miterlimit:4;stroke-dasharray:none;stroke-opacity:1" />
      <path
         d="m 2840.8066,202.03015 q -7.2656,-4.21875 -15.9375,-6.09375 -8.4375,-2.10937 -18.75,-2.10937 -36.5625,0 -56.25,23.90625 -19.4531,23.67187 -19.4531,68.20312 v 138.28125 h -43.3594 v -262.5 h 43.3594 v 40.78125 q 13.5938,-23.90625 35.3906,-35.39062 21.7969,-11.71875 52.9688,-11.71875 4.4531,0 9.8437,0.70312 5.3907,0.46875 11.9532,1.64063 z"
         style="fill:#ff910d;fill-opacity:1;stroke:#000000;stroke-width:10;stroke-miterlimit:4;stroke-dasharray:none;stroke-opacity:1" />
      <path
         d="m 3100.0254,282.1864 v 21.09375 h -198.2813 q 2.8125,44.53125 26.7188,67.96875 24.1406,23.20313 67.0312,23.20313 24.8438,0 48.0469,-6.09375 23.4375,-6.09375 46.4063,-18.28125 v 40.78125 q -23.2032,9.84375 -47.5782,15 -24.375,5.15625 -49.4531,5.15625 -62.8125,0 -99.6094,-36.5625 -36.5625,-36.5625 -36.5625,-98.90625 0,-64.45313 34.6875,-102.1875 34.9219,-37.96875 93.9844,-37.96875 52.9688,0 83.6719,34.21875 30.9375,33.98437 30.9375,92.57812 z m -43.125,-12.65625 q -0.4688,-35.39062 -19.9219,-56.48437 -19.2187,-21.09375 -51.0937,-21.09375 -36.0938,0 -57.8907,20.39062 -21.5625,20.39063 -24.8437,57.42188 z"
         style="fill:#ff910d;fill-opacity:1;stroke:#000000;stroke-width:10;stroke-miterlimit:4;stroke-dasharray:none;stroke-opacity:1" />
      <path
         d="m 3338.1504,169.45203 v 40.78125 q -18.2813,-9.375 -37.9688,-14.0625 -19.6875,-4.6875 -40.7812,-4.6875 -32.1094,0 -48.2813,9.84375 -15.9375,9.84375 -15.9375,29.53125 0,15 11.4844,23.67187 11.4844,8.4375 46.1719,16.17188 l 14.7656,3.28125 q 45.9375,9.84375 65.1563,27.89062 19.4531,17.8125 19.4531,49.92188 0,36.5625 -29.0625,57.89062 -28.8281,21.32813 -79.4531,21.32813 -21.0938,0 -44.0625,-4.21875 -22.7344,-3.98438 -48.0469,-12.1875 v -44.53125 q 23.9062,12.42187 47.1094,18.75 23.2031,6.09375 45.9375,6.09375 30.4687,0 46.875,-10.3125 16.4062,-10.54688 16.4062,-29.53125 0,-17.57813 -11.9531,-26.95313 -11.7188,-9.375 -51.7969,-18.04687 l -15,-3.51563 q -40.0781,-8.4375 -57.8906,-25.78125 -17.8125,-17.57812 -17.8125,-48.04687 0,-37.03125 26.25,-57.1875 26.25,-20.15625 74.5312,-20.15625 23.9063,0 45,3.51562 21.0938,3.51563 38.9063,10.54688 z"
         style="fill:#ff910d;fill-opacity:1;stroke:#000000;stroke-width:10;stroke-miterlimit:4;stroke-dasharray:none;stroke-opacity:1" />
      <path
         d="m 3645.416,282.1864 v 21.09375 h -198.2812 q 2.8125,44.53125 26.7187,67.96875 24.1406,23.20313 67.0313,23.20313 24.8437,0 48.0468,-6.09375 23.4375,-6.09375 46.4063,-18.28125 v 40.78125 q -23.2031,9.84375 -47.5781,15 -24.375,5.15625 -49.4532,5.15625 -62.8125,0 -99.6093,-36.5625 -36.5625,-36.5625 -36.5625,-98.90625 0,-64.45313 34.6875,-102.1875 34.9218,-37.96875 93.9843,-37.96875 52.9688,0 83.6719,34.21875 30.9375,33.98437 30.9375,92.57812 z m -43.125,-12.65625 q -0.4687,-35.39062 -19.9219,-56.48437 -19.2187,-21.09375 -51.0937,-21.09375 -36.0938,0 -57.8906,20.39062 -21.5625,20.39063 -24.8438,57.42188 z"
         style="fill:#ff910d;fill-opacity:1;stroke:#000000;stroke-width:10;stroke-miterlimit:4;stroke-dasharray:none;stroke-opacity:1" />
      <path
         d="m 3934.4004,265.78015 v 158.4375 h -43.125 V 267.1864 q 0,-37.26562 -14.5313,-55.78125 -14.5312,-18.51562 -43.5937,-18.51562 -34.9219,0 -55.0781,22.26562 -20.1563,22.26563 -20.1563,60.70313 v 148.35937 h -43.3594 v -262.5 h 43.3594 v 40.78125 q 15.4688,-23.67187 36.3281,-35.39062 21.0938,-11.71875 48.5157,-11.71875 45.2343,0 68.4375,28.125 23.2031,27.89062 23.2031,82.26562 z"
         style="fill:#ff910d;fill-opacity:1;stroke:#000000;stroke-width:10;stroke-miterlimit:4;stroke-dasharray:none;stroke-opacity:1" />
      <path
         d="m 4063.0723,87.186401 v 74.531249 h 88.8281 v 33.51563 h -88.8281 v 142.5 q 0,32.10937 8.6718,41.25 8.9063,9.14062 35.8594,9.14062 h 44.2969 v 36.09375 h -44.2969 q -49.9219,0 -68.9062,-18.51562 -18.9844,-18.75 -18.9844,-67.96875 v -142.5 h -31.6406 v -33.51563 h 31.6406 V 87.186401 Z"
         style="fill:#ff910d;fill-opacity:1;stroke:#000000;stroke-width:10;stroke-miterlimit:4;stroke-dasharray:none;stroke-opacity:1" />
      <path
         d="m 4327.916,292.26453 q -52.2656,0 -72.4219,11.95312 -20.1562,11.95313 -20.1562,40.78125 0,22.96875 15,36.5625 15.2344,13.35938 41.25,13.35938 35.8594,0 57.4219,-25.3125 21.7968,-25.54688 21.7968,-67.73438 v -9.60937 z m 86.0156,-17.8125 v 149.76562 h -43.125 V 384.3739 q -14.7656,23.90625 -36.7968,35.39063 -22.0313,11.25 -53.9063,11.25 -40.3125,0 -64.2187,-22.5 -23.6719,-22.73438 -23.6719,-60.70313 0,-44.29687 29.5312,-66.79687 29.7657,-22.5 88.5938,-22.5 h 60.4687 v -4.21875 q 0,-29.76563 -19.6875,-45.9375 -19.4531,-16.40625 -54.8437,-16.40625 -22.5,0 -43.8281,5.39062 -21.3282,5.39063 -41.0157,16.17188 v -39.84375 q 23.6719,-9.14063 45.9375,-13.59375 22.2657,-4.6875 43.3594,-4.6875 56.9531,0 85.0781,29.53125 28.125,29.53125 28.125,89.53125 z"
         style="fill:#ff910d;fill-opacity:1;stroke:#000000;stroke-width:10;stroke-miterlimit:4;stroke-dasharray:none;stroke-opacity:1" />
      <path
         d="m 4545.416,87.186401 v 74.531249 h 88.8281 v 33.51563 h -88.8281 v 142.5 q 0,32.10937 8.6719,41.25 8.9062,9.14062 35.8594,9.14062 h 44.2968 v 36.09375 h -44.2968 q -49.9219,0 -68.9063,-18.51562 -18.9844,-18.75 -18.9844,-67.96875 v -142.5 h -31.6406 v -33.51563 h 31.6406 V 87.186401 Z"
         style="fill:#ff910d;fill-opacity:1;stroke:#000000;stroke-width:10;stroke-miterlimit:4;stroke-dasharray:none;stroke-opacity:1" />
      <path
         d="m 4690.9629,161.71765 h 43.125 v 262.5 h -43.125 z m 0,-102.187499 h 43.125 v 54.609379 h -43.125 z"
         style="fill:#ff910d;fill-opacity:1;stroke:#000000;stroke-width:10;stroke-miterlimit:4;stroke-dasharray:none;stroke-opacity:1" />
      <path
         d="m 4926.041,191.95203 q -34.6875,0 -54.8437,27.1875 -20.1563,26.95312 -20.1563,74.0625 0,47.10937 19.9219,74.29687 20.1562,26.95313 55.0781,26.95313 34.4531,0 54.6094,-27.1875 20.1562,-27.1875 20.1562,-74.0625 0,-46.64063 -20.1562,-73.82813 -20.1563,-27.42187 -54.6094,-27.42187 z m 0,-36.5625 q 56.25,0 88.3594,36.5625 32.1094,36.5625 32.1094,101.25 0,64.45312 -32.1094,101.25 -32.1094,36.5625 -88.3594,36.5625 -56.4844,0 -88.5937,-36.5625 -31.875,-36.79688 -31.875,-101.25 0,-64.6875 31.875,-101.25 32.1093,-36.5625 88.5937,-36.5625 z"
         style="fill:#ff910d;fill-opacity:1;stroke:#000000;stroke-width:10;stroke-miterlimit:4;stroke-dasharray:none;stroke-opacity:1" />
      <path
         d="m 5336.1973,265.78015 v 158.4375 h -43.125 V 267.1864 q 0,-37.26562 -14.5313,-55.78125 -14.5312,-18.51562 -43.5937,-18.51562 -34.9219,0 -55.0782,22.26562 -20.1562,22.26563 -20.1562,60.70313 v 148.35937 h -43.3594 v -262.5 h 43.3594 v 40.78125 q 15.4687,-23.67187 36.3281,-35.39062 21.0938,-11.71875 48.5156,-11.71875 45.2344,0 68.4375,28.125 23.2032,27.89062 23.2032,82.26562 z"
         style="fill:#ff910d;fill-opacity:1;stroke:#000000;stroke-width:10;stroke-miterlimit:4;stroke-dasharray:none;stroke-opacity:1" />
    </g>
    <g
       aria-label="A a cross-platform replacement for all those office presentation applications in a single file..."
       style="fill:darkSlateBlue;stroke:darkSlateBlue;font-size:192.445px;line-height:1.25;font-family:sans-serif;-inkscape-font-specification:sans-serif;letter-spacing:0px;word-spacing:0px;stroke-width:20"
       inkscape:label="Subtitle">
      <path
         d="m 793.02429,1356.5859 -25.74703,69.8177 h 51.58804 z m -10.71227,-18.6995 h 21.51851 l 53.46739,140.2932 h -19.73313 l -12.77955,-35.9895 h -63.23999 l -12.77955,35.9895 h -20.01503 z"
         style="stroke-width:1"/>
      <path
         d="m 986.03312,1425.276 q -20.9547,0 -29.03589,4.7923 -8.08119,4.7923 -8.08119,16.3503 0,9.2088 6.01391,14.6589 6.10787,5.3562 16.53824,5.3562 14.377,0 23.02199,-10.1485 8.73892,-10.2424 8.73892,-27.1566 v -3.8526 z m 34.48598,-7.1415 v 60.0451 h -17.29 v -15.9745 q -5.9199,9.5847 -14.75283,14.1891 -8.83292,4.5104 -21.61248,4.5104 -16.16237,0 -25.74703,-9.0208 -9.4907,-9.1149 -9.4907,-24.3376 0,-17.7598 11.83988,-26.7806 11.93385,-9.0209 35.51963,-9.0209 h 24.24353 v -1.6914 q 0,-11.9339 -7.89322,-18.4176 -7.79928,-6.5777 -21.98834,-6.5777 -9.02086,0 -17.57189,2.1612 -8.55102,2.1613 -16.44427,6.4838 v -15.9745 q 9.4907,-3.6647 18.41759,-5.4501 8.92689,-1.8793 17.38395,-1.8793 22.83405,0 34.11008,11.8399 11.2761,11.8398 11.2761,35.8955 z"
         style="stroke-width:1"/>
      <path
         d="m 1193.0431,1376.9768 v 16.1624 q -7.3295,-4.0406 -14.7529,-6.0139 -7.3295,-2.0673 -14.8468,-2.0673 -16.8202,0 -26.1229,10.7123 -9.3028,10.6183 -9.3028,29.8816 0,19.2632 9.3028,29.9755 9.3027,10.6183 26.1229,10.6183 7.5173,0 14.8468,-1.9733 7.4234,-2.0673 14.7529,-6.1079 v 15.9745 q -7.2355,3.3828 -15.0348,5.0742 -7.7053,1.6914 -16.4443,1.6914 -23.7737,0 -37.7748,-14.9408 -14.0012,-14.9408 -14.0012,-40.3119 0,-25.7471 14.0951,-40.5 14.1891,-14.7528 38.8085,-14.7528 7.9872,0 15.5986,1.6914 7.6113,1.5974 14.7529,4.8863 z"
         style="stroke-width:1"/>
      <path
         d="m 1284.0974,1389.0986 q -2.913,-1.6914 -6.3898,-2.4432 -3.3828,-0.8457 -7.5174,-0.8457 -14.6589,0 -22.5522,9.5847 -7.7992,9.4907 -7.7992,27.3445 v 55.4407 h -17.384 v -105.2434 h 17.384 v 16.3503 q 5.4501,-9.5847 14.189,-14.1891 8.739,-4.6983 21.2366,-4.6983 1.7854,0 3.9467,0.2819 2.1612,0.1879 4.7923,0.6578 z"
         style="stroke-width:1"/>
      <path
         d="m 1338.7863,1385.058 q -13.9071,0 -21.9883,10.9002 -8.0812,10.8062 -8.0812,29.6937 0,18.8874 7.9872,29.7876 8.0812,10.8062 22.0823,10.8062 13.8132,0 21.8944,-10.9002 8.0812,-10.9002 8.0812,-29.6936 0,-18.6995 -8.0812,-29.5997 -8.0812,-10.9942 -21.8944,-10.9942 z m 0,-14.6589 q 22.5522,0 35.4257,14.6589 12.8735,14.6589 12.8735,40.5939 0,25.841 -12.8735,40.5938 -12.8735,14.6589 -35.4257,14.6589 -22.6461,0 -35.5196,-14.6589 -12.7796,-14.7528 -12.7796,-40.5938 0,-25.935 12.7796,-40.5939 12.8735,-14.6589 35.5196,-14.6589 z"
         style="stroke-width:1"/>
      <path
         d="m 1482.8382,1376.0371 v 16.3503 q -7.3295,-3.7587 -15.2227,-5.638 -7.8933,-1.8794 -16.3503,-1.8794 -12.8735,0 -19.3573,3.9467 -6.3898,3.9466 -6.3898,11.8399 0,6.0139 4.6044,9.4906 4.6044,3.3829 18.5116,6.4838 l 5.9199,1.3155 q 18.4176,3.9467 26.1229,11.1821 7.7993,7.1416 7.7993,20.0151 0,14.6589 -11.6519,23.2099 -11.558,8.551 -31.8549,8.551 -8.4571,0 -17.6659,-1.6914 -9.1148,-1.5974 -19.2633,-4.8863 v -17.8538 q 9.5847,4.9803 18.8875,7.5174 9.3027,2.4432 18.4175,2.4432 12.2158,0 18.7935,-4.1346 6.5777,-4.2285 6.5777,-11.8399 0,-7.0475 -4.7923,-10.8062 -4.6984,-3.7587 -20.7668,-7.2355 l -6.0139,-1.4095 q -16.0684,-3.3828 -23.2099,-10.3364 -7.1415,-7.0476 -7.1415,-19.2633 0,-14.8468 10.5243,-22.928 10.5243,-8.0812 29.8816,-8.0812 9.5847,0 18.0417,1.4095 8.4571,1.4095 15.5986,4.2285 z"
         style="stroke-width:1"/>
      <path
         d="m 1583.1013,1376.0371 v 16.3503 q -7.3295,-3.7587 -15.2227,-5.638 -7.8933,-1.8794 -16.3504,-1.8794 -12.8735,0 -19.3572,3.9467 -6.3898,3.9466 -6.3898,11.8399 0,6.0139 4.6044,9.4906 4.6044,3.3829 18.5116,6.4838 l 5.9199,1.3155 q 18.4176,3.9467 26.1229,11.1821 7.7993,7.1416 7.7993,20.0151 0,14.6589 -11.652,23.2099 -11.5579,8.551 -31.8549,8.551 -8.457,0 -17.6658,-1.6914 -9.1148,-1.5974 -19.2633,-4.8863 v -17.8538 q 9.5847,4.9803 18.8874,7.5174 9.3028,2.4432 18.4176,2.4432 12.2158,0 18.7935,-4.1346 6.5777,-4.2285 6.5777,-11.8399 0,-7.0475 -4.7924,-10.8062 -4.6983,-3.7587 -20.7667,-7.2355 l -6.0139,-1.4095 q -16.0684,-3.3828 -23.21,-10.3364 -7.1415,-7.0476 -7.1415,-19.2633 0,-14.8468 10.5244,-22.928 10.5243,-8.0812 29.8816,-8.0812 9.5846,0 18.0417,1.4095 8.457,1.4095 15.5986,4.2285 z"
         style="stroke-width:1"/>
      <path
         d="m 1607.5328,1417.7586 h 50.6483 v 15.4106 h -50.6483 z"
         style="stroke-width:1"/>
      <path
         d="m 1702.4397,1462.3931 v 55.8165 h -17.3839 v -145.2734 h 17.3839 v 15.9744 q 5.4501,-9.3967 13.7193,-13.9071 8.3631,-4.6044 19.921,-4.6044 19.1694,0 31.1032,15.2227 12.0278,15.2227 12.0278,40.0301 0,24.8073 -12.0278,40.03 -11.9338,15.2227 -31.1032,15.2227 -11.5579,0 -19.921,-4.5104 -8.2692,-4.6044 -13.7193,-14.0011 z m 58.8236,-36.7412 q 0,-19.0754 -7.8933,-29.8816 -7.7993,-10.9003 -21.5185,-10.9003 -13.7192,0 -21.6125,10.9003 -7.7993,10.8062 -7.7993,29.8816 0,19.0753 7.7993,29.9755 7.8933,10.8063 21.6125,10.8063 13.7192,0 21.5185,-10.8063 7.8933,-10.9002 7.8933,-29.9755 z"
         style="stroke-width:1"/>
      <path
         d="m 1807.871,1331.9665 h 17.29 v 146.2131 h -17.29 z"
         style="stroke-width:1"/>
      <path
         d="m 1909.1678,1425.276 q -20.9547,0 -29.0359,4.7923 -8.0812,4.7923 -8.0812,16.3503 0,9.2088 6.0139,14.6589 6.1079,5.3562 16.5383,5.3562 14.377,0 23.022,-10.1485 8.7389,-10.2424 8.7389,-27.1566 v -3.8526 z m 34.486,-7.1415 v 60.0451 h -17.29 v -15.9745 q -5.9199,9.5847 -14.7529,14.1891 -8.8329,4.5104 -21.6124,4.5104 -16.1624,0 -25.7471,-9.0208 -9.4907,-9.1149 -9.4907,-24.3376 0,-17.7598 11.8399,-26.7806 11.9339,-9.0209 35.5196,-9.0209 h 24.2436 v -1.6914 q 0,-11.9339 -7.8932,-18.4176 -7.7993,-6.5777 -21.9884,-6.5777 -9.0208,0 -17.5719,2.1612 -8.551,2.1613 -16.4442,6.4838 v -15.9745 q 9.4906,-3.6647 18.4175,-5.4501 8.9269,-1.8793 17.384,-1.8793 22.834,0 34.1101,11.8399 11.2761,11.8398 11.2761,35.8955 z"
         style="stroke-width:1"/>
      <path
         d="m 1996.3694,1343.0546 v 29.8816 h 35.6136 v 13.4373 h -35.6136 v 57.1321 q 0,12.8736 3.4768,16.5383 3.5708,3.6647 14.377,3.6647 h 17.7598 v 14.471 h -17.7598 q -20.015,0 -27.6264,-7.4235 -7.6113,-7.5173 -7.6113,-27.2505 v -57.1321 h -12.6856 v -13.4373 h 12.6856 v -29.8816 z"
         style="stroke-width:1"/>
      <path
         d="m 2108.0025,1331.9665 v 14.377 h -16.5382 q -9.3028,0 -12.9675,3.7587 -3.5707,3.7586 -3.5707,13.5312 v 9.3028 h 28.472 v 13.4373 h -28.472 v 91.8061 h -17.384 v -91.8061 h -16.5382 v -13.4373 h 16.5382 v -7.3294 q 0,-17.5719 8.1752,-25.5591 8.1751,-8.0812 25.9349,-8.0812 z"
         style="stroke-width:1"/>
      <path
         d="m 2163.2553,1385.058 q -13.9072,0 -21.9884,10.9002 -8.0812,10.8062 -8.0812,29.6937 0,18.8874 7.9872,29.7876 8.0812,10.8062 22.0824,10.8062 13.8132,0 21.8943,-10.9002 8.0812,-10.9002 8.0812,-29.6936 0,-18.6995 -8.0812,-29.5997 -8.0811,-10.9942 -21.8943,-10.9942 z m 0,-14.6589 q 22.5521,0 35.4256,14.6589 12.8735,14.6589 12.8735,40.5939 0,25.841 -12.8735,40.5938 -12.8735,14.6589 -35.4256,14.6589 -22.6462,0 -35.5197,-14.6589 -12.7795,-14.7528 -12.7795,-40.5938 0,-25.935 12.7795,-40.5939 12.8735,-14.6589 35.5197,-14.6589 z"
         style="stroke-width:1"/>
      <path
         d="m 2301.1993,1389.0986 q -2.913,-1.6914 -6.3898,-2.4432 -3.3828,-0.8457 -7.5173,-0.8457 -14.6589,0 -22.5522,9.5847 -7.7993,9.4907 -7.7993,27.3445 v 55.4407 h -17.3839 v -105.2434 h 17.3839 v 16.3503 q 5.4501,-9.5847 14.1891,-14.1891 8.7389,-4.6983 21.2366,-4.6983 1.7854,0 3.9466,0.2819 2.1613,0.1879 4.7923,0.6578 z"
         style="stroke-width:1"/>
      <path
         d="m 2397.8917,1393.1392 q 6.4837,-11.652 15.5046,-17.196 9.0209,-5.5441 21.2366,-5.5441 16.4443,0 25.3712,11.558 8.9269,11.464 8.9269,32.7006 v 63.5219 h -17.384 v -62.9581 q 0,-15.1288 -5.3561,-22.4582 -5.3562,-7.3294 -16.3503,-7.3294 -13.4374,0 -21.2366,8.9268 -7.7993,8.9269 -7.7993,24.3376 v 59.4813 h -17.384 v -62.9581 q 0,-15.2227 -5.3561,-22.4582 -5.3561,-7.3294 -16.5382,-7.3294 -13.2494,0 -21.0487,9.0208 -7.7993,8.9269 -7.7993,24.2436 v 59.4813 h -17.384 v -105.2434 h 17.384 v 16.3503 q 5.9199,-9.6786 14.1891,-14.283 8.2691,-4.6044 19.6391,-4.6044 11.464,0 19.4512,5.826 8.0812,5.8259 11.9339,16.9141 z"
         style="stroke-width:1"/>
      <path
         d="m 2625.5743,1389.0986 q -2.913,-1.6914 -6.3898,-2.4432 -3.3828,-0.8457 -7.5173,-0.8457 -14.6589,0 -22.5522,9.5847 -7.7993,9.4907 -7.7993,27.3445 v 55.4407 h -17.3839 v -105.2434 h 17.3839 v 16.3503 q 5.4501,-9.5847 14.1891,-14.1891 8.7389,-4.6983 21.2366,-4.6983 1.7854,0 3.9466,0.2819 2.1613,0.1879 4.7923,0.6578 z"
         style="stroke-width:1"/>
      <path
         d="m 2729.5022,1421.2354 v 8.457 h -79.4964 q 1.1277,17.8538 10.7123,27.2506 9.6786,9.3027 26.8747,9.3027 9.9605,0 19.2633,-2.4431 9.3967,-2.4432 18.6055,-7.3295 v 16.3503 q -9.3028,3.9467 -19.0754,6.0139 -9.7726,2.0673 -19.8271,2.0673 -25.1832,0 -39.9361,-14.6589 -14.6589,-14.6589 -14.6589,-39.6542 0,-25.841 13.9072,-40.9697 14.0011,-15.2227 37.6809,-15.2227 21.2366,0 33.5463,13.7192 12.4037,13.6253 12.4037,37.1171 z m -17.29,-5.0742 q -0.1879,-14.1891 -7.9872,-22.6462 -7.7053,-8.457 -20.4849,-8.457 -14.471,0 -23.2099,8.1751 -8.645,8.1752 -9.9605,23.022 z"
         style="stroke-width:1"/>
      <path
         d="m 2774.6065,1462.3931 v 55.8165 h -17.384 v -145.2734 h 17.384 v 15.9744 q 5.4501,-9.3967 13.7192,-13.9071 8.3631,-4.6044 19.9211,-4.6044 19.1693,0 31.1032,15.2227 12.0278,15.2227 12.0278,40.0301 0,24.8073 -12.0278,40.03 -11.9339,15.2227 -31.1032,15.2227 -11.558,0 -19.9211,-4.5104 -8.2691,-4.6044 -13.7192,-14.0011 z m 58.8235,-36.7412 q 0,-19.0754 -7.8932,-29.8816 -7.7993,-10.9003 -21.5185,-10.9003 -13.7193,0 -21.6125,10.9003 -7.7993,10.8062 -7.7993,29.8816 0,19.0753 7.7993,29.9755 7.8932,10.8063 21.6125,10.8063 13.7192,0 21.5185,-10.8063 7.8932,-10.9002 7.8932,-29.9755 z"
         style="stroke-width:1"/>
      <path
         d="m 2880.0379,1331.9665 h 17.29 v 146.2131 h -17.29 z"
         style="stroke-width:1"/>
      <path
         d="m 2981.3345,1425.276 q -20.9547,0 -29.0358,4.7923 -8.0812,4.7923 -8.0812,16.3503 0,9.2088 6.0139,14.6589 6.1078,5.3562 16.5382,5.3562 14.377,0 23.022,-10.1485 8.739,-10.2424 8.739,-27.1566 v -3.8526 z m 34.486,-7.1415 v 60.0451 h -17.2899 v -15.9745 q -5.92,9.5847 -14.7529,14.1891 -8.8329,4.5104 -21.6125,4.5104 -16.1624,0 -25.747,-9.0208 -9.4907,-9.1149 -9.4907,-24.3376 0,-17.7598 11.8399,-26.7806 11.9338,-9.0209 35.5196,-9.0209 h 24.2436 v -1.6914 q 0,-11.9339 -7.8933,-18.4176 -7.7993,-6.5777 -21.9883,-6.5777 -9.0209,0 -17.5719,2.1612 -8.551,2.1613 -16.4443,6.4838 v -15.9745 q 9.4907,-3.6647 18.4176,-5.4501 8.9269,-1.8793 17.3839,-1.8793 22.8341,0 34.1102,11.8399 11.276,11.8398 11.276,35.8955 z"
         style="stroke-width:1"/>
      <path
         d="m 3127.1718,1376.9768 v 16.1624 q -7.3295,-4.0406 -14.7529,-6.0139 -7.3294,-2.0673 -14.8468,-2.0673 -16.8202,0 -26.1229,10.7123 -9.3028,10.6183 -9.3028,29.8816 0,19.2632 9.3028,29.9755 9.3027,10.6183 26.1229,10.6183 7.5174,0 14.8468,-1.9733 7.4234,-2.0673 14.7529,-6.1079 v 15.9745 q -7.2355,3.3828 -15.0348,5.0742 -7.7053,1.6914 -16.4443,1.6914 -23.7737,0 -37.7748,-14.9408 -14.0011,-14.9408 -14.0011,-40.3119 0,-25.7471 14.0951,-40.5 14.189,-14.7528 38.8084,-14.7528 7.9873,0 15.5986,1.6914 7.6114,1.5974 14.7529,4.8863 z"
         style="stroke-width:1"/>
      <path
         d="m 3247.2619,1421.2354 v 8.457 h -79.4963 q 1.1276,17.8538 10.7123,27.2506 9.6786,9.3027 26.8746,9.3027 9.9606,0 19.2633,-2.4431 9.3968,-2.4432 18.6055,-7.3295 v 16.3503 q -9.3027,3.9467 -19.0753,6.0139 -9.7726,2.0673 -19.8271,2.0673 -25.1832,0 -39.9361,-14.6589 -14.6589,-14.6589 -14.6589,-39.6542 0,-25.841 13.9072,-40.9697 14.0011,-15.2227 37.6808,-15.2227 21.2366,0 33.5464,13.7192 12.4036,13.6253 12.4036,37.1171 z m -17.2899,-5.0742 q -0.188,-14.1891 -7.9873,-22.6462 -7.7053,-8.457 -20.4848,-8.457 -14.471,0 -23.2099,8.1751 -8.645,8.1752 -9.9606,23.022 z"
         style="stroke-width:1"/>
      <path
         d="m 3357.5794,1393.1392 q 6.4838,-11.652 15.5046,-17.196 9.0209,-5.5441 21.2366,-5.5441 16.4443,0 25.3712,11.558 8.9269,11.464 8.9269,32.7006 v 63.5219 h -17.3839 v -62.9581 q 0,-15.1288 -5.3562,-22.4582 -5.3561,-7.3294 -16.3503,-7.3294 -13.4373,0 -21.2366,8.9268 -7.7993,8.9269 -7.7993,24.3376 v 59.4813 h -17.3839 v -62.9581 q 0,-15.2227 -5.3562,-22.4582 -5.3561,-7.3294 -16.5382,-7.3294 -13.2494,0 -21.0487,9.0208 -7.7993,8.9269 -7.7993,24.2436 v 59.4813 h -17.3839 v -105.2434 h 17.3839 v 16.3503 q 5.92,-9.6786 14.1891,-14.283 8.2691,-4.6044 19.6392,-4.6044 11.464,0 19.4512,5.826 8.0812,5.8259 11.9338,16.9141 z"
         style="stroke-width:1"/>
      <path
         d="m 3553.1255,1421.2354 v 8.457 h -79.4964 q 1.1276,17.8538 10.7123,27.2506 9.6786,9.3027 26.8747,9.3027 9.9605,0 19.2632,-2.4431 9.3968,-2.4432 18.6056,-7.3295 v 16.3503 q -9.3028,3.9467 -19.0754,6.0139 -9.7726,2.0673 -19.8271,2.0673 -25.1832,0 -39.9361,-14.6589 -14.6589,-14.6589 -14.6589,-39.6542 0,-25.841 13.9072,-40.9697 14.0011,-15.2227 37.6809,-15.2227 21.2366,0 33.5463,13.7192 12.4037,13.6253 12.4037,37.1171 z m -17.29,-5.0742 q -0.188,-14.1891 -7.9872,-22.6462 -7.7054,-8.457 -20.4849,-8.457 -14.471,0 -23.2099,8.1751 -8.645,8.1752 -9.9606,23.022 z"
         style="stroke-width:1"/>
      <path
         d="m 3668.987,1414.6577 v 63.5219 h -17.29 v -62.9581 q 0,-14.9408 -5.8259,-22.3642 -5.826,-7.4234 -17.4779,-7.4234 -14.0012,0 -22.0824,8.9268 -8.0811,8.9269 -8.0811,24.3376 v 59.4813 h -17.384 v -105.2434 h 17.384 v 16.3503 q 6.2018,-9.4907 14.5649,-14.1891 8.457,-4.6983 19.4512,-4.6983 18.1357,0 27.4385,11.2761 9.3027,11.1821 9.3027,32.9825 z"
         style="stroke-width:1"/>
      <path
         d="m 3720.5753,1343.0546 v 29.8816 h 35.6136 v 13.4373 h -35.6136 v 57.1321 q 0,12.8736 3.4767,16.5383 3.5708,3.6647 14.377,3.6647 h 17.7599 v 14.471 h -17.7599 q -20.015,0 -27.6263,-7.4235 -7.6114,-7.5173 -7.6114,-27.2505 v -57.1321 h -12.6856 v -13.4373 h 12.6856 v -29.8816 z"
         style="stroke-width:1"/>
      <path
         d="m 798.66233,1572.5227 v 14.377 h -16.53824 q -9.30276,0 -12.96749,3.7587 -3.57075,3.7587 -3.57075,13.5313 v 9.3028 h 28.47208 v 13.4373 h -28.47208 v 91.806 H 748.2019 v -91.806 h -16.53825 v -13.4373 h 16.53825 v -7.3295 q 0,-17.5719 8.17515,-25.5591 8.17516,-8.0812 25.93497,-8.0812 z"
         style="stroke-width:1"/>
      <path
         d="m 853.91509,1625.6142 q -13.90715,0 -21.98834,10.9002 -8.08119,10.8063 -8.08119,29.6937 0,18.8874 7.98722,29.7876 8.08119,10.8063 22.08231,10.8063 13.8132,0 21.89438,-10.9002 8.08119,-10.9002 8.08119,-29.6937 0,-18.6995 -8.08119,-29.5997 -8.08118,-10.9942 -21.89438,-10.9942 z m 0,-14.6589 q 22.55215,0 35.42567,14.6589 12.87352,14.6589 12.87352,40.5939 0,25.841 -12.87352,40.5939 -12.87352,14.6589 -35.42567,14.6589 -22.64611,0 -35.51963,-14.6589 -12.77955,-14.7529 -12.77955,-40.5939 0,-25.935 12.77955,-40.5939 12.87352,-14.6589 35.51963,-14.6589 z"
         style="stroke-width:1"/>
      <path
         d="m 991.85907,1629.6548 q -2.91298,-1.6914 -6.38977,-2.4431 -3.38282,-0.8457 -7.51738,-0.8457 -14.6589,0 -22.55215,9.5846 -7.79929,9.4907 -7.79929,27.3445 v 55.4407 h -17.38395 v -105.2433 h 17.38395 v 16.3503 q 5.4501,-9.5847 14.18906,-14.1891 8.73896,-4.6984 21.23661,-4.6984 1.78538,0 3.94663,0.2819 2.16124,0.188 4.79233,0.6578 z"
         style="stroke-width:1"/>
      <path
         d="m 1118.9968,1665.8322 q -20.9547,0 -29.0359,4.7924 -8.0811,4.7923 -8.0811,16.3503 0,9.2088 6.0139,14.6589 6.1078,5.3561 16.5382,5.3561 14.377,0 23.022,-10.1485 8.7389,-10.2424 8.7389,-27.1565 v -3.8527 z m 34.486,-7.1415 v 60.0451 h -17.29 v -15.9744 q -5.9199,9.5846 -14.7528,14.189 -8.8329,4.5105 -21.6125,4.5105 -16.1624,0 -25.747,-9.0209 -9.4907,-9.1148 -9.4907,-24.3375 0,-17.7598 11.8399,-26.7807 11.9338,-9.0208 35.5196,-9.0208 h 24.2435 v -1.6915 q 0,-11.9338 -7.8932,-18.4175 -7.7993,-6.5778 -21.9883,-6.5778 -9.0209,0 -17.5719,2.1613 -8.5511,2.1612 -16.4443,6.4837 v -15.9744 q 9.4907,-3.6647 18.4176,-5.4501 8.9269,-1.8794 17.3839,-1.8794 22.8341,0 34.1102,11.8399 11.276,11.8399 11.276,35.8955 z"
         style="stroke-width:1"/>
      <path
         d="m 1189.0964,1572.5227 h 17.29 v 146.2131 h -17.29 z"
         style="stroke-width:1"/>
      <path
         d="m 1242.5638,1572.5227 h 17.29 v 146.2131 h -17.29 z"
         style="stroke-width:1"/>
      <path
         d="m 1374.306,1583.6109 v 29.8816 h 35.6136 v 13.4373 h -35.6136 v 57.1321 q 0,12.8735 3.4768,16.5382 3.5707,3.6648 14.377,3.6648 h 17.7598 v 14.4709 h -17.7598 q -20.0151,0 -27.6264,-7.4234 -7.6114,-7.5174 -7.6114,-27.2505 v -57.1321 h -12.6856 v -13.4373 h 12.6856 v -29.8816 z"
         style="stroke-width:1"/>
      <path
         d="m 1520.1432,1655.2139 v 63.5219 h -17.29 v -62.9581 q 0,-14.9408 -5.826,-22.3642 -5.826,-7.4234 -17.4779,-7.4234 -14.0011,0 -22.0823,8.9269 -8.0812,8.9269 -8.0812,24.3375 v 59.4813 h -17.384 v -146.2131 h 17.384 v 57.3201 q 6.2018,-9.4907 14.5649,-14.1891 8.4571,-4.6984 19.4512,-4.6984 18.1357,0 27.4385,11.2761 9.3028,11.1821 9.3028,32.9825 z"
         style="stroke-width:1"/>
      <path
         d="m 1595.411,1625.6142 q -13.9072,0 -21.9884,10.9002 -8.0812,10.8063 -8.0812,29.6937 0,18.8874 7.9872,29.7876 8.0812,10.8063 22.0824,10.8063 13.8132,0 21.8943,-10.9002 8.0812,-10.9002 8.0812,-29.6937 0,-18.6995 -8.0812,-29.5997 -8.0811,-10.9942 -21.8943,-10.9942 z m 0,-14.6589 q 22.5521,0 35.4256,14.6589 12.8735,14.6589 12.8735,40.5939 0,25.841 -12.8735,40.5939 -12.8735,14.6589 -35.4256,14.6589 -22.6462,0 -35.5197,-14.6589 -12.7795,-14.7529 -12.7795,-40.5939 0,-25.935 12.7795,-40.5939 12.8735,-14.6589 35.5197,-14.6589 z"
         style="stroke-width:1"/>
      <path
         d="m 1739.4628,1616.5934 v 16.3503 q -7.3294,-3.7587 -15.2227,-5.638 -7.8932,-1.8794 -16.3503,-1.8794 -12.8735,0 -19.3572,3.9466 -6.3898,3.9467 -6.3898,11.8399 0,6.0139 4.6044,9.4907 4.6044,3.3828 18.5115,6.4838 l 5.92,1.3155 q 18.4176,3.9466 26.1229,11.1821 7.7993,7.1415 7.7993,20.015 0,14.6589 -11.652,23.21 -11.558,8.551 -31.8549,8.551 -8.457,0 -17.6658,-1.6914 -9.1149,-1.5975 -19.2633,-4.8863 v -17.8538 q 9.5846,4.9802 18.8874,7.5174 9.3028,2.4431 18.4176,2.4431 12.2157,0 18.7934,-4.1345 6.5777,-4.2286 6.5777,-11.8399 0,-7.0476 -4.7923,-10.8063 -4.6983,-3.7587 -20.7668,-7.2354 l -6.0139,-1.4096 q -16.0684,-3.3828 -23.2099,-10.3364 -7.1415,-7.0475 -7.1415,-19.2633 0,-14.8468 10.5243,-22.928 10.5244,-8.0812 29.8816,-8.0812 9.5847,0 18.0418,1.4096 8.457,1.4095 15.5985,4.2285 z"
         style="stroke-width:1"/>
      <path
         d="m 1862.6539,1661.7916 v 8.4571 h -79.4963 q 1.1276,17.8538 10.7123,27.2505 9.6786,9.3028 26.8746,9.3028 9.9605,0 19.2633,-2.4432 9.3967,-2.4431 18.6055,-7.3294 v 16.3503 q -9.3027,3.9466 -19.0753,6.0139 -9.7726,2.0673 -19.8271,2.0673 -25.1833,0 -39.9361,-14.6589 -14.6589,-14.6589 -14.6589,-39.6542 0,-25.841 13.9071,-40.9698 14.0011,-15.2227 37.6809,-15.2227 21.2366,0 33.5463,13.7193 12.4037,13.6252 12.4037,37.117 z m -17.29,-5.0742 q -0.1879,-14.189 -7.9872,-22.6461 -7.7053,-8.4571 -20.4849,-8.4571 -14.4709,0 -23.2099,8.1752 -8.645,8.1751 -9.9605,23.022 z"
         style="stroke-width:1"/>
      <path
         d="m 1992.9866,1625.6142 q -13.9072,0 -21.9884,10.9002 -8.0812,10.8063 -8.0812,29.6937 0,18.8874 7.9873,29.7876 8.0812,10.8063 22.0823,10.8063 13.8132,0 21.8944,-10.9002 8.0811,-10.9002 8.0811,-29.6937 0,-18.6995 -8.0811,-29.5997 -8.0812,-10.9942 -21.8944,-10.9942 z m 0,-14.6589 q 22.5521,0 35.4256,14.6589 12.8736,14.6589 12.8736,40.5939 0,25.841 -12.8736,40.5939 -12.8735,14.6589 -35.4256,14.6589 -22.6461,0 -35.5197,-14.6589 -12.7795,-14.7529 -12.7795,-40.5939 0,-25.935 12.7795,-40.5939 12.8736,-14.6589 35.5197,-14.6589 z"
         style="stroke-width:1"/>
      <path
         d="m 2123.2252,1572.5227 v 14.377 h -16.5382 q -9.3028,0 -12.9675,3.7587 -3.5708,3.7587 -3.5708,13.5313 v 9.3028 h 47.4535 v -7.3295 q 0,-17.5719 8.1751,-25.5591 2.6311,-2.6311 6.2959,-4.4165 7.3294,-3.6647 19.6391,-3.6647 h 16.3503 v 14.377 h -16.5382 q -9.3028,0 -12.9675,3.7587 -3.5708,3.7587 -3.5708,13.5313 v 9.3028 h 64.8375 v 105.2433 h -17.384 v -91.806 h -47.4535 v 91.806 h -17.3839 v -91.806 h -47.4535 v 91.806 h -17.3839 v -91.806 h -16.5383 v -13.4373 h 16.5383 v -7.3295 q 0,-17.5719 8.1751,-25.5591 8.1752,-8.0812 25.935,-8.0812 z m 79.2144,0.188 h 17.384 v 21.8943 h -17.384 z"
         style="stroke-width:1"/>
      <path
         d="m 2331.7387,1617.5331 v 16.1623 q -7.3295,-4.0406 -14.7529,-6.0139 -7.3294,-2.0673 -14.8468,-2.0673 -16.8202,0 -26.1229,10.7123 -9.3028,10.6183 -9.3028,29.8816 0,19.2633 9.3028,29.9756 9.3027,10.6183 26.1229,10.6183 7.5174,0 14.8468,-1.9733 7.4234,-2.0673 14.7529,-6.1079 v 15.9744 q -7.2355,3.3829 -15.0348,5.0743 -7.7053,1.6914 -16.4443,1.6914 -23.7737,0 -37.7748,-14.9408 -14.0011,-14.9408 -14.0011,-40.312 0,-25.747 14.0951,-40.4999 14.189,-14.7529 38.8084,-14.7529 7.9873,0 15.5986,1.6915 7.6114,1.5974 14.7529,4.8863 z"
         style="stroke-width:1"/>
      <path
         d="m 2451.8288,1661.7916 v 8.4571 h -79.4963 q 1.1276,17.8538 10.7123,27.2505 9.6786,9.3028 26.8746,9.3028 9.9606,0 19.2633,-2.4432 9.3967,-2.4431 18.6055,-7.3294 v 16.3503 q -9.3027,3.9466 -19.0753,6.0139 -9.7726,2.0673 -19.8271,2.0673 -25.1832,0 -39.9361,-14.6589 -14.6589,-14.6589 -14.6589,-39.6542 0,-25.841 13.9071,-40.9698 14.0012,-15.2227 37.6809,-15.2227 21.2366,0 33.5464,13.7193 12.4036,13.6252 12.4036,37.117 z m -17.2899,-5.0742 q -0.188,-14.189 -7.9873,-22.6461 -7.7053,-8.4571 -20.4848,-8.4571 -14.471,0 -23.21,8.1752 -8.6449,8.1751 -9.9605,23.022 z"
         style="stroke-width:1"/>
      <path
         d="m 2558.1059,1702.9493 v 55.8166 h -17.384 v -145.2734 h 17.384 v 15.9744 q 5.4501,-9.3967 13.7192,-13.9072 8.3631,-4.6044 19.9211,-4.6044 19.1693,0 31.1031,15.2227 12.0279,15.2227 12.0279,40.0301 0,24.8074 -12.0279,40.0301 -11.9338,15.2227 -31.1031,15.2227 -11.558,0 -19.9211,-4.5105 -8.2691,-4.6044 -13.7192,-14.0011 z m 58.8235,-36.7412 q 0,-19.0753 -7.8932,-29.8816 -7.7993,-10.9002 -21.5186,-10.9002 -13.7192,0 -21.6124,10.9002 -7.7993,10.8063 -7.7993,29.8816 0,19.0754 7.7993,29.9756 7.8932,10.8062 21.6124,10.8062 13.7193,0 21.5186,-10.8062 7.8932,-10.9002 7.8932,-29.9756 z"
         style="stroke-width:1"/>
      <path
         d="m 2724.5219,1629.6548 q -2.9129,-1.6914 -6.3897,-2.4431 -3.3829,-0.8457 -7.5174,-0.8457 -14.6589,0 -22.5522,9.5846 -7.7992,9.4907 -7.7992,27.3445 v 55.4407 h -17.384 v -105.2433 h 17.384 v 16.3503 q 5.4501,-9.5847 14.189,-14.1891 8.739,-4.6984 21.2366,-4.6984 1.7854,0 3.9466,0.2819 2.1613,0.188 4.7924,0.6578 z"
         style="stroke-width:1"/>
      <path
         d="m 2828.4498,1661.7916 v 8.4571 h -79.4963 q 1.1276,17.8538 10.7123,27.2505 9.6786,9.3028 26.8746,9.3028 9.9605,0 19.2633,-2.4432 9.3967,-2.4431 18.6055,-7.3294 v 16.3503 q -9.3027,3.9466 -19.0753,6.0139 -9.7726,2.0673 -19.8271,2.0673 -25.1833,0 -39.9361,-14.6589 -14.6589,-14.6589 -14.6589,-39.6542 0,-25.841 13.9071,-40.9698 14.0011,-15.2227 37.6809,-15.2227 21.2366,0 33.5463,13.7193 12.4037,13.6252 12.4037,37.117 z m -17.29,-5.0742 q -0.1879,-14.189 -7.9872,-22.6461 -7.7053,-8.4571 -20.4849,-8.4571 -14.4709,0 -23.2099,8.1752 -8.645,8.1751 -9.9605,23.022 z"
         style="stroke-width:1"/>
      <path
         d="m 2923.9206,1616.5934 v 16.3503 q -7.3295,-3.7587 -15.2227,-5.638 -7.8933,-1.8794 -16.3503,-1.8794 -12.8735,0 -19.3573,3.9466 -6.3898,3.9467 -6.3898,11.8399 0,6.0139 4.6044,9.4907 4.6044,3.3828 18.5116,6.4838 l 5.9199,1.3155 q 18.4176,3.9466 26.1229,11.1821 7.7993,7.1415 7.7993,20.015 0,14.6589 -11.6519,23.21 -11.558,8.551 -31.8549,8.551 -8.4571,0 -17.6659,-1.6914 -9.1148,-1.5975 -19.2633,-4.8863 v -17.8538 q 9.5847,4.9802 18.8875,7.5174 9.3027,2.4431 18.4175,2.4431 12.2158,0 18.7935,-4.1345 6.5777,-4.2286 6.5777,-11.8399 0,-7.0476 -4.7923,-10.8063 -4.6984,-3.7587 -20.7668,-7.2354 l -6.0139,-1.4096 q -16.0684,-3.3828 -23.2099,-10.3364 -7.1415,-7.0475 -7.1415,-19.2633 0,-14.8468 10.5243,-22.928 10.5243,-8.0812 29.8816,-8.0812 9.5847,0 18.0417,1.4096 8.4571,1.4095 15.5986,4.2285 z"
         style="stroke-width:1"/>
      <path
         d="m 3047.1115,1661.7916 v 8.4571 h -79.4963 q 1.1276,17.8538 10.7123,27.2505 9.6786,9.3028 26.8746,9.3028 9.9606,0 19.2633,-2.4432 9.3968,-2.4431 18.6056,-7.3294 v 16.3503 q -9.3028,3.9466 -19.0754,6.0139 -9.7726,2.0673 -19.8271,2.0673 -25.1832,0 -39.9361,-14.6589 -14.6589,-14.6589 -14.6589,-39.6542 0,-25.841 13.9072,-40.9698 14.0011,-15.2227 37.6808,-15.2227 21.2367,0 33.5464,13.7193 12.4036,13.6252 12.4036,37.117 z m -17.2899,-5.0742 q -0.188,-14.189 -7.9873,-22.6461 -7.7053,-8.4571 -20.4848,-8.4571 -14.471,0 -23.2099,8.1752 -8.645,8.1751 -9.9606,23.022 z"
         style="stroke-width:1"/>
      <path
         d="m 3162.9734,1655.2139 v 63.5219 h -17.29 v -62.9581 q 0,-14.9408 -5.826,-22.3642 -5.826,-7.4234 -17.4779,-7.4234 -14.0011,0 -22.0823,8.9269 -8.0812,8.9269 -8.0812,24.3375 v 59.4813 h -17.384 v -105.2433 h 17.384 v 16.3503 q 6.2018,-9.4907 14.5649,-14.1891 8.4571,-4.6984 19.4512,-4.6984 18.1357,0 27.4385,11.2761 9.3028,11.1821 9.3028,32.9825 z"
         style="stroke-width:1"/>
      <path
         d="m 3214.5613,1583.6109 v 29.8816 h 35.6136 v 13.4373 h -35.6136 v 57.1321 q 0,12.8735 3.4768,16.5382 3.5708,3.6648 14.377,3.6648 h 17.7598 v 14.4709 h -17.7598 q -20.015,0 -27.6264,-7.4234 -7.6113,-7.5174 -7.6113,-27.2505 v -57.1321 h -12.6856 v -13.4373 h 12.6856 v -29.8816 z"
         style="stroke-width:1"/>
      <path
         d="m 3320.7445,1665.8322 q -20.9547,0 -29.0359,4.7924 -8.0812,4.7923 -8.0812,16.3503 0,9.2088 6.0139,14.6589 6.1079,5.3561 16.5382,5.3561 14.377,0 23.022,-10.1485 8.739,-10.2424 8.739,-27.1565 v -3.8527 z m 34.486,-7.1415 v 60.0451 h -17.29 v -15.9744 q -5.92,9.5846 -14.7529,14.189 -8.8329,4.5105 -21.6125,4.5105 -16.1623,0 -25.747,-9.0209 -9.4907,-9.1148 -9.4907,-24.3375 0,-17.7598 11.8399,-26.7807 11.9338,-9.0208 35.5196,-9.0208 h 24.2436 v -1.6915 q 0,-11.9338 -7.8933,-18.4175 -7.7993,-6.5778 -21.9883,-6.5778 -9.0209,0 -17.5719,2.1613 -8.551,2.1612 -16.4443,6.4837 v -15.9744 q 9.4907,-3.6647 18.4176,-5.4501 8.9269,-1.8794 17.384,-1.8794 22.834,0 34.1101,11.8399 11.2761,11.8399 11.2761,35.8955 z"
         style="stroke-width:1"/>
      <path
         d="m 3407.9461,1583.6109 v 29.8816 h 35.6136 v 13.4373 h -35.6136 v 57.1321 q 0,12.8735 3.4768,16.5382 3.5708,3.6648 14.377,3.6648 h 17.7598 v 14.4709 h -17.7598 q -20.015,0 -27.6264,-7.4234 -7.6113,-7.5174 -7.6113,-27.2505 v -57.1321 h -12.6856 v -13.4373 h 12.6856 v -29.8816 z"
         style="stroke-width:1"/>
      <path
         d="m 3466.2996,1613.4925 h 17.29 v 105.2433 h -17.29 z m 0,-40.9698 h 17.29 v 21.8944 h -17.29 z"
         style="stroke-width:1"/>
      <path
         d="m 3560.549,1625.6142 q -13.9072,0 -21.9884,10.9002 -8.0812,10.8063 -8.0812,29.6937 0,18.8874 7.9872,29.7876 8.0812,10.8063 22.0824,10.8063 13.8132,0 21.8943,-10.9002 8.0812,-10.9002 8.0812,-29.6937 0,-18.6995 -8.0812,-29.5997 -8.0811,-10.9942 -21.8943,-10.9942 z m 0,-14.6589 q 22.5521,0 35.4256,14.6589 12.8735,14.6589 12.8735,40.5939 0,25.841 -12.8735,40.5939 -12.8735,14.6589 -35.4256,14.6589 -22.6462,0 -35.5197,-14.6589 -12.7795,-14.7529 -12.7795,-40.5939 0,-25.935 12.7795,-40.5939 12.8735,-14.6589 35.5197,-14.6589 z"
         style="stroke-width:1"/>
      <path
         d="m 3724.9917,1655.2139 v 63.5219 h -17.29 v -62.9581 q 0,-14.9408 -5.826,-22.3642 -5.826,-7.4234 -17.4779,-7.4234 -14.0011,0 -22.0823,8.9269 -8.0812,8.9269 -8.0812,24.3375 v 59.4813 h -17.3839 v -105.2433 h 17.3839 v 16.3503 q 6.2018,-9.4907 14.5649,-14.1891 8.4571,-4.6984 19.4513,-4.6984 18.1356,0 27.4384,11.2761 9.3028,11.1821 9.3028,32.9825 z"
         style="stroke-width:1"/>
      <path
         d="m 3868.4798,1665.8322 q -20.9547,0 -29.0359,4.7924 -8.0812,4.7923 -8.0812,16.3503 0,9.2088 6.0139,14.6589 6.1079,5.3561 16.5383,5.3561 14.377,0 23.022,-10.1485 8.7389,-10.2424 8.7389,-27.1565 v -3.8527 z m 34.486,-7.1415 v 60.0451 h -17.29 v -15.9744 q -5.9199,9.5846 -14.7528,14.189 -8.833,4.5105 -21.6125,4.5105 -16.1624,0 -25.7471,-9.0209 -9.4907,-9.1148 -9.4907,-24.3375 0,-17.7598 11.8399,-26.7807 11.9339,-9.0208 35.5197,-9.0208 h 24.2435 v -1.6915 q 0,-11.9338 -7.8932,-18.4175 -7.7993,-6.5778 -21.9884,-6.5778 -9.0208,0 -17.5719,2.1613 -8.551,2.1612 -16.4442,6.4837 v -15.9744 q 9.4907,-3.6647 18.4176,-5.4501 8.9268,-1.8794 17.3839,-1.8794 22.8341,0 34.1101,11.8399 11.2761,11.8399 11.2761,35.8955 z"
         style="stroke-width:1"/>
      <path
         d="m 3955.3056,1702.9493 v 55.8166 h -17.384 v -145.2734 h 17.384 v 15.9744 q 5.4501,-9.3967 13.7192,-13.9072 8.3631,-4.6044 19.9211,-4.6044 19.1693,0 31.1032,15.2227 12.0278,15.2227 12.0278,40.0301 0,24.8074 -12.0278,40.0301 -11.9339,15.2227 -31.1032,15.2227 -11.558,0 -19.9211,-4.5105 -8.2691,-4.6044 -13.7192,-14.0011 z m 58.8235,-36.7412 q 0,-19.0753 -7.8932,-29.8816 -7.7993,-10.9002 -21.5185,-10.9002 -13.7193,0 -21.6125,10.9002 -7.7993,10.8063 -7.7993,29.8816 0,19.0754 7.7993,29.9756 7.8932,10.8062 21.6125,10.8062 13.7192,0 21.5185,-10.8062 7.8932,-10.9002 7.8932,-29.9756 z"
         style="stroke-width:1"/>
      <path
         d="m 4077.4631,1702.9493 v 55.8166 h -17.384 v -145.2734 h 17.384 v 15.9744 q 5.4501,-9.3967 13.7192,-13.9072 8.3631,-4.6044 19.921,-4.6044 19.1694,0 31.1032,15.2227 12.0278,15.2227 12.0278,40.0301 0,24.8074 -12.0278,40.0301 -11.9338,15.2227 -31.1032,15.2227 -11.5579,0 -19.921,-4.5105 -8.2691,-4.6044 -13.7192,-14.0011 z m 58.8235,-36.7412 q 0,-19.0753 -7.8933,-29.8816 -7.7993,-10.9002 -21.5185,-10.9002 -13.7192,0 -21.6125,10.9002 -7.7992,10.8063 -7.7992,29.8816 0,19.0754 7.7992,29.9756 7.8933,10.8062 21.6125,10.8062 13.7192,0 21.5185,-10.8062 7.8933,-10.9002 7.8933,-29.9756 z"
         style="stroke-width:1"/>
      <path
         d="m 4182.8944,1572.5227 h 17.2899 v 146.2131 h -17.2899 z"
         style="stroke-width:1"/>
      <path
         d="m 4236.3616,1613.4925 h 17.29 v 105.2433 h -17.29 z m 0,-40.9698 h 17.29 v 21.8944 h -17.29 z"
         style="stroke-width:1"/>
      <path
         d="m 4365.5666,1617.5331 v 16.1623 q -7.3295,-4.0406 -14.7529,-6.0139 -7.3295,-2.0673 -14.8468,-2.0673 -16.8202,0 -26.1229,10.7123 -9.3028,10.6183 -9.3028,29.8816 0,19.2633 9.3028,29.9756 9.3027,10.6183 26.1229,10.6183 7.5173,0 14.8468,-1.9733 7.4234,-2.0673 14.7529,-6.1079 v 15.9744 q -7.2355,3.3829 -15.0348,5.0743 -7.7053,1.6914 -16.4443,1.6914 -23.7737,0 -37.7748,-14.9408 -14.0012,-14.9408 -14.0012,-40.312 0,-25.747 14.0951,-40.4999 14.1891,-14.7529 38.8085,-14.7529 7.9872,0 15.5986,1.6915 7.6113,1.5974 14.7529,4.8863 z"
         style="stroke-width:1"/>
      <path
         d="m 4443.4656,1665.8322 q -20.9547,0 -29.0358,4.7924 -8.0812,4.7923 -8.0812,16.3503 0,9.2088 6.0139,14.6589 6.1078,5.3561 16.5382,5.3561 14.377,0 23.022,-10.1485 8.739,-10.2424 8.739,-27.1565 v -3.8527 z m 34.486,-7.1415 v 60.0451 h -17.2899 v -15.9744 q -5.92,9.5846 -14.7529,14.189 -8.8329,4.5105 -21.6125,4.5105 -16.1624,0 -25.747,-9.0209 -9.4907,-9.1148 -9.4907,-24.3375 0,-17.7598 11.8399,-26.7807 11.9338,-9.0208 35.5196,-9.0208 h 24.2436 v -1.6915 q 0,-11.9338 -7.8933,-18.4175 -7.7993,-6.5778 -21.9883,-6.5778 -9.0209,0 -17.5719,2.1613 -8.551,2.1612 -16.4443,6.4837 v -15.9744 q 9.4907,-3.6647 18.4176,-5.4501 8.9269,-1.8794 17.3839,-1.8794 22.8341,0 34.1102,11.8399 11.276,11.8399 11.276,35.8955 z"
         style="stroke-width:1"/>
      <path
         d="m 4530.6673,1583.6109 v 29.8816 h 35.6136 v 13.4373 h -35.6136 v 57.1321 q 0,12.8735 3.4768,16.5382 3.5707,3.6648 14.377,3.6648 h 17.7598 v 14.4709 h -17.7598 q -20.015,0 -27.6264,-7.4234 -7.6113,-7.5174 -7.6113,-27.2505 v -57.1321 h -12.6856 v -13.4373 h 12.6856 v -29.8816 z"
         style="stroke-width:1"/>
      <path
         d="m 4589.0208,1613.4925 h 17.29 v 105.2433 h -17.29 z m 0,-40.9698 h 17.29 v 21.8944 h -17.29 z"
         style="stroke-width:1"/>
      <path
         d="m 4683.2702,1625.6142 q -13.9072,0 -21.9884,10.9002 -8.0812,10.8063 -8.0812,29.6937 0,18.8874 7.9872,29.7876 8.0812,10.8063 22.0824,10.8063 13.8131,0 21.8943,-10.9002 8.0812,-10.9002 8.0812,-29.6937 0,-18.6995 -8.0812,-29.5997 -8.0812,-10.9942 -21.8943,-10.9942 z m 0,-14.6589 q 22.5521,0 35.4256,14.6589 12.8735,14.6589 12.8735,40.5939 0,25.841 -12.8735,40.5939 -12.8735,14.6589 -35.4256,14.6589 -22.6462,0 -35.5197,-14.6589 -12.7795,-14.7529 -12.7795,-40.5939 0,-25.935 12.7795,-40.5939 12.8735,-14.6589 35.5197,-14.6589 z"
         style="stroke-width:1"/>
      <path
         d="m 4847.7129,1655.2139 v 63.5219 h -17.29 v -62.9581 q 0,-14.9408 -5.826,-22.3642 -5.826,-7.4234 -17.4779,-7.4234 -14.0011,0 -22.0823,8.9269 -8.0812,8.9269 -8.0812,24.3375 v 59.4813 h -17.384 v -105.2433 h 17.384 v 16.3503 q 6.2018,-9.4907 14.5649,-14.1891 8.4571,-4.6984 19.4513,-4.6984 18.1356,0 27.4384,11.2761 9.3028,11.1821 9.3028,32.9825 z"
         style="stroke-width:1"/>
      <path
         d="m 4949.2914,1616.5934 v 16.3503 q -7.3294,-3.7587 -15.2227,-5.638 -7.8932,-1.8794 -16.3503,-1.8794 -12.8735,0 -19.3572,3.9466 -6.3898,3.9467 -6.3898,11.8399 0,6.0139 4.6044,9.4907 4.6044,3.3828 18.5115,6.4838 l 5.92,1.3155 q 18.4176,3.9466 26.1229,11.1821 7.7993,7.1415 7.7993,20.015 0,14.6589 -11.652,23.21 -11.5579,8.551 -31.8549,8.551 -8.457,0 -17.6658,-1.6914 -9.1149,-1.5975 -19.2633,-4.8863 v -17.8538 q 9.5846,4.9802 18.8874,7.5174 9.3028,2.4431 18.4176,2.4431 12.2157,0 18.7935,-4.1345 6.5777,-4.2286 6.5777,-11.8399 0,-7.0476 -4.7924,-10.8063 -4.6983,-3.7587 -20.7667,-7.2354 l -6.0139,-1.4096 q -16.0685,-3.3828 -23.21,-10.3364 -7.1415,-7.0475 -7.1415,-19.2633 0,-14.8468 10.5244,-22.928 10.5243,-8.0812 29.8816,-8.0812 9.5846,0 18.0417,1.4096 8.457,1.4095 15.5985,4.2285 z"
         style="stroke-width:1"/>
      <path
         d="m 5043.6348,1613.4925 h 17.29 v 105.2433 h -17.29 z m 0,-40.9698 h 17.29 v 21.8944 h -17.29 z"
         style="stroke-width:1"/>
      <path
         d="m 5184.5857,1655.2139 v 63.5219 h -17.29 v -62.9581 q 0,-14.9408 -5.826,-22.3642 -5.826,-7.4234 -17.4779,-7.4234 -14.0011,0 -22.0823,8.9269 -8.0812,8.9269 -8.0812,24.3375 v 59.4813 h -17.384 v -105.2433 h 17.384 v 16.3503 q 6.2018,-9.4907 14.5649,-14.1891 8.4571,-4.6984 19.4513,-4.6984 18.1356,0 27.4384,11.2761 9.3028,11.1821 9.3028,32.9825 z"
         style="stroke-width:1"/>
      <path
         d="m 5328.0736,1665.8322 q -20.9547,0 -29.0359,4.7924 -8.0812,4.7923 -8.0812,16.3503 0,9.2088 6.0139,14.6589 6.1079,5.3561 16.5382,5.3561 14.377,0 23.022,-10.1485 8.739,-10.2424 8.739,-27.1565 v -3.8527 z m 34.486,-7.1415 v 60.0451 h -17.29 v -15.9744 q -5.92,9.5846 -14.7529,14.189 -8.8329,4.5105 -21.6125,4.5105 -16.1623,0 -25.747,-9.0209 -9.4907,-9.1148 -9.4907,-24.3375 0,-17.7598 11.8399,-26.7807 11.9338,-9.0208 35.5196,-9.0208 h 24.2436 v -1.6915 q 0,-11.9338 -7.8933,-18.4175 -7.7993,-6.5778 -21.9883,-6.5778 -9.0209,0 -17.5719,2.1613 -8.551,2.1612 -16.4443,6.4837 v -15.9744 q 9.4907,-3.6647 18.4176,-5.4501 8.9269,-1.8794 17.384,-1.8794 22.834,0 34.1101,11.8399 11.2761,11.8399 11.2761,35.8955 z"
         style="stroke-width:1"/>
      <path
         d="m 5526.4384,1616.5934 v 16.3503 q -7.3294,-3.7587 -15.2227,-5.638 -7.8932,-1.8794 -16.3503,-1.8794 -12.8735,0 -19.3573,3.9466 -6.3897,3.9467 -6.3897,11.8399 0,6.0139 4.6044,9.4907 4.6044,3.3828 18.5115,6.4838 l 5.92,1.3155 q 18.4175,3.9466 26.1229,11.1821 7.7993,7.1415 7.7993,20.015 0,14.6589 -11.652,23.21 -11.558,8.551 -31.8549,8.551 -8.4571,0 -17.6659,-1.6914 -9.1148,-1.5975 -19.2632,-4.8863 v -17.8538 q 9.5846,4.9802 18.8874,7.5174 9.3027,2.4431 18.4176,2.4431 12.2157,0 18.7934,-4.1345 6.5777,-4.2286 6.5777,-11.8399 0,-7.0476 -4.7923,-10.8063 -4.6984,-3.7587 -20.7668,-7.2354 l -6.0139,-1.4096 q -16.0684,-3.3828 -23.2099,-10.3364 -7.1415,-7.0475 -7.1415,-19.2633 0,-14.8468 10.5243,-22.928 10.5244,-8.0812 29.8816,-8.0812 9.5847,0 18.0417,1.4096 8.4571,1.4095 15.5986,4.2285 z"
         style="stroke-width:1"/>
      <path
         d="m 5559.609,1613.4925 h 17.2899 v 105.2433 h -17.2899 z m 0,-40.9698 h 17.2899 v 21.8944 h -17.2899 z"
         style="stroke-width:1"/>
      <path
         d="m 5700.5598,1655.2139 v 63.5219 h -17.29 v -62.9581 q 0,-14.9408 -5.826,-22.3642 -5.8259,-7.4234 -17.4779,-7.4234 -14.0011,0 -22.0823,8.9269 -8.0812,8.9269 -8.0812,24.3375 v 59.4813 h -17.3839 v -105.2433 h 17.3839 v 16.3503 q 6.2019,-9.4907 14.5649,-14.1891 8.4571,-4.6984 19.4513,-4.6984 18.1357,0 27.4384,11.2761 9.3028,11.1821 9.3028,32.9825 z"
         style="stroke-width:1"/>
      <path
         d="m 5804.2999,1664.8926 q 0,-18.7935 -7.7993,-29.1299 -7.7053,-10.3364 -21.7065,-10.3364 -13.9071,0 -21.7064,10.3364 -7.7053,10.3364 -7.7053,29.1299 0,18.6995 7.7053,29.0359 7.7993,10.3364 21.7064,10.3364 14.0012,0 21.7065,-10.3364 7.7993,-10.3364 7.7993,-29.0359 z m 17.2899,40.7818 q 0,26.8746 -11.9338,39.9361 -11.9339,13.1554 -36.5533,13.1554 -9.1148,0 -17.196,-1.4095 -8.0812,-1.3156 -15.6925,-4.1346 v -16.8201 q 7.6113,4.1345 15.0347,6.1078 7.4234,1.9734 15.1288,1.9734 17.008,0 25.4651,-8.9269 8.4571,-8.833 8.4571,-26.7807 v -8.551 q -5.3562,9.3027 -13.7193,13.9071 -8.3631,4.6044 -20.015,4.6044 -19.3573,0 -31.1971,-14.7528 -11.8399,-14.7529 -11.8399,-39.0904 0,-24.4315 11.8399,-39.1844 11.8398,-14.7529 31.1971,-14.7529 11.6519,0 20.015,4.6044 8.3631,4.6044 13.7193,13.9072 v -15.9744 h 17.2899 z"
         style="stroke-width:1"/>
      <path
         d="m 5857.2037,1572.5227 h 17.29 v 146.2131 h -17.29 z"
         style="stroke-width:1"/>
      <path
         d="m 6000.6916,1661.7916 v 8.4571 h -79.4963 q 1.1276,17.8538 10.7123,27.2505 9.6786,9.3028 26.8746,9.3028 9.9605,0 19.2633,-2.4432 9.3967,-2.4431 18.6055,-7.3294 v 16.3503 q -9.3027,3.9466 -19.0753,6.0139 -9.7726,2.0673 -19.8271,2.0673 -25.1833,0 -39.9361,-14.6589 -14.6589,-14.6589 -14.6589,-39.6542 0,-25.841 13.9071,-40.9698 14.0012,-15.2227 37.6809,-15.2227 21.2366,0 33.5463,13.7193 12.4037,13.6252 12.4037,37.117 z m -17.29,-5.0742 q -0.1879,-14.189 -7.9872,-22.6461 -7.7053,-8.4571 -20.4848,-8.4571 -14.471,0 -23.21,8.1752 -8.645,8.1751 -9.9605,23.022 z"
         style="stroke-width:1"/>
      <path
         d="m 6175.2827,1613.4925 v 105.2433 h -17.384 v -91.806 h -47.4535 v 91.806 h -17.3839 v -91.806 h -16.5383 v -13.4373 h 16.5383 v -7.3295 q 0,-17.196 8.0812,-25.3712 8.1751,-8.2691 24.9953,-8.2691 h 17.3839 v 14.377 h -16.5382 q -9.3028,0 -12.9675,3.7587 -3.5708,3.7587 -3.5708,13.5313 v 9.3028 z m -17.384,-40.7818 h 17.384 v 21.8943 h -17.384 z"
         style="stroke-width:1"/>
      <path
         d="m 6211.46,1572.5227 h 17.29 v 146.2131 h -17.29 z"
         style="stroke-width:1"/>
      <path
         d="m 6354.948,1661.7916 v 8.4571 h -79.4964 q 1.1277,17.8538 10.7123,27.2505 9.6787,9.3028 26.8747,9.3028 9.9605,0 19.2633,-2.4432 9.3967,-2.4431 18.6055,-7.3294 v 16.3503 q -9.3028,3.9466 -19.0754,6.0139 -9.7726,2.0673 -19.8271,2.0673 -25.1832,0 -39.9361,-14.6589 -14.6589,-14.6589 -14.6589,-39.6542 0,-25.841 13.9072,-40.9698 14.0011,-15.2227 37.6809,-15.2227 21.2366,0 33.5463,13.7193 12.4037,13.6252 12.4037,37.117 z m -17.29,-5.0742 q -0.1879,-14.189 -7.9872,-22.6461 -7.7053,-8.4571 -20.4849,-8.4571 -14.471,0 -23.2099,8.1752 -8.645,8.1751 -9.9605,23.022 z"
         style="stroke-width:1"/>
      <path
         d="m 6385.7694,1694.8681 h 19.8271 v 23.8677 h -19.8271 z"
         style="stroke-width:1"/>
      <path
         d="m 6446.9422,1694.8681 h 19.8271 v 23.8677 h -19.8271 z"
         style="stroke-width:1"/>
      <path
         d="m 6508.1151,1694.8681 h 19.8271 v 23.8677 h -19.8271 z"
         style="stroke-width:1"/>
    </g>
    <g
       aria-label="presentation.html"
       id="presentation-html"
       style="font-size:320px;line-height:1.25;font-family:sans-serif;-inkscape-font-specification:sans-serif;letter-spacing:0px;word-spacing:0px;fill:darkGreen;transform-origin: 3408px 2160px"
       inkscape:label="presentation.html">
       <animate attributeName="fill" from="transparent" to="darkGreen" fill="freeze" begin="0s" dur="4s" />
       <animateTransform attributeName="transform" type="rotate" from="0" to="360" dur="2s" fill="freeze" additive="sum" repeatCount="2"/>
       <animateTransform attributeName="transform" type="scale" from="12" to="1" dur="4s" fill="freeze" additive="sum"/>
      <path
         d="m 2258.7371,2429.0703 v 92.8125 h -28.9063 v -241.5625 h 28.9063 v 26.5625 q 9.0625,-15.625 22.8125,-23.125 13.9062,-7.6562 33.125,-7.6562 31.875,0 51.7187,25.3125 20,25.3125 20,66.5625 0,41.25 -20,66.5625 -19.8437,25.3125 -51.7187,25.3125 -19.2188,0 -33.125,-7.5 -13.75,-7.6563 -22.8125,-23.2813 z m 97.8125,-61.0937 q 0,-31.7188 -13.125,-49.6875 -12.9688,-18.125 -35.7813,-18.125 -22.8125,0 -35.9375,18.125 -12.9687,17.9687 -12.9687,49.6875 0,31.7187 12.9687,49.8437 13.125,17.9688 35.9375,17.9688 22.8125,0 35.7813,-17.9688 13.125,-18.125 13.125,-49.8437 z"/>
      <path
         d="m 2535.4558,2307.1953 q -4.8437,-2.8125 -10.625,-4.0625 -5.625,-1.4062 -12.5,-1.4062 -24.375,0 -37.5,15.9375 -12.9687,15.7812 -12.9687,45.4687 v 92.1875 h -28.9063 v -175 h 28.9063 v 27.1875 q 9.0625,-15.9375 23.5937,-23.5937 14.5313,-7.8125 35.3125,-7.8125 2.9688,0 6.5625,0.4687 3.5938,0.3125 7.9688,1.0938 z"/>
      <path
         d="m 2708.2683,2360.6328 v 14.0625 h -132.1875 q 1.875,29.6875 17.8125,45.3125 16.0938,15.4688 44.6875,15.4688 16.5625,0 32.0313,-4.0625 15.625,-4.0625 30.9375,-12.1875 v 27.1875 q -15.4688,6.5625 -31.7188,10 -16.25,3.4375 -32.9687,3.4375 -41.875,0 -66.4063,-24.375 -24.375,-24.375 -24.375,-65.9375 0,-42.9688 23.125,-68.125 23.2813,-25.3125 62.6563,-25.3125 35.3125,0 55.7812,22.8125 20.625,22.6562 20.625,61.7187 z m -28.75,-8.4375 q -0.3125,-23.5937 -13.2812,-37.6562 -12.8125,-14.0625 -34.0625,-14.0625 -24.0625,0 -38.5938,13.5937 -14.375,13.5938 -16.5625,38.2813 z"/>
      <path
         d="m 2867.0183,2285.4766 v 27.1875 q -12.1875,-6.25 -25.3125,-9.375 -13.125,-3.125 -27.1875,-3.125 -21.4062,0 -32.1875,6.5625 -10.625,6.5625 -10.625,19.6875 0,10 7.6563,15.7812 7.6562,5.625 30.7812,10.7813 l 9.8438,2.1875 q 30.625,6.5625 43.4375,18.5937 12.9687,11.875 12.9687,33.2813 0,24.375 -19.375,38.5937 -19.2187,14.2188 -52.9687,14.2188 -14.0625,0 -29.375,-2.8125 -15.1563,-2.6563 -32.0313,-8.125 v -29.6875 q 15.9375,8.2812 31.4063,12.5 15.4687,4.0625 30.625,4.0625 20.3125,0 31.25,-6.875 10.9375,-7.0313 10.9375,-19.6875 0,-11.7188 -7.9688,-17.9688 -7.8125,-6.25 -34.5312,-12.0312 l -10,-2.3438 q -26.7188,-5.625 -38.5938,-17.1875 -11.875,-11.7187 -11.875,-32.0312 0,-24.6875 17.5,-38.125 17.5,-13.4375 49.6875,-13.4375 15.9375,0 30,2.3437 14.0625,2.3438 25.9375,7.0313 z"/>
      <path
         d="m 3071.8621,2360.6328 v 14.0625 h -132.1875 q 1.875,29.6875 17.8125,45.3125 16.0937,15.4688 44.6875,15.4688 16.5625,0 32.0312,-4.0625 15.625,-4.0625 30.9375,-12.1875 v 27.1875 q -15.4687,6.5625 -31.7187,10 -16.25,3.4375 -32.9688,3.4375 -41.875,0 -66.4062,-24.375 -24.375,-24.375 -24.375,-65.9375 0,-42.9688 23.125,-68.125 23.2812,-25.3125 62.6562,-25.3125 35.3125,0 55.7813,22.8125 20.625,22.6562 20.625,61.7187 z m -28.75,-8.4375 q -0.3125,-23.5937 -13.2813,-37.6562 -12.8125,-14.0625 -34.0625,-14.0625 -24.0625,0 -38.5937,13.5937 -14.375,13.5938 -16.5625,38.2813 z"/>
      <path
         d="m 3264.5183,2349.6953 v 105.625 h -28.75 v -104.6875 q 0,-24.8437 -9.6875,-37.1875 -9.6875,-12.3437 -29.0625,-12.3437 -23.2812,0 -36.7187,14.8437 -13.4375,14.8438 -13.4375,40.4688 v 98.9062 h -28.9063 v -175 h 28.9063 v 27.1875 q 10.3125,-15.7812 24.2187,-23.5937 14.0625,-7.8125 32.3438,-7.8125 30.1562,0 45.625,18.75 15.4687,18.5937 15.4687,54.8437 z"/>
      <path
         d="m 3350.2996,2230.6328 v 49.6875 h 59.2187 v 22.3438 h -59.2187 v 95 q 0,21.4062 5.7812,27.5 5.9375,6.0937 23.9063,6.0937 h 29.5312 v 24.0625 h -29.5312 q -33.2813,0 -45.9375,-12.3437 -12.6563,-12.5 -12.6563,-45.3125 v -95 h -21.0937 v -22.3438 h 21.0937 v -49.6875 z"/>
      <path
         d="m 3526.8621,2367.3516 q -34.8438,0 -48.2813,7.9687 -13.4375,7.9688 -13.4375,27.1875 0,15.3125 10,24.375 10.1563,8.9063 27.5,8.9063 23.9063,0 38.2813,-16.875 14.5312,-17.0313 14.5312,-45.1563 v -6.4062 z m 57.3437,-11.875 v 99.8437 h -28.75 v -26.5625 q -9.8437,15.9375 -24.5312,23.5938 -14.6875,7.5 -35.9375,7.5 -26.875,0 -42.8125,-15 -15.7813,-15.1563 -15.7813,-40.4688 0,-29.5312 19.6875,-44.5312 19.8438,-15 59.0625,-15 h 40.3125 v -2.8125 q 0,-19.8438 -13.125,-30.625 -12.9687,-10.9375 -36.5625,-10.9375 -15,0 -29.2187,3.5937 -14.2188,3.5938 -27.3438,10.7813 v -26.5625 q 15.7813,-6.0938 30.625,-9.0625 14.8438,-3.125 28.9063,-3.125 37.9687,0 56.7187,19.6875 18.75,19.6875 18.75,59.6875 z"/>
      <path
         d="m 3671.8621,2230.6328 v 49.6875 h 59.2187 v 22.3438 h -59.2187 v 95 q 0,21.4062 5.7812,27.5 5.9375,6.0937 23.9063,6.0937 h 29.5312 v 24.0625 h -29.5312 q -33.2813,0 -45.9375,-12.3437 -12.6563,-12.5 -12.6563,-45.3125 v -95 h -21.0937 v -22.3438 h 21.0937 v -49.6875 z"/>
      <path
         d="m 3768.8933,2280.3203 h 28.75 v 175 h -28.75 z m 0,-68.125 h 28.75 v 36.4063 h -28.75 z"/>
      <path
         d="m 3925.6121,2300.4766 q -23.125,0 -36.5625,18.125 -13.4375,17.9687 -13.4375,49.375 0,31.4062 13.2812,49.5312 13.4375,17.9688 36.7188,17.9688 22.9687,0 36.4062,-18.125 13.4375,-18.125 13.4375,-49.375 0,-31.0938 -13.4375,-49.2188 -13.4375,-18.2812 -36.4062,-18.2812 z m 0,-24.375 q 37.5,0 58.9062,24.375 21.4063,24.375 21.4063,67.5 0,42.9687 -21.4063,67.5 -21.4062,24.375 -58.9062,24.375 -37.6563,0 -59.0625,-24.375 -21.25,-24.5313 -21.25,-67.5 0,-43.125 21.25,-67.5 21.4062,-24.375 59.0625,-24.375 z"/>
      <path
         d="m 4199.0496,2349.6953 v 105.625 h -28.75 v -104.6875 q 0,-24.8437 -9.6875,-37.1875 -9.6875,-12.3437 -29.0625,-12.3437 -23.2813,0 -36.7188,14.8437 -13.4375,14.8438 -13.4375,40.4688 v 98.9062 h -28.9062 v -175 h 28.9062 v 27.1875 q 10.3125,-15.7812 24.2188,-23.5937 14.0625,-7.8125 32.3437,-7.8125 30.1563,0 45.625,18.75 15.4688,18.5937 15.4688,54.8437 z"/>
      <path
         d="m 4260.4558,2415.6328 h 32.9688 v 39.6875 h -32.9688 z"/>
      <path
         d="m 4503.5808,2349.6953 v 105.625 h -28.75 v -104.6875 q 0,-24.8437 -9.6875,-37.1875 -9.6875,-12.3437 -29.0625,-12.3437 -23.2812,0 -36.7187,14.8437 -13.4375,14.8438 -13.4375,40.4688 v 98.9062 h -28.9063 v -243.125 h 28.9063 v 95.3125 q 10.3125,-15.7812 24.2187,-23.5937 14.0625,-7.8125 32.3438,-7.8125 30.1562,0 45.625,18.75 15.4687,18.5937 15.4687,54.8437 z"/>
      <path
         d="m 4589.3621,2230.6328 v 49.6875 h 59.2187 v 22.3438 h -59.2187 v 95 q 0,21.4062 5.7812,27.5 5.9375,6.0937 23.9063,6.0937 h 29.5312 v 24.0625 h -29.5312 q -33.2813,0 -45.9375,-12.3437 -12.6563,-12.5 -12.6563,-45.3125 v -95 h -21.0937 v -22.3438 h 21.0937 v -49.6875 z"/>
      <path
         d="m 4822.6433,2313.9141 q 10.7813,-19.375 25.7813,-28.5938 15,-9.2187 35.3125,-9.2187 27.3437,0 42.1875,19.2187 14.8437,19.0625 14.8437,54.375 v 105.625 h -28.9062 v -104.6875 q 0,-25.1562 -8.9063,-37.3437 -8.9062,-12.1875 -27.1875,-12.1875 -22.3437,0 -35.3125,14.8437 -12.9687,14.8438 -12.9687,40.4688 v 98.9062 h -28.9063 v -104.6875 q 0,-25.3125 -8.9062,-37.3437 -8.9063,-12.1875 -27.5,-12.1875 -22.0313,0 -35,15 -12.9688,14.8437 -12.9688,40.3125 v 98.9062 h -28.9062 v -175 h 28.9062 v 27.1875 q 9.8438,-16.0937 23.5938,-23.75 13.75,-7.6562 32.6562,-7.6562 19.0625,0 32.3438,9.6875 13.4375,9.6875 19.8437,28.125 z"/>
      <path
         d="m 4998.1121,2212.1953 h 28.75 v 243.125 h -28.75 z"/>
    </g>
  </g>
</svg>
