<?xml version="1.0" encoding="UTF-8" standalone="no"?>
<svg
   xmlns:dc="http://purl.org/dc/elements/1.1/"
   xmlns:cc="http://creativecommons.org/ns#"
   xmlns:rdf="http://www.w3.org/1999/02/22-rdf-syntax-ns#"
   xmlns:svg="http://www.w3.org/2000/svg"
   xmlns="http://www.w3.org/2000/svg"
   xmlns:sodipodi="http://sodipodi.sourceforge.net/DTD/sodipodi-0.dtd"
   xmlns:inkscape="http://www.inkscape.org/namespaces/inkscape"
   width="1920mm"
   height="1080mm"
   viewBox="0 0 7256.6929 4081.8896"
   version="1.1">
  <g
     style="font-size:192px;line-height:1.25;font-family:sans-serif;-inkscape-font-specification:sans-serif;letter-spacing:0px;word-spacing:0px;fill:transparent"
     inkscape:label="Prompt">
    <animate
       attributeName="fill"
       from="transparent"
       to="black"
       fill="freeze"
       begin="0.5s"
       dur="2s" />
    <path
       d="m 4794.8447,3779.4229 h 25.5 l 62.0625,117.0937 v -117.0937 h 18.375 v 139.9687 h -25.5 l -62.0625,-117.0937 v 117.0937 h -18.375 z"
       id="path889" />
    <path
       d="m 5027.5322,3862.5791 v 8.4375 h -79.3125 q 1.125,17.8125 10.6875,27.1875 9.6563,9.2813 26.8125,9.2813 9.9375,0 19.2188,-2.4375 9.375,-2.4375 18.5625,-7.3125 v 16.3125 q -9.2813,3.9375 -19.0313,6 -9.75,2.0625 -19.7812,2.0625 -25.125,0 -39.8438,-14.625 -14.625,-14.625 -14.625,-39.5625 0,-25.7813 13.875,-40.875 13.9688,-15.1875 37.5938,-15.1875 21.1875,0 33.4687,13.6875 12.375,13.5937 12.375,37.0312 z m -17.25,-5.0625 q -0.1875,-14.1562 -7.9687,-22.5937 -7.6875,-8.4375 -20.4375,-8.4375 -14.4375,0 -23.1563,8.1562 -8.625,8.1563 -9.9375,22.9688 z"
       id="path891" />
    <path
       d="m 5139.751,3814.3916 -37.9688,51.0938 39.9375,53.9062 h -20.3437 l -30.5625,-41.25 -30.5625,41.25 h -20.3438 l 40.7813,-54.9375 -37.3125,-50.0625 h 20.3437 l 27.8438,37.4063 27.8437,-37.4063 z"
       id="path893" />
    <path
       d="m 5183.1572,3784.5791 v 29.8125 h 35.5313 v 13.4063 h -35.5313 v 57 q 0,12.8437 3.4688,16.5 3.5625,3.6562 14.3437,3.6562 h 17.7188 v 14.4375 h -17.7188 q -19.9687,0 -27.5625,-7.4062 -7.5937,-7.5 -7.5937,-27.1875 v -57 h -12.6563 v -13.4063 h 12.6563 v -29.8125 z"
       id="path895" />
    <path
       d="m 5245.7822,3895.5791 h 19.7813 v 23.8125 h -19.7813 z m 0,-75.4687 h 19.7813 v 23.8125 h -19.7813 z"
       id="path897" />
    <path
       d="m 5383.7822,3903.6416 v 55.6875 h -17.3437 v -144.9375 h 17.3437 v 15.9375 q 5.4375,-9.375 13.6875,-13.875 8.3438,-4.5937 19.875,-4.5937 19.125,0 31.0313,15.1875 12,15.1875 12,39.9375 0,24.75 -12,39.9375 -11.9063,15.1875 -31.0313,15.1875 -11.5312,0 -19.875,-4.5 -8.25,-4.5938 -13.6875,-13.9688 z m 58.6875,-36.6562 q 0,-19.0313 -7.875,-29.8125 -7.7812,-10.875 -21.4687,-10.875 -13.6875,0 -21.5625,10.875 -7.7813,10.7812 -7.7813,29.8125 0,19.0312 7.7813,29.9062 7.875,10.7813 21.5625,10.7813 13.6875,0 21.4687,-10.7813 7.875,-10.875 7.875,-29.9062 z"
       id="path899" />
    <path
       d="m 5549.8135,3830.5166 q -2.9063,-1.6875 -6.375,-2.4375 -3.375,-0.8437 -7.5,-0.8437 -14.625,0 -22.5,9.5625 -7.7813,9.4687 -7.7813,27.2812 v 55.3125 h -17.3437 v -105 h 17.3437 v 16.3125 q 5.4375,-9.5625 14.1563,-14.1562 8.7187,-4.6875 21.1875,-4.6875 1.7812,0 3.9375,0.2812 2.1562,0.1875 4.7812,0.6563 z"
       id="path901" />
    <path
       d="m 5653.501,3862.5791 v 8.4375 h -79.3125 q 1.125,17.8125 10.6875,27.1875 9.6562,9.2813 26.8125,9.2813 9.9375,0 19.2187,-2.4375 9.375,-2.4375 18.5625,-7.3125 v 16.3125 q -9.2812,3.9375 -19.0312,6 -9.75,2.0625 -19.7813,2.0625 -25.125,0 -39.8437,-14.625 -14.625,-14.625 -14.625,-39.5625 0,-25.7813 13.875,-40.875 13.9687,-15.1875 37.5937,-15.1875 21.1875,0 33.4688,13.6875 12.375,13.5937 12.375,37.0312 z m -17.25,-5.0625 q -0.1875,-14.1562 -7.9688,-22.5937 -7.6875,-8.4375 -20.4375,-8.4375 -14.4375,0 -23.1562,8.1562 -8.625,8.1563 -9.9375,22.9688 z"
       id="path903" />
    <path
       d="m 5748.751,3817.4854 v 16.3125 q -7.3125,-3.75 -15.1875,-5.625 -7.875,-1.875 -16.3125,-1.875 -12.8438,0 -19.3125,3.9375 -6.375,3.9375 -6.375,11.8125 0,6 4.5937,9.4687 4.5938,3.375 18.4688,6.4688 l 5.9062,1.3125 q 18.375,3.9375 26.0625,11.1562 7.7813,7.125 7.7813,19.9688 0,14.625 -11.625,23.1562 -11.5313,8.5313 -31.7813,8.5313 -8.4375,0 -17.625,-1.6875 -9.0937,-1.5938 -19.2187,-4.875 v -17.8125 q 9.5625,4.9687 18.8437,7.5 9.2813,2.4375 18.375,2.4375 12.1875,0 18.75,-4.125 6.5625,-4.2188 6.5625,-11.8125 0,-7.0313 -4.7812,-10.7813 -4.6875,-3.75 -20.7188,-7.2187 l -6,-1.4063 q -16.0312,-3.375 -23.1562,-10.3125 -7.125,-7.0312 -7.125,-19.2187 0,-14.8125 10.5,-22.875 10.5,-8.0625 29.8125,-8.0625 9.5625,0 18,1.4062 8.4375,1.4063 15.5625,4.2188 z"
       id="path905" />
    <path
       d="m 5848.7822,3817.4854 v 16.3125 q -7.3125,-3.75 -15.1875,-5.625 -7.875,-1.875 -16.3125,-1.875 -12.8437,0 -19.3125,3.9375 -6.375,3.9375 -6.375,11.8125 0,6 4.5938,9.4687 4.5937,3.375 18.4687,6.4688 l 5.9063,1.3125 q 18.375,3.9375 26.0625,11.1562 7.7812,7.125 7.7812,19.9688 0,14.625 -11.625,23.1562 -11.5312,8.5313 -31.7812,8.5313 -8.4375,0 -17.625,-1.6875 -9.0938,-1.5938 -19.2188,-4.875 v -17.8125 q 9.5625,4.9687 18.8438,7.5 9.2812,2.4375 18.375,2.4375 12.1875,0 18.75,-4.125 6.5625,-4.2188 6.5625,-11.8125 0,-7.0313 -4.7813,-10.7813 -4.6875,-3.75 -20.7187,-7.2187 l -6,-1.4063 q -16.0313,-3.375 -23.1563,-10.3125 -7.125,-7.0312 -7.125,-19.2187 0,-14.8125 10.5,-22.875 10.5,-8.0625 29.8125,-8.0625 9.5625,0 18,1.4062 8.4375,1.4063 15.5625,4.2188 z"
       id="path907" />
    <path
       d="m 6009.8447,3817.4854 v 16.3125 q -7.3125,-3.75 -15.1875,-5.625 -7.875,-1.875 -16.3125,-1.875 -12.8437,0 -19.3125,3.9375 -6.375,3.9375 -6.375,11.8125 0,6 4.5938,9.4687 4.5937,3.375 18.4687,6.4688 l 5.9063,1.3125 q 18.375,3.9375 26.0625,11.1562 7.7812,7.125 7.7812,19.9688 0,14.625 -11.625,23.1562 -11.5312,8.5313 -31.7812,8.5313 -8.4375,0 -17.625,-1.6875 -9.0938,-1.5938 -19.2188,-4.875 v -17.8125 q 9.5625,4.9687 18.8438,7.5 9.2812,2.4375 18.375,2.4375 12.1875,0 18.75,-4.125 6.5625,-4.2188 6.5625,-11.8125 0,-7.0313 -4.7813,-10.7813 -4.6875,-3.75 -20.7187,-7.2187 l -6,-1.4063 q -16.0313,-3.375 -23.1563,-10.3125 -7.125,-7.0312 -7.125,-19.2187 0,-14.8125 10.5,-22.875 10.5,-8.0625 29.8125,-8.0625 9.5625,0 18,1.4062 8.4375,1.4063 15.5625,4.2188 z"
       id="path909" />
    <path
       d="m 6059.626,3903.6416 v 55.6875 h -17.3438 v -144.9375 h 17.3438 v 15.9375 q 5.4375,-9.375 13.6875,-13.875 8.3437,-4.5937 19.875,-4.5937 19.125,0 31.0312,15.1875 12,15.1875 12,39.9375 0,24.75 -12,39.9375 -11.9062,15.1875 -31.0312,15.1875 -11.5313,0 -19.875,-4.5 -8.25,-4.5938 -13.6875,-13.9688 z m 58.6875,-36.6562 q 0,-19.0313 -7.875,-29.8125 -7.7813,-10.875 -21.4688,-10.875 -13.6875,0 -21.5625,10.875 -7.7812,10.7812 -7.7812,29.8125 0,19.0312 7.7812,29.9062 7.875,10.7813 21.5625,10.7813 13.6875,0 21.4688,-10.7813 7.875,-10.875 7.875,-29.9062 z"
       id="path911" />
    <path
       d="m 6212.5322,3866.6104 q -20.9062,0 -28.9687,4.7812 -8.0625,4.7813 -8.0625,16.3125 0,9.1875 6,14.625 6.0937,5.3438 16.5,5.3438 14.3437,0 22.9687,-10.125 8.7188,-10.2188 8.7188,-27.0938 v -3.8437 z m 34.4063,-7.125 v 59.9062 h -17.25 v -15.9375 q -5.9063,9.5625 -14.7188,14.1563 -8.8125,4.5 -21.5625,4.5 -16.125,0 -25.6875,-9 -9.4687,-9.0938 -9.4687,-24.2813 0,-17.7187 11.8125,-26.7187 11.9062,-9 35.4375,-9 h 24.1875 v -1.6875 q 0,-11.9063 -7.875,-18.375 -7.7813,-6.5625 -21.9375,-6.5625 -9,0 -17.5313,2.1562 -8.5312,2.1563 -16.4062,6.4688 v -15.9375 q 9.4687,-3.6563 18.375,-5.4375 8.9062,-1.875 17.3437,-1.875 22.7813,0 34.0313,11.8125 11.25,11.8125 11.25,35.8125 z"
       id="path913" />
    <path
       d="m 6358.0322,3818.4229 v 16.125 q -7.3125,-4.0313 -14.7187,-6 -7.3125,-2.0625 -14.8125,-2.0625 -16.7813,0 -26.0625,10.6875 -9.2813,10.5937 -9.2813,29.8125 0,19.2187 9.2813,29.9062 9.2812,10.5938 26.0625,10.5938 7.5,0 14.8125,-1.9688 7.4062,-2.0625 14.7187,-6.0937 v 15.9375 q -7.2187,3.375 -15,5.0625 -7.6875,1.6875 -16.4062,1.6875 -23.7188,0 -37.6875,-14.9063 -13.9688,-14.9062 -13.9688,-40.2187 0,-25.6875 14.0625,-40.4063 14.1563,-14.7187 38.7188,-14.7187 7.9687,0 15.5625,1.6875 7.5937,1.5937 14.7187,4.875 z"
       id="path915" />
    <path
       d="m 6477.8447,3862.5791 v 8.4375 h -79.3125 q 1.125,17.8125 10.6875,27.1875 9.6563,9.2813 26.8125,9.2813 9.9375,0 19.2188,-2.4375 9.375,-2.4375 18.5625,-7.3125 v 16.3125 q -9.2813,3.9375 -19.0313,6 -9.75,2.0625 -19.7812,2.0625 -25.125,0 -39.8438,-14.625 -14.625,-14.625 -14.625,-39.5625 0,-25.7813 13.875,-40.875 13.9688,-15.1875 37.5938,-15.1875 21.1875,0 33.4687,13.6875 12.375,13.5937 12.375,37.0312 z m -17.25,-5.0625 q -0.1875,-14.1562 -7.9687,-22.5937 -7.6875,-8.4375 -20.4375,-8.4375 -14.4375,0 -23.1563,8.1562 -8.625,8.1563 -9.9375,22.9688 z"
       id="path917" />
    <path
       d="m 6642.5635,3866.9854 q 0,-19.0313 -7.875,-29.8125 -7.7813,-10.875 -21.4688,-10.875 -13.6875,0 -21.5625,10.875 -7.7812,10.7812 -7.7812,29.8125 0,19.0312 7.7812,29.9062 7.875,10.7813 21.5625,10.7813 13.6875,0 21.4688,-10.7813 7.875,-10.875 7.875,-29.9062 z m -58.6875,-36.6563 q 5.4375,-9.375 13.6875,-13.875 8.3437,-4.5937 19.875,-4.5937 19.125,0 31.0312,15.1875 12,15.1875 12,39.9375 0,24.75 -12,39.9375 -11.9062,15.1875 -31.0312,15.1875 -11.5313,0 -19.875,-4.5 -8.25,-4.5938 -13.6875,-13.9688 v 15.75 h -17.3438 v -145.875 h 17.3438 z"
       id="path919" />
    <path
       d="m 6736.7822,3866.6104 q -20.9062,0 -28.9687,4.7812 -8.0625,4.7813 -8.0625,16.3125 0,9.1875 6,14.625 6.0937,5.3438 16.5,5.3438 14.3437,0 22.9687,-10.125 8.7188,-10.2188 8.7188,-27.0938 v -3.8437 z m 34.4063,-7.125 v 59.9062 h -17.25 v -15.9375 q -5.9063,9.5625 -14.7188,14.1563 -8.8125,4.5 -21.5625,4.5 -16.125,0 -25.6875,-9 -9.4687,-9.0938 -9.4687,-24.2813 0,-17.7187 11.8125,-26.7187 11.9062,-9 35.4375,-9 h 24.1875 v -1.6875 q 0,-11.9063 -7.875,-18.375 -7.7813,-6.5625 -21.9375,-6.5625 -9,0 -17.5313,2.1562 -8.5312,2.1563 -16.4062,6.4688 v -15.9375 q 9.4687,-3.6563 18.375,-5.4375 8.9062,-1.875 17.3437,-1.875 22.7813,0 34.0313,11.8125 11.25,11.8125 11.25,35.8125 z"
       id="path921" />
    <path
       d="m 6867.5635,3830.5166 q -2.9063,-1.6875 -6.375,-2.4375 -3.375,-0.8437 -7.5,-0.8437 -14.625,0 -22.5,9.5625 -7.7813,9.4687 -7.7813,27.2812 v 55.3125 h -17.3437 v -105 h 17.3437 v 16.3125 q 5.4375,-9.5625 14.1563,-14.1562 8.7187,-4.6875 21.1875,-4.6875 1.7812,0 3.9375,0.2812 2.1562,0.1875 4.7812,0.6563 z"
       id="path923" />
    <path
       d="m 6870.4697,3895.5791 h 19.7813 v 23.8125 h -19.7813 z"
       id="path925" />
    <path
       d="m 6931.501,3895.5791 h 19.7812 v 23.8125 h -19.7812 z"
       id="path927" />
    <path
       d="m 6992.5322,3895.5791 h 19.7813 v 23.8125 h -19.7813 z"
       id="path929" />
  </g>
  <g
     aria-label="Now it's time to look at some photographs"
     id="text857"
     style="font-size:266.667px;line-height:1.25;font-family:sans-serif;-inkscape-font-specification:sans-serif;letter-spacing:0px;word-spacing:0px;fill:Indigo"
     inkscape:label="Top-text">
    <path
       d="m 811.67984,355.5123 h 35.41671 l 86.19802,162.6304 V 355.5123 h 25.52087 v 194.40127 h -35.41671 l -86.19802,-162.6304 v 162.6304 h -25.52087 z"
       id="path906" />
    <path
       d="m 1066.6281,420.87696 q -19.2709,0 -30.4688,15.10418 -11.1979,14.97398 -11.1979,41.14589 0,26.1719 11.0677,41.27609 11.1979,14.97398 30.599,14.97398 19.1406,0 30.3386,-15.10419 11.1979,-15.10418 11.1979,-41.14588 0,-25.91149 -11.1979,-41.01568 -11.198,-15.23439 -30.3386,-15.23439 z m 0,-20.31253 q 31.25,0 49.0886,20.31253 17.8385,20.31252 17.8385,56.25007 0,35.80733 -17.8385,56.25007 -17.8386,20.31252 -49.0886,20.31252 -31.3803,0 -49.2188,-20.31252 -17.70839,-20.44274 -17.70839,-56.25007 0,-35.93755 17.70839,-56.25007 17.8385,-20.31253 49.2188,-20.31253 z"
       id="path908" />
    <path
       d="m 1159.3365,404.08006 h 23.9584 l 29.948,113.80223 29.8177,-113.80223 h 28.2552 l 29.948,113.80223 29.8177,-113.80223 h 23.9584 l -38.1511,145.83351 h -28.2552 l -31.3803,-119.53139 -31.5104,119.53139 h -28.2553 z"
       id="path910" />
    <path
       d="m 1476.1338,404.08006 h 23.9583 v 145.83351 h -23.9583 z m 0,-56.7709 h 23.9583 v 30.33858 h -23.9583 z"
       id="path912" />
    <path
       d="m 1573.9203,362.67376 v 41.4063 h 49.3491 v 18.61982 h -49.3491 v 79.16676 q 0,17.83856 4.8178,22.9167 4.9479,5.07813 19.9219,5.07813 h 24.6094 v 20.0521 H 1598.66 q -27.7344,0 -38.2813,-10.28647 -10.5469,-10.41668 -10.5469,-37.76046 v -79.16676 h -17.5782 v -18.61982 h 17.5782 v -41.4063 z"
       id="path914" />
    <path
       d="m 1677.4361,355.5123 v 72.26571 h -22.1354 V 355.5123 Z"
       id="path916" />
    <path
       d="m 1821.0561,408.37694 v 22.65628 q -10.1563,-5.20834 -21.0938,-7.81251 -10.9375,-2.60417 -22.6563,-2.60417 -17.8385,0 -26.8229,5.46876 -8.8542,5.46875 -8.8542,16.40627 0,8.33334 6.3802,13.15106 6.3802,4.6875 25.6511,8.98438 l 8.2031,1.82292 q 25.5209,5.46876 36.198,15.49481 10.8073,9.89585 10.8073,27.73441 0,20.31252 -16.1459,32.1615 -16.0156,11.84897 -44.1406,11.84897 -11.7188,0 -24.4792,-2.34375 -12.6303,-2.21355 -26.6928,-6.77084 v -24.73962 q 13.2813,6.90105 26.1719,10.41668 12.8907,3.38542 25.5209,3.38542 16.9271,0 26.0417,-5.72917 9.1146,-5.85938 9.1146,-16.40627 0,-9.76564 -6.6407,-14.97398 -6.5104,-5.20834 -28.776,-10.02605 l -8.3334,-1.95313 q -22.2656,-4.6875 -32.1615,-14.32293 -9.8958,-9.76564 -9.8958,-26.69274 0,-20.57295 14.5833,-31.77088 14.5834,-11.19793 41.4063,-11.19793 13.2813,0 25.0001,1.95313 11.7187,1.95313 21.6146,5.85938 z"
       id="path918" />
    <path
       d="m 1975.4833,362.67376 v 41.4063 h 49.3491 v 18.61982 h -49.3491 v 79.16676 q 0,17.83856 4.8178,22.9167 4.9479,5.07813 19.9218,5.07813 h 24.6095 v 20.0521 h -24.6095 q -27.7344,0 -38.2812,-10.28647 -10.5469,-10.41668 -10.5469,-37.76046 v -79.16676 h -17.5782 v -18.61982 h 17.5782 v -41.4063 z"
       id="path920" />
    <path
       d="m 2056.3429,404.08006 h 23.9583 v 145.83351 h -23.9583 z m 0,-56.7709 h 23.9583 v 30.33858 h -23.9583 z"
       id="path922" />
    <path
       d="m 2243.9733,432.07489 q 8.9844,-16.14585 21.4844,-23.82816 12.5,-7.6823 29.4271,-7.6823 22.7865,0 35.1563,16.01565 12.3698,15.88543 12.3698,45.31255 v 88.02094 h -24.0885 v -87.23969 q 0,-20.96356 -7.4219,-31.11983 -7.4219,-10.15626 -22.6563,-10.15626 -18.6198,0 -29.4271,12.36981 -10.8073,12.36981 -10.8073,33.724 v 82.42197 h -24.0886 v -87.23969 q 0,-21.09377 -7.4219,-31.11983 -7.4219,-10.15626 -22.9167,-10.15626 -18.3594,0 -29.1667,12.50002 -10.8073,12.3698 -10.8073,33.59379 v 82.42197 H 2129.52 V 404.08006 h 24.0886 v 22.65628 q 8.2032,-13.41147 19.6615,-19.79169 11.4583,-6.38022 27.2136,-6.38022 15.8854,0 26.9531,8.07293 11.198,8.07293 16.5365,23.43753 z"
       id="path924" />
    <path
       d="m 2514.9371,471.00723 v 11.71876 h -110.1564 q 1.5625,24.73962 14.8438,37.76046 13.4115,12.89065 37.2396,12.89065 13.8021,0 26.6928,-3.38543 13.0208,-3.38542 25.7812,-10.15626 v 22.65628 q -12.8906,5.46876 -26.4323,8.33334 -13.5417,2.86459 -27.474,2.86459 -34.8958,0 -55.3386,-20.31252 -20.3125,-20.31253 -20.3125,-54.94799 0,-35.80733 19.2709,-56.7709 19.401,-21.09378 52.2136,-21.09378 29.4271,0 46.4844,19.01044 17.1875,18.88023 17.1875,51.43236 z m -23.9583,-7.03126 q -0.2605,-19.66148 -11.0678,-31.38025 -10.6771,-11.71876 -28.3854,-11.71876 -20.0521,0 -32.1615,11.32814 -11.9792,11.32814 -13.8021,31.90108 z"
       id="path926" />
    <path
       d="m 2662.7238,362.67376 v 41.4063 h 49.349 v 18.61982 h -49.349 v 79.16676 q 0,17.83856 4.8177,22.9167 4.948,5.07813 19.9219,5.07813 h 24.6094 v 20.0521 h -24.6094 q -27.7344,0 -38.2813,-10.28647 -10.5469,-10.41668 -10.5469,-37.76046 v -79.16676 h -17.5781 v -18.61982 h 17.5781 v -41.4063 z"
       id="path928" />
    <path
       d="m 2800.0937,420.87696 q -19.2708,0 -30.4688,15.10418 -11.1979,14.97398 -11.1979,41.14589 0,26.1719 11.0677,41.27609 11.198,14.97398 30.599,14.97398 19.1407,0 30.3386,-15.10419 11.1979,-15.10418 11.1979,-41.14588 0,-25.91149 -11.1979,-41.01568 -11.1979,-15.23439 -30.3386,-15.23439 z m 0,-20.31253 q 31.2501,0 49.0886,20.31253 17.8386,20.31252 17.8386,56.25007 0,35.80733 -17.8386,56.25007 -17.8385,20.31252 -49.0886,20.31252 -31.3802,0 -49.2188,-20.31252 -17.7083,-20.44274 -17.7083,-56.25007 0,-35.93755 17.7083,-56.25007 17.8386,-20.31253 49.2188,-20.31253 z"
       id="path930" />
    <path
       d="m 2991.5002,347.30916 h 23.9584 v 202.60441 h -23.9584 z"
       id="path932" />
    <path
       d="m 3122.0993,420.87696 q -19.2708,0 -30.4687,15.10418 -11.198,14.97398 -11.198,41.14589 0,26.1719 11.0677,41.27609 11.198,14.97398 30.599,14.97398 19.1407,0 30.3386,-15.10419 11.198,-15.10418 11.198,-41.14588 0,-25.91149 -11.198,-41.01568 -11.1979,-15.23439 -30.3386,-15.23439 z m 0,-20.31253 q 31.2501,0 49.0886,20.31253 17.8386,20.31252 17.8386,56.25007 0,35.80733 -17.8386,56.25007 -17.8385,20.31252 -49.0886,20.31252 -31.3802,0 -49.2188,-20.31252 -17.7083,-20.44274 -17.7083,-56.25007 0,-35.93755 17.7083,-56.25007 17.8386,-20.31253 49.2188,-20.31253 z"
       id="path934" />
    <path
       d="m 3285.2507,420.87696 q -19.2708,0 -30.4688,15.10418 -11.1979,14.97398 -11.1979,41.14589 0,26.1719 11.0677,41.27609 11.1979,14.97398 30.599,14.97398 19.1407,0 30.3386,-15.10419 11.1979,-15.10418 11.1979,-41.14588 0,-25.91149 -11.1979,-41.01568 -11.1979,-15.23439 -30.3386,-15.23439 z m 0,-20.31253 q 31.25,0 49.0886,20.31253 17.8386,20.31252 17.8386,56.25007 0,35.80733 -17.8386,56.25007 -17.8386,20.31252 -49.0886,20.31252 -31.3802,0 -49.2188,-20.31252 -17.7084,-20.44274 -17.7084,-56.25007 0,-35.93755 17.7084,-56.25007 17.8386,-20.31253 49.2188,-20.31253 z"
       id="path936" />
    <path
       d="m 3390.9799,347.30916 h 24.0886 v 119.6616 l 71.4844,-62.8907 h 30.599 l -77.3438,68.22925 80.599,77.60426 h -31.25 l -74.0886,-71.22404 v 71.22404 h -24.0886 z"
       id="path938" />
    <path
       d="m 3697.3606,476.60619 q -29.0365,0 -40.2344,6.64064 -11.198,6.64063 -11.198,22.65627 0,12.76044 8.3334,20.31253 8.4635,7.42188 22.9167,7.42188 19.9219,0 31.901,-14.06251 12.1094,-14.19273 12.1094,-37.63026 v -5.33855 z m 47.7865,-9.89584 v 83.20322 h -23.9584 v -22.13544 q -8.2031,13.28127 -20.4427,19.66148 -12.2396,6.25001 -29.9479,6.25001 -22.3959,0 -35.6772,-12.50001 -13.151,-12.63023 -13.151,-33.724 0,-24.60941 16.4062,-37.10942 16.5365,-12.50002 49.2188,-12.50002 h 33.5938 v -2.34375 q 0,-16.53648 -10.9375,-25.52087 -10.8073,-9.11459 -30.4688,-9.11459 -12.5,0 -24.3489,2.99479 -11.849,2.9948 -22.7865,8.98439 V 410.7207 q 13.151,-5.07814 25.5208,-7.5521 12.3698,-2.60417 24.0886,-2.60417 31.6407,0 47.2657,16.40627 15.625,16.40627 15.625,49.73965 z"
       id="path940" />
    <path
       d="m 3818.194,362.67376 v 41.4063 h 49.349 v 18.61982 h -49.349 v 79.16676 q 0,17.83856 4.8177,22.9167 4.948,5.07813 19.9219,5.07813 h 24.6094 v 20.0521 h -24.6094 q -27.7344,0 -38.2813,-10.28647 -10.5468,-10.41668 -10.5468,-37.76046 v -79.16676 h -17.5782 v -18.61982 h 17.5782 v -41.4063 z"
       id="path942" />
    <path
       d="m 4076.7879,408.37694 v 22.65628 q -10.1562,-5.20834 -21.0937,-7.81251 -10.9375,-2.60417 -22.6563,-2.60417 -17.8386,0 -26.823,5.46876 -8.8541,5.46875 -8.8541,16.40627 0,8.33334 6.3802,13.15106 6.3802,4.6875 25.6511,8.98438 l 8.2031,1.82292 q 25.5209,5.46876 36.1979,15.49481 10.8074,9.89585 10.8074,27.73441 0,20.31252 -16.1459,32.1615 -16.0156,11.84897 -44.1407,11.84897 -11.7187,0 -24.4792,-2.34375 -12.6302,-2.21355 -26.6927,-6.77084 v -24.73962 q 13.2813,6.90105 26.1719,10.41668 12.8906,3.38542 25.5209,3.38542 16.9271,0 26.0417,-5.72917 9.1145,-5.85938 9.1145,-16.40627 0,-9.76564 -6.6406,-14.97398 -6.5104,-5.20834 -28.7761,-10.02605 l -8.3333,-1.95313 q -22.2657,-4.6875 -32.1615,-14.32293 -9.8958,-9.76564 -9.8958,-26.69274 0,-20.57295 14.5833,-31.77088 14.5834,-11.19793 41.4063,-11.19793 13.2813,0 25,1.95313 11.7188,1.95313 21.6146,5.85938 z"
       id="path944" />
    <path
       d="m 4179.2622,420.87696 q -19.2709,0 -30.4688,15.10418 -11.1979,14.97398 -11.1979,41.14589 0,26.1719 11.0677,41.27609 11.1979,14.97398 30.599,14.97398 19.1406,0 30.3386,-15.10419 11.1979,-15.10418 11.1979,-41.14588 0,-25.91149 -11.1979,-41.01568 -11.198,-15.23439 -30.3386,-15.23439 z m 0,-20.31253 q 31.25,0 49.0886,20.31253 17.8385,20.31252 17.8385,56.25007 0,35.80733 -17.8385,56.25007 -17.8386,20.31252 -49.0886,20.31252 -31.3803,0 -49.2188,-20.31252 -17.7084,-20.44274 -17.7084,-56.25007 0,-35.93755 17.7084,-56.25007 17.8385,-20.31253 49.2188,-20.31253 z"
       id="path946" />
    <path
       d="m 4399.4446,432.07489 q 8.9844,-16.14585 21.4844,-23.82816 12.5,-7.6823 29.4271,-7.6823 22.7865,0 35.1563,16.01565 12.3698,15.88543 12.3698,45.31255 v 88.02094 h -24.0885 v -87.23969 q 0,-20.96356 -7.4219,-31.11983 -7.4219,-10.15626 -22.6563,-10.15626 -18.6198,0 -29.4271,12.36981 -10.8073,12.36981 -10.8073,33.724 v 82.42197 h -24.0886 v -87.23969 q 0,-21.09377 -7.4219,-31.11983 -7.4218,-10.15626 -22.9167,-10.15626 -18.3594,0 -29.1667,12.50002 -10.8073,12.3698 -10.8073,33.59379 v 82.42197 h -24.0885 V 404.08006 h 24.0885 v 22.65628 q 8.2032,-13.41147 19.6615,-19.79169 11.4584,-6.38022 27.2136,-6.38022 15.8854,0 26.9531,8.07293 11.198,8.07293 16.5365,23.43753 z"
       id="path948" />
    <path
       d="m 4670.4084,471.00723 v 11.71876 H 4560.252 q 1.5625,24.73962 14.8438,37.76046 13.4115,12.89065 37.2396,12.89065 13.8021,0 26.6928,-3.38543 13.0208,-3.38542 25.7813,-10.15626 v 22.65628 q -12.8907,5.46876 -26.4324,8.33334 -13.5416,2.86459 -27.474,2.86459 -34.8958,0 -55.3386,-20.31252 -20.3125,-20.31253 -20.3125,-54.94799 0,-35.80733 19.2709,-56.7709 19.401,-21.09378 52.2136,-21.09378 29.4271,0 46.4844,19.01044 17.1875,18.88023 17.1875,51.43236 z m -23.9583,-7.03126 q -0.2605,-19.66148 -11.0678,-31.38025 -10.6771,-11.71876 -28.3854,-11.71876 -20.0521,0 -32.1615,11.32814 -11.9792,11.32814 -13.8021,31.90108 z"
       id="path950" />
    <path
       d="m 4817.6744,528.03855 v 77.34384 h -24.0886 V 404.08006 h 24.0886 v 22.13545 q 7.5521,-13.02085 19.0105,-19.27086 11.5885,-6.38022 27.6042,-6.38022 26.5625,0 43.099,21.09378 16.6667,21.09378 16.6667,55.46882 0,34.37504 -16.6667,55.46881 -16.5365,21.09378 -43.099,21.09378 -16.0157,0 -27.6042,-6.25001 -11.4584,-6.38021 -19.0105,-19.40106 z m 81.5105,-50.91152 q 0,-26.43233 -10.9375,-41.4063 -10.8073,-15.10419 -29.8177,-15.10419 -19.0105,0 -29.948,15.10419 -10.8073,14.97397 -10.8073,41.4063 0,26.43232 10.8073,41.53651 10.9375,14.97397 29.948,14.97397 19.0104,0 29.8177,-14.97397 10.9375,-15.10419 10.9375,-41.53651 z"
       id="path952" />
    <path
       d="m 5084.9922,461.89263 v 88.02094 h -23.9584 v -87.23969 q 0,-20.70315 -8.0729,-30.98962 -8.073,-10.28647 -24.2188,-10.28647 -19.4011,0 -30.599,12.36981 -11.1979,12.36981 -11.1979,33.724 v 82.42197 h -24.0886 V 347.30916 h 24.0886 v 79.42718 q 8.5937,-13.15106 20.1823,-19.66148 11.7187,-6.51043 26.9531,-6.51043 25.1303,0 38.0209,15.62502 12.8907,15.49481 12.8907,45.70318 z"
       id="path954" />
    <path
       d="m 5189.2893,420.87696 q -19.2709,0 -30.4688,15.10418 -11.1979,14.97398 -11.1979,41.14589 0,26.1719 11.0677,41.27609 11.1979,14.97398 30.599,14.97398 19.1406,0 30.3386,-15.10419 11.1979,-15.10418 11.1979,-41.14588 0,-25.91149 -11.1979,-41.01568 -11.198,-15.23439 -30.3386,-15.23439 z m 0,-20.31253 q 31.25,0 49.0886,20.31253 17.8385,20.31252 17.8385,56.25007 0,35.80733 -17.8385,56.25007 -17.8386,20.31252 -49.0886,20.31252 -31.3803,0 -49.2188,-20.31252 -17.7084,-20.44274 -17.7084,-56.25007 0,-35.93755 17.7084,-56.25007 17.8385,-20.31253 49.2188,-20.31253 z"
       id="path956" />
    <path
       d="m 5319.6281,362.67376 v 41.4063 h 49.349 v 18.61982 h -49.349 v 79.16676 q 0,17.83856 4.8177,22.9167 4.9479,5.07813 19.9219,5.07813 h 24.6094 v 20.0521 h -24.6094 q -27.7344,0 -38.2813,-10.28647 -10.5469,-10.41668 -10.5469,-37.76046 v -79.16676 h -17.5781 v -18.61982 h 17.5781 v -41.4063 z"
       id="path958" />
    <path
       d="m 5456.9983,420.87696 q -19.2709,0 -30.4688,15.10418 -11.1979,14.97398 -11.1979,41.14589 0,26.1719 11.0677,41.27609 11.1979,14.97398 30.599,14.97398 19.1406,0 30.3385,-15.10419 11.198,-15.10418 11.198,-41.14588 0,-25.91149 -11.198,-41.01568 -11.1979,-15.23439 -30.3385,-15.23439 z m 0,-20.31253 q 31.25,0 49.0886,20.31253 17.8385,20.31252 17.8385,56.25007 0,35.80733 -17.8385,56.25007 -17.8386,20.31252 -49.0886,20.31252 -31.3803,0 -49.2188,-20.31252 -17.7084,-20.44274 -17.7084,-56.25007 0,-35.93755 17.7084,-56.25007 17.8385,-20.31253 49.2188,-20.31253 z"
       id="path960" />
    <path
       d="m 5659.6023,475.30411 q 0,-26.0417 -10.8073,-40.36463 -10.6771,-14.32294 -30.0781,-14.32294 -19.2709,0 -30.0782,14.32294 -10.6771,14.32293 -10.6771,40.36463 0,25.91149 10.6771,40.23442 10.8073,14.32294 30.0782,14.32294 19.401,0 30.0781,-14.32294 10.8073,-14.32293 10.8073,-40.23442 z m 23.9584,56.51048 q 0,37.23963 -16.5365,55.33861 -16.5365,18.22919 -50.6511,18.22919 -12.6302,0 -23.8282,-1.95313 -11.1979,-1.82291 -21.7448,-5.72917 v -23.30732 q 10.5469,5.72917 20.8334,8.46355 10.2865,2.73438 20.9636,2.73438 23.5677,0 35.2865,-12.36981 11.7187,-12.23959 11.7187,-37.10942 V 524.2625 q -7.4219,12.89064 -19.0104,19.27086 -11.5886,6.38021 -27.7344,6.38021 -26.823,0 -43.2292,-20.44273 -16.4063,-20.44273 -16.4063,-54.16673 0,-33.85421 16.4063,-54.29694 16.4062,-20.44274 43.2292,-20.44274 16.1458,0 27.7344,6.38022 11.5885,6.38022 19.0104,19.27086 v -22.13545 h 23.9584 z"
       id="path962" />
    <path
       d="m 5817.415,426.47592 q -4.0365,-2.34375 -8.8542,-3.38542 -4.6875,-1.17187 -10.4167,-1.17187 -20.3125,0 -31.25,13.28126 -10.8073,13.15106 -10.8073,37.89067 v 76.82301 h -24.0886 V 404.08006 h 24.0886 v 22.65628 q 7.5521,-13.28127 19.6615,-19.66148 12.1093,-6.51043 29.4271,-6.51043 2.4739,0 5.4687,0.39063 2.9948,0.26042 6.6407,0.91146 z"
       id="path964" />
    <path
       d="m 5908.8215,476.60619 q -29.0365,0 -40.2344,6.64064 -11.1979,6.64063 -11.1979,22.65627 0,12.76044 8.3333,20.31253 8.4636,7.42188 22.9167,7.42188 19.9219,0 31.9011,-14.06251 12.1094,-14.19273 12.1094,-37.63026 v -5.33855 z m 47.7865,-9.89584 v 83.20322 h -23.9583 v -22.13544 q -8.2032,13.28127 -20.4428,19.66148 -12.2396,6.25001 -29.9479,6.25001 -22.3959,0 -35.6771,-12.50001 -13.1511,-12.63023 -13.1511,-33.724 0,-24.60941 16.4063,-37.10942 16.5365,-12.50002 49.2188,-12.50002 h 33.5938 v -2.34375 q 0,-16.53648 -10.9375,-25.52087 -10.8073,-9.11459 -30.4688,-9.11459 -12.5,0 -24.349,2.99479 -11.849,2.9948 -22.7865,8.98439 V 410.7207 q 13.1511,-5.07814 25.5209,-7.5521 12.3698,-2.60417 24.0885,-2.60417 31.6407,0 47.2657,16.40627 15.625,16.40627 15.625,49.73965 z"
       id="path966" />
    <path
       d="m 6029.1341,528.03855 v 77.34384 h -24.0885 V 404.08006 h 24.0885 v 22.13545 q 7.5521,-13.02085 19.0105,-19.27086 11.5885,-6.38022 27.6042,-6.38022 26.5625,0 43.099,21.09378 16.6667,21.09378 16.6667,55.46882 0,34.37504 -16.6667,55.46881 -16.5365,21.09378 -43.099,21.09378 -16.0157,0 -27.6042,-6.25001 -11.4584,-6.38021 -19.0105,-19.40106 z m 81.5105,-50.91152 q 0,-26.43233 -10.9375,-41.4063 -10.8073,-15.10419 -29.8177,-15.10419 -19.0104,0 -29.948,15.10419 -10.8073,14.97397 -10.8073,41.4063 0,26.43232 10.8073,41.53651 10.9376,14.97397 29.948,14.97397 19.0104,0 29.8177,-14.97397 10.9375,-15.10419 10.9375,-41.53651 z"
       id="path968" />
    <path
       d="m 6296.4521,461.89263 v 88.02094 h -23.9583 v -87.23969 q 0,-20.70315 -8.073,-30.98962 -8.0729,-10.28647 -24.2187,-10.28647 -19.4011,0 -30.599,12.36981 -11.198,12.36981 -11.198,33.724 v 82.42197 h -24.0885 V 347.30916 h 24.0885 v 79.42718 q 8.5938,-13.15106 20.1823,-19.66148 11.7188,-6.51043 26.9532,-6.51043 25.1302,0 38.0209,15.62502 12.8906,15.49481 12.8906,45.70318 z"
       id="path970" />
    <path
       d="m 6437.2076,408.37694 v 22.65628 q -10.1562,-5.20834 -21.0938,-7.81251 -10.9375,-2.60417 -22.6562,-2.60417 -17.8386,0 -26.823,5.46876 -8.8542,5.46875 -8.8542,16.40627 0,8.33334 6.3803,13.15106 6.3802,4.6875 25.651,8.98438 l 8.2032,1.82292 q 25.5208,5.46876 36.1979,15.49481 10.8073,9.89585 10.8073,27.73441 0,20.31252 -16.1458,32.1615 -16.0157,11.84897 -44.1407,11.84897 -11.7188,0 -24.4792,-2.34375 -12.6302,-2.21355 -26.6927,-6.77084 v -24.73962 q 13.2812,6.90105 26.1719,10.41668 12.8906,3.38542 25.5208,3.38542 16.9271,0 26.0417,-5.72917 9.1146,-5.85938 9.1146,-16.40627 0,-9.76564 -6.6406,-14.97398 -6.5104,-5.20834 -28.7761,-10.02605 l -8.3333,-1.95313 q -22.2657,-4.6875 -32.1615,-14.32293 -9.8959,-9.76564 -9.8959,-26.69274 0,-20.57295 14.5834,-31.77088 14.5833,-11.19793 41.4063,-11.19793 13.2812,0 25,1.95313 11.7188,1.95313 21.6146,5.85938 z"
       id="path972" />
  </g>
  <g
     aria-label="Images are arranged depending on their aspect ratio"
     id="text855"
     style="font-size:192px;line-height:1.25;font-family:sans-serif;-inkscape-font-specification:sans-serif;letter-spacing:0px;word-spacing:0px;fill:Maroon"
     inkscape:label="Middle-text">
    <path
       d="m 1092.6902,1384.8398 h 18.9375 v 139.9688 h -18.9375 z"
       id="path975" />
    <path
       d="m 1230.3152,1439.9648 q 6.4687,-11.625 15.4687,-17.1562 9,-5.5313 21.1875,-5.5313 16.4063,0 25.3125,11.5313 8.9063,11.4375 8.9063,32.625 v 63.375 h -17.3438 v -62.8125 q 0,-15.0938 -5.3437,-22.4063 -5.3438,-7.3125 -16.3125,-7.3125 -13.4063,0 -21.1875,8.9063 -7.7813,8.9062 -7.7813,24.2812 v 59.3438 h -17.3437 v -62.8125 q 0,-15.1875 -5.3438,-22.4063 -5.3437,-7.3125 -16.5,-7.3125 -13.2187,0 -21,9 -7.7812,8.9063 -7.7812,24.1875 v 59.3438 h -17.3438 v -105 h 17.3438 v 16.3125 q 5.9062,-9.6563 14.1562,-14.25 8.25,-4.5938 19.5938,-4.5938 11.4375,0 19.4062,5.8125 8.0625,5.8125 11.9063,16.875 z"
       id="path977" />
    <path
       d="m 1383.3152,1472.0273 q -20.9063,0 -28.9688,4.7813 -8.0625,4.7812 -8.0625,16.3125 0,9.1875 6,14.625 6.0938,5.3437 16.5,5.3437 14.3438,0 22.9688,-10.125 8.7187,-10.2187 8.7187,-27.0937 v -3.8438 z m 34.4062,-7.125 v 59.9063 h -17.25 v -15.9375 q -5.9062,9.5625 -14.7187,14.1562 -8.8125,4.5 -21.5625,4.5 -16.125,0 -25.6875,-9 -9.4688,-9.0937 -9.4688,-24.2812 0,-17.7188 11.8125,-26.7188 11.9063,-9 35.4375,-9 h 24.1875 v -1.6875 q 0,-11.9062 -7.875,-18.375 -7.7812,-6.5625 -21.9375,-6.5625 -9,0 -17.5312,2.1563 -8.5313,2.1562 -16.4063,6.4687 v -15.9375 q 9.4688,-3.6562 18.375,-5.4375 8.9063,-1.875 17.3438,-1.875 22.7812,0 34.0312,11.8125 11.25,11.8125 11.25,35.8125 z"
       id="path979" />
    <path
       d="m 1522.3464,1471.0898 q 0,-18.75 -7.7812,-29.0625 -7.6875,-10.3125 -21.6563,-10.3125 -13.875,0 -21.6562,10.3125 -7.6875,10.3125 -7.6875,29.0625 0,18.6563 7.6875,28.9688 7.7812,10.3125 21.6562,10.3125 13.9688,0 21.6563,-10.3125 7.7812,-10.3125 7.7812,-28.9688 z m 17.25,40.6875 q 0,26.8125 -11.9062,39.8438 -11.9063,13.125 -36.4688,13.125 -9.0937,0 -17.1562,-1.4063 -8.0625,-1.3125 -15.6563,-4.125 v -16.7812 q 7.5938,4.125 15,6.0937 7.4063,1.9688 15.0938,1.9688 16.9687,0 25.4062,-8.9063 8.4375,-8.8125 8.4375,-26.7187 v -8.5313 q -5.3437,9.2813 -13.6875,13.875 -8.3437,4.5938 -19.9687,4.5938 -19.3125,0 -31.125,-14.7188 -11.8125,-14.7187 -11.8125,-39 0,-24.375 11.8125,-39.0937 11.8125,-14.7188 31.125,-14.7188 11.625,0 19.9687,4.5938 8.3438,4.5937 13.6875,13.875 v -15.9375 h 17.25 z"
       id="path981" />
    <path
       d="m 1664.9402,1467.9961 v 8.4375 h -79.3125 q 1.125,17.8125 10.6875,27.1875 9.6562,9.2812 26.8125,9.2812 9.9375,0 19.2187,-2.4375 9.375,-2.4375 18.5625,-7.3125 v 16.3125 q -9.2812,3.9375 -19.0312,6 -9.75,2.0625 -19.7813,2.0625 -25.125,0 -39.8437,-14.625 -14.625,-14.625 -14.625,-39.5625 0,-25.7812 13.875,-40.875 13.9687,-15.1875 37.5937,-15.1875 21.1875,0 33.4688,13.6875 12.375,13.5938 12.375,37.0313 z m -17.25,-5.0625 q -0.1875,-14.1563 -7.9688,-22.5938 -7.6875,-8.4375 -20.4375,-8.4375 -14.4375,0 -23.1562,8.1563 -8.625,8.1562 -9.9375,22.9687 z"
       id="path983" />
    <path
       d="m 1760.1902,1422.9023 v 16.3125 q -7.3125,-3.75 -15.1875,-5.625 -7.875,-1.875 -16.3125,-1.875 -12.8438,0 -19.3125,3.9375 -6.375,3.9375 -6.375,11.8125 0,6 4.5937,9.4688 4.5938,3.375 18.4688,6.4687 l 5.9062,1.3125 q 18.375,3.9375 26.0625,11.1563 7.7813,7.125 7.7813,19.9687 0,14.625 -11.625,23.1563 -11.5313,8.5312 -31.7813,8.5312 -8.4375,0 -17.625,-1.6875 -9.0937,-1.5937 -19.2187,-4.875 v -17.8125 q 9.5625,4.9688 18.8437,7.5 9.2813,2.4375 18.375,2.4375 12.1875,0 18.75,-4.125 6.5625,-4.2187 6.5625,-11.8125 0,-7.0312 -4.7812,-10.7812 -4.6875,-3.75 -20.7188,-7.2188 l -6,-1.4062 q -16.0312,-3.375 -23.1562,-10.3125 -7.125,-7.0313 -7.125,-19.2188 0,-14.8125 10.5,-22.875 10.5,-8.0625 29.8125,-8.0625 9.5625,0 18,1.4063 8.4375,1.4062 15.5625,4.2187 z"
       id="path985" />
    <path
       d="m 1902.0339,1472.0273 q -20.9062,0 -28.9687,4.7813 -8.0625,4.7812 -8.0625,16.3125 0,9.1875 6,14.625 6.0937,5.3437 16.5,5.3437 14.3437,0 22.9687,-10.125 8.7188,-10.2187 8.7188,-27.0937 v -3.8438 z m 34.4063,-7.125 v 59.9063 h -17.25 v -15.9375 q -5.9063,9.5625 -14.7188,14.1562 -8.8125,4.5 -21.5625,4.5 -16.125,0 -25.6875,-9 -9.4687,-9.0937 -9.4687,-24.2812 0,-17.7188 11.8125,-26.7188 11.9062,-9 35.4375,-9 h 24.1875 v -1.6875 q 0,-11.9062 -7.875,-18.375 -7.7813,-6.5625 -21.9375,-6.5625 -9,0 -17.5313,2.1563 -8.5312,2.1562 -16.4062,6.4687 v -15.9375 q 9.4687,-3.6562 18.375,-5.4375 8.9062,-1.875 17.3437,-1.875 22.7813,0 34.0313,11.8125 11.25,11.8125 11.25,35.8125 z"
       id="path987" />
    <path
       d="m 2032.8152,1435.9336 q -2.9063,-1.6875 -6.375,-2.4375 -3.375,-0.8438 -7.5,-0.8438 -14.625,0 -22.5,9.5625 -7.7813,9.4688 -7.7813,27.2813 v 55.3125 h -17.3437 v -105 h 17.3437 v 16.3125 q 5.4375,-9.5625 14.1563,-14.1563 8.7187,-4.6875 21.1875,-4.6875 1.7812,0 3.9375,0.2813 2.1562,0.1875 4.7812,0.6562 z"
       id="path989" />
    <path
       d="m 2136.5027,1467.9961 v 8.4375 h -79.3125 q 1.125,17.8125 10.6875,27.1875 9.6562,9.2812 26.8125,9.2812 9.9375,0 19.2187,-2.4375 9.375,-2.4375 18.5625,-7.3125 v 16.3125 q -9.2812,3.9375 -19.0312,6 -9.75,2.0625 -19.7813,2.0625 -25.125,0 -39.8437,-14.625 -14.625,-14.625 -14.625,-39.5625 0,-25.7812 13.875,-40.875 13.9687,-15.1875 37.5937,-15.1875 21.1875,0 33.4688,13.6875 12.375,13.5938 12.375,37.0313 z m -17.25,-5.0625 q -0.1875,-14.1563 -7.9688,-22.5938 -7.6875,-8.4375 -20.4375,-8.4375 -14.4375,0 -23.1562,8.1563 -8.625,8.1562 -9.9375,22.9687 z"
       id="path991" />
    <path
       d="m 2273.5652,1472.0273 q -20.9063,0 -28.9688,4.7813 -8.0625,4.7812 -8.0625,16.3125 0,9.1875 6,14.625 6.0938,5.3437 16.5,5.3437 14.3438,0 22.9688,-10.125 8.7187,-10.2187 8.7187,-27.0937 v -3.8438 z m 34.4062,-7.125 v 59.9063 h -17.25 v -15.9375 q -5.9062,9.5625 -14.7187,14.1562 -8.8125,4.5 -21.5625,4.5 -16.125,0 -25.6875,-9 -9.4688,-9.0937 -9.4688,-24.2812 0,-17.7188 11.8125,-26.7188 11.9063,-9 35.4375,-9 h 24.1875 v -1.6875 q 0,-11.9062 -7.875,-18.375 -7.7812,-6.5625 -21.9375,-6.5625 -9,0 -17.5312,2.1563 -8.5313,2.1562 -16.4063,6.4687 v -15.9375 q 9.4688,-3.6562 18.375,-5.4375 8.9063,-1.875 17.3438,-1.875 22.7812,0 34.0312,11.8125 11.25,11.8125 11.25,35.8125 z"
       id="path993" />
    <path
       d="m 2404.3464,1435.9336 q -2.9062,-1.6875 -6.375,-2.4375 -3.375,-0.8438 -7.5,-0.8438 -14.625,0 -22.5,9.5625 -7.7812,9.4688 -7.7812,27.2813 v 55.3125 h -17.3438 v -105 h 17.3438 v 16.3125 q 5.4375,-9.5625 14.1562,-14.1563 8.7188,-4.6875 21.1875,-4.6875 1.7813,0 3.9375,0.2813 2.1563,0.1875 4.7813,0.6562 z"
       id="path995" />
    <path
       d="m 2479.9089,1435.9336 q -2.9062,-1.6875 -6.375,-2.4375 -3.375,-0.8438 -7.5,-0.8438 -14.625,0 -22.5,9.5625 -7.7812,9.4688 -7.7812,27.2813 v 55.3125 h -17.3438 v -105 h 17.3438 v 16.3125 q 5.4375,-9.5625 14.1562,-14.1563 8.7188,-4.6875 21.1875,-4.6875 1.7813,0 3.9375,0.2813 2.1563,0.1875 4.7813,0.6562 z"
       id="path997" />
    <path
       d="m 2545.7214,1472.0273 q -20.9062,0 -28.9687,4.7813 -8.0625,4.7812 -8.0625,16.3125 0,9.1875 6,14.625 6.0937,5.3437 16.5,5.3437 14.3437,0 22.9687,-10.125 8.7188,-10.2187 8.7188,-27.0937 v -3.8438 z m 34.4063,-7.125 v 59.9063 h -17.25 v -15.9375 q -5.9063,9.5625 -14.7188,14.1562 -8.8125,4.5 -21.5625,4.5 -16.125,0 -25.6875,-9 -9.4687,-9.0937 -9.4687,-24.2812 0,-17.7188 11.8125,-26.7188 11.9062,-9 35.4375,-9 h 24.1875 v -1.6875 q 0,-11.9062 -7.875,-18.375 -7.7813,-6.5625 -21.9375,-6.5625 -9,0 -17.5313,2.1563 -8.5312,2.1562 -16.4062,6.4687 v -15.9375 q 9.4687,-3.6562 18.375,-5.4375 8.9062,-1.875 17.3437,-1.875 22.7813,0 34.0313,11.8125 11.25,11.8125 11.25,35.8125 z"
       id="path999" />
    <path
       d="m 2702.9402,1461.4336 v 63.375 h -17.25 v -62.8125 q 0,-14.9063 -5.8125,-22.3125 -5.8125,-7.4063 -17.4375,-7.4063 -13.9688,0 -22.0313,8.9063 -8.0625,8.9062 -8.0625,24.2812 v 59.3438 h -17.3437 v -105 h 17.3437 v 16.3125 q 6.1875,-9.4688 14.5313,-14.1563 8.4375,-4.6875 19.4062,-4.6875 18.0938,0 27.375,11.25 9.2813,11.1563 9.2813,32.9063 z"
       id="path1001" />
    <path
       d="m 2806.4402,1471.0898 q 0,-18.75 -7.7813,-29.0625 -7.6875,-10.3125 -21.6562,-10.3125 -13.875,0 -21.6563,10.3125 -7.6875,10.3125 -7.6875,29.0625 0,18.6563 7.6875,28.9688 7.7813,10.3125 21.6563,10.3125 13.9687,0 21.6562,-10.3125 7.7813,-10.3125 7.7813,-28.9688 z m 17.25,40.6875 q 0,26.8125 -11.9063,39.8438 -11.9062,13.125 -36.4687,13.125 -9.0938,0 -17.1563,-1.4063 -8.0625,-1.3125 -15.6562,-4.125 v -16.7812 q 7.5937,4.125 15,6.0937 7.4062,1.9688 15.0937,1.9688 16.9688,0 25.4063,-8.9063 8.4375,-8.8125 8.4375,-26.7187 v -8.5313 q -5.3438,9.2813 -13.6875,13.875 -8.3438,4.5938 -19.9688,4.5938 -19.3125,0 -31.125,-14.7188 -11.8125,-14.7187 -11.8125,-39 0,-24.375 11.8125,-39.0937 11.8125,-14.7188 31.125,-14.7188 11.625,0 19.9688,4.5938 8.3437,4.5937 13.6875,13.875 v -15.9375 h 17.25 z"
       id="path1003" />
    <path
       d="m 2949.0339,1467.9961 v 8.4375 h -79.3125 q 1.125,17.8125 10.6875,27.1875 9.6563,9.2812 26.8125,9.2812 9.9375,0 19.2188,-2.4375 9.375,-2.4375 18.5625,-7.3125 v 16.3125 q -9.2813,3.9375 -19.0313,6 -9.75,2.0625 -19.7812,2.0625 -25.125,0 -39.8438,-14.625 -14.625,-14.625 -14.625,-39.5625 0,-25.7812 13.875,-40.875 13.9688,-15.1875 37.5938,-15.1875 21.1875,0 33.4687,13.6875 12.375,13.5938 12.375,37.0313 z m -17.25,-5.0625 q -0.1875,-14.1563 -7.9687,-22.5938 -7.6875,-8.4375 -20.4375,-8.4375 -14.4375,0 -23.1563,8.1563 -8.625,8.1562 -9.9375,22.9687 z"
       id="path1005" />
    <path
       d="m 3046.4402,1435.7461 v -56.8125 h 17.25 v 145.875 h -17.25 v -15.75 q -5.4375,9.375 -13.7813,13.9687 -8.25,4.5 -19.875,4.5 -19.0312,0 -31.0312,-15.1875 -11.9063,-15.1875 -11.9063,-39.9375 0,-24.75 11.9063,-39.9375 12,-15.1875 31.0312,-15.1875 11.625,0 19.875,4.5938 8.3438,4.5 13.7813,13.875 z m -58.7813,36.6562 q 0,19.0313 7.7813,29.9063 7.875,10.7812 21.5625,10.7812 13.6875,0 21.5625,-10.7812 7.875,-10.875 7.875,-29.9063 0,-19.0312 -7.875,-29.8125 -7.875,-10.875 -21.5625,-10.875 -13.6875,0 -21.5625,10.875 -7.7813,10.7813 -7.7813,29.8125 z"
       id="path1007" />
    <path
       d="m 3229.3464,1435.7461 v -56.8125 h 17.25 v 145.875 h -17.25 v -15.75 q -5.4375,9.375 -13.7812,13.9687 -8.25,4.5 -19.875,4.5 -19.0313,0 -31.0313,-15.1875 -11.9062,-15.1875 -11.9062,-39.9375 0,-24.75 11.9062,-39.9375 12,-15.1875 31.0313,-15.1875 11.625,0 19.875,4.5938 8.3437,4.5 13.7812,13.875 z m -58.7812,36.6562 q 0,19.0313 7.7812,29.9063 7.875,10.7812 21.5625,10.7812 13.6875,0 21.5625,-10.7812 7.875,-10.875 7.875,-29.9063 0,-19.0312 -7.875,-29.8125 -7.875,-10.875 -21.5625,-10.875 -13.6875,0 -21.5625,10.875 -7.7812,10.7813 -7.7812,29.8125 z"
       id="path1009" />
    <path
       d="m 3371.9402,1467.9961 v 8.4375 h -79.3125 q 1.125,17.8125 10.6875,27.1875 9.6562,9.2812 26.8125,9.2812 9.9375,0 19.2187,-2.4375 9.375,-2.4375 18.5625,-7.3125 v 16.3125 q -9.2812,3.9375 -19.0312,6 -9.75,2.0625 -19.7813,2.0625 -25.125,0 -39.8437,-14.625 -14.625,-14.625 -14.625,-39.5625 0,-25.7812 13.875,-40.875 13.9687,-15.1875 37.5937,-15.1875 21.1875,0 33.4688,13.6875 12.375,13.5938 12.375,37.0313 z m -17.25,-5.0625 q -0.1875,-14.1563 -7.9688,-22.5938 -7.6875,-8.4375 -20.4375,-8.4375 -14.4375,0 -23.1562,8.1563 -8.625,8.1562 -9.9375,22.9687 z"
       id="path1011" />
    <path
       d="m 3416.9402,1509.0586 v 55.6875 h -17.3438 v -144.9375 h 17.3438 v 15.9375 q 5.4375,-9.375 13.6875,-13.875 8.3437,-4.5938 19.875,-4.5938 19.125,0 31.0312,15.1875 12,15.1875 12,39.9375 0,24.75 -12,39.9375 -11.9062,15.1875 -31.0312,15.1875 -11.5313,0 -19.875,-4.5 -8.25,-4.5937 -13.6875,-13.9687 z m 58.6875,-36.6563 q 0,-19.0312 -7.875,-29.8125 -7.7813,-10.875 -21.4688,-10.875 -13.6875,0 -21.5625,10.875 -7.7812,10.7813 -7.7812,29.8125 0,19.0313 7.7812,29.9063 7.875,10.7812 21.5625,10.7812 13.6875,0 21.4688,-10.7812 7.875,-10.875 7.875,-29.9063 z"
       id="path1013" />
    <path
       d="m 3611.9402,1467.9961 v 8.4375 h -79.3125 q 1.125,17.8125 10.6875,27.1875 9.6562,9.2812 26.8125,9.2812 9.9375,0 19.2187,-2.4375 9.375,-2.4375 18.5625,-7.3125 v 16.3125 q -9.2812,3.9375 -19.0312,6 -9.75,2.0625 -19.7813,2.0625 -25.125,0 -39.8437,-14.625 -14.625,-14.625 -14.625,-39.5625 0,-25.7812 13.875,-40.875 13.9687,-15.1875 37.5937,-15.1875 21.1875,0 33.4688,13.6875 12.375,13.5938 12.375,37.0313 z m -17.25,-5.0625 q -0.1875,-14.1563 -7.9688,-22.5938 -7.6875,-8.4375 -20.4375,-8.4375 -14.4375,0 -23.1562,8.1563 -8.625,8.1562 -9.9375,22.9687 z"
       id="path1015" />
    <path
       d="m 3727.5339,1461.4336 v 63.375 h -17.25 v -62.8125 q 0,-14.9063 -5.8125,-22.3125 -5.8125,-7.4063 -17.4375,-7.4063 -13.9687,0 -22.0312,8.9063 -8.0625,8.9062 -8.0625,24.2812 v 59.3438 h -17.3438 v -105 h 17.3438 v 16.3125 q 6.1875,-9.4688 14.5312,-14.1563 8.4375,-4.6875 19.4063,-4.6875 18.0937,0 27.375,11.25 9.2812,11.1563 9.2812,32.9063 z"
       id="path1017" />
    <path
       d="m 3831.0339,1435.7461 v -56.8125 h 17.25 v 145.875 h -17.25 v -15.75 q -5.4375,9.375 -13.7812,13.9687 -8.25,4.5 -19.875,4.5 -19.0313,0 -31.0313,-15.1875 -11.9062,-15.1875 -11.9062,-39.9375 0,-24.75 11.9062,-39.9375 12,-15.1875 31.0313,-15.1875 11.625,0 19.875,4.5938 8.3437,4.5 13.7812,13.875 z m -58.7812,36.6562 q 0,19.0313 7.7812,29.9063 7.875,10.7812 21.5625,10.7812 13.6875,0 21.5625,-10.7812 7.875,-10.875 7.875,-29.9063 0,-19.0312 -7.875,-29.8125 -7.875,-10.875 -21.5625,-10.875 -13.6875,0 -21.5625,10.875 -7.7812,10.7813 -7.7812,29.8125 z"
       id="path1019" />
    <path
       d="m 3883.8152,1419.8086 h 17.25 v 105 h -17.25 z m 0,-40.875 h 17.25 v 21.8437 h -17.25 z"
       id="path1021" />
    <path
       d="m 4024.4402,1461.4336 v 63.375 h -17.25 v -62.8125 q 0,-14.9063 -5.8125,-22.3125 -5.8125,-7.4063 -17.4375,-7.4063 -13.9688,0 -22.0313,8.9063 -8.0625,8.9062 -8.0625,24.2812 v 59.3438 h -17.3437 v -105 h 17.3437 v 16.3125 q 6.1875,-9.4688 14.5313,-14.1563 8.4375,-4.6875 19.4062,-4.6875 18.0938,0 27.375,11.25 9.2813,11.1563 9.2813,32.9063 z"
       id="path1023" />
    <path
       d="m 4127.9402,1471.0898 q 0,-18.75 -7.7813,-29.0625 -7.6875,-10.3125 -21.6562,-10.3125 -13.875,0 -21.6563,10.3125 -7.6875,10.3125 -7.6875,29.0625 0,18.6563 7.6875,28.9688 7.7813,10.3125 21.6563,10.3125 13.9687,0 21.6562,-10.3125 7.7813,-10.3125 7.7813,-28.9688 z m 17.25,40.6875 q 0,26.8125 -11.9063,39.8438 -11.9062,13.125 -36.4687,13.125 -9.0938,0 -17.1563,-1.4063 -8.0625,-1.3125 -15.6562,-4.125 v -16.7812 q 7.5937,4.125 15,6.0937 7.4062,1.9688 15.0937,1.9688 16.9688,0 25.4063,-8.9063 8.4375,-8.8125 8.4375,-26.7187 v -8.5313 q -5.3438,9.2813 -13.6875,13.875 -8.3438,4.5938 -19.9688,4.5938 -19.3125,0 -31.125,-14.7188 -11.8125,-14.7187 -11.8125,-39 0,-24.375 11.8125,-39.0937 11.8125,-14.7188 31.125,-14.7188 11.625,0 19.9688,4.5938 8.3437,4.5937 13.6875,13.875 v -15.9375 h 17.25 z"
       id="path1025" />
    <path
       d="m 4282.4402,1431.9023 q -13.875,0 -21.9375,10.875 -8.0625,10.7813 -8.0625,29.625 0,18.8438 7.9687,29.7188 8.0625,10.7812 22.0313,10.7812 13.7812,0 21.8437,-10.875 8.0625,-10.875 8.0625,-29.625 0,-18.6562 -8.0625,-29.5312 -8.0625,-10.9688 -21.8437,-10.9688 z m 0,-14.625 q 22.5,0 35.3437,14.625 12.8438,14.625 12.8438,40.5 0,25.7813 -12.8438,40.5 -12.8437,14.625 -35.3437,14.625 -22.5938,0 -35.4375,-14.625 -12.75,-14.7187 -12.75,-40.5 0,-25.875 12.75,-40.5 12.8437,-14.625 35.4375,-14.625 z"
       id="path1027" />
    <path
       d="m 4446.5027,1461.4336 v 63.375 h -17.25 v -62.8125 q 0,-14.9063 -5.8125,-22.3125 -5.8125,-7.4063 -17.4375,-7.4063 -13.9688,0 -22.0313,8.9063 -8.0625,8.9062 -8.0625,24.2812 v 59.3438 h -17.3437 v -105 h 17.3437 v 16.3125 q 6.1875,-9.4688 14.5313,-14.1563 8.4375,-4.6875 19.4062,-4.6875 18.0938,0 27.375,11.25 9.2813,11.1563 9.2813,32.9063 z"
       id="path1029" />
    <path
       d="m 4559.0027,1389.9961 v 29.8125 h 35.5312 v 13.4062 h -35.5312 v 57 q 0,12.8438 3.4687,16.5 3.5625,3.6563 14.3438,3.6563 h 17.7187 v 14.4375 h -17.7187 q -19.9688,0 -27.5625,-7.4063 -7.5938,-7.5 -7.5938,-27.1875 v -57 h -12.6562 v -13.4062 h 12.6562 v -29.8125 z"
       id="path1031" />
    <path
       d="m 4704.5027,1461.4336 v 63.375 h -17.25 v -62.8125 q 0,-14.9063 -5.8125,-22.3125 -5.8125,-7.4063 -17.4375,-7.4063 -13.9688,0 -22.0313,8.9063 -8.0625,8.9062 -8.0625,24.2812 v 59.3438 h -17.3437 v -145.875 h 17.3437 v 57.1875 q 6.1875,-9.4688 14.5313,-14.1563 8.4375,-4.6875 19.4062,-4.6875 18.0938,0 27.375,11.25 9.2813,11.1563 9.2813,32.9063 z"
       id="path1033" />
    <path
       d="m 4828.7214,1467.9961 v 8.4375 h -79.3125 q 1.125,17.8125 10.6875,27.1875 9.6563,9.2812 26.8125,9.2812 9.9375,0 19.2188,-2.4375 9.375,-2.4375 18.5625,-7.3125 v 16.3125 q -9.2813,3.9375 -19.0313,6 -9.75,2.0625 -19.7812,2.0625 -25.125,0 -39.8438,-14.625 -14.625,-14.625 -14.625,-39.5625 0,-25.7812 13.875,-40.875 13.9688,-15.1875 37.5938,-15.1875 21.1875,0 33.4687,13.6875 12.375,13.5938 12.375,37.0313 z m -17.25,-5.0625 q -0.1875,-14.1563 -7.9687,-22.5938 -7.6875,-8.4375 -20.4375,-8.4375 -14.4375,0 -23.1563,8.1563 -8.625,8.1562 -9.9375,22.9687 z"
       id="path1035" />
    <path
       d="m 4857.0339,1419.8086 h 17.25 v 105 h -17.25 z m 0,-40.875 h 17.25 v 21.8437 h -17.25 z"
       id="path1037" />
    <path
       d="m 4971.2214,1435.9336 q -2.9062,-1.6875 -6.375,-2.4375 -3.375,-0.8438 -7.5,-0.8438 -14.625,0 -22.5,9.5625 -7.7812,9.4688 -7.7812,27.2813 v 55.3125 h -17.3438 v -105 h 17.3438 v 16.3125 q 5.4375,-9.5625 14.1562,-14.1563 8.7188,-4.6875 21.1875,-4.6875 1.7813,0 3.9375,0.2813 2.1563,0.1875 4.7813,0.6562 z"
       id="path1039" />
    <path
       d="m 5098.0652,1472.0273 q -20.9063,0 -28.9688,4.7813 -8.0625,4.7812 -8.0625,16.3125 0,9.1875 6,14.625 6.0938,5.3437 16.5,5.3437 14.3438,0 22.9688,-10.125 8.7187,-10.2187 8.7187,-27.0937 v -3.8438 z m 34.4062,-7.125 v 59.9063 h -17.25 v -15.9375 q -5.9062,9.5625 -14.7187,14.1562 -8.8125,4.5 -21.5625,4.5 -16.125,0 -25.6875,-9 -9.4688,-9.0937 -9.4688,-24.2812 0,-17.7188 11.8125,-26.7188 11.9063,-9 35.4375,-9 h 24.1875 v -1.6875 q 0,-11.9062 -7.875,-18.375 -7.7812,-6.5625 -21.9375,-6.5625 -9,0 -17.5312,2.1563 -8.5313,2.1562 -16.4063,6.4687 v -15.9375 q 9.4688,-3.6562 18.375,-5.4375 8.9063,-1.875 17.3438,-1.875 22.7812,0 34.0312,11.8125 11.25,11.8125 11.25,35.8125 z"
       id="path1041" />
    <path
       d="m 5234.9402,1422.9023 v 16.3125 q -7.3125,-3.75 -15.1875,-5.625 -7.875,-1.875 -16.3125,-1.875 -12.8438,0 -19.3125,3.9375 -6.375,3.9375 -6.375,11.8125 0,6 4.5937,9.4688 4.5938,3.375 18.4688,6.4687 l 5.9062,1.3125 q 18.375,3.9375 26.0625,11.1563 7.7813,7.125 7.7813,19.9687 0,14.625 -11.625,23.1563 -11.5313,8.5312 -31.7813,8.5312 -8.4375,0 -17.625,-1.6875 -9.0937,-1.5937 -19.2187,-4.875 v -17.8125 q 9.5625,4.9688 18.8437,7.5 9.2813,2.4375 18.375,2.4375 12.1875,0 18.75,-4.125 6.5625,-4.2187 6.5625,-11.8125 0,-7.0312 -4.7812,-10.7812 -4.6875,-3.75 -20.7188,-7.2188 l -6,-1.4062 q -16.0312,-3.375 -23.1562,-10.3125 -7.125,-7.0313 -7.125,-19.2188 0,-14.8125 10.5,-22.875 10.5,-8.0625 29.8125,-8.0625 9.5625,0 18,1.4063 8.4375,1.4062 15.5625,4.2187 z"
       id="path1043" />
    <path
       d="m 5284.7214,1509.0586 v 55.6875 h -17.3437 v -144.9375 h 17.3437 v 15.9375 q 5.4375,-9.375 13.6875,-13.875 8.3438,-4.5938 19.875,-4.5938 19.125,0 31.0313,15.1875 12,15.1875 12,39.9375 0,24.75 -12,39.9375 -11.9063,15.1875 -31.0313,15.1875 -11.5312,0 -19.875,-4.5 -8.25,-4.5937 -13.6875,-13.9687 z m 58.6875,-36.6563 q 0,-19.0312 -7.875,-29.8125 -7.7812,-10.875 -21.4687,-10.875 -13.6875,0 -21.5625,10.875 -7.7813,10.7813 -7.7813,29.8125 0,19.0313 7.7813,29.9063 7.875,10.7812 21.5625,10.7812 13.6875,0 21.4687,-10.7812 7.875,-10.875 7.875,-29.9063 z"
       id="path1045" />
    <path
       d="m 5479.7214,1467.9961 v 8.4375 h -79.3125 q 1.125,17.8125 10.6875,27.1875 9.6563,9.2812 26.8125,9.2812 9.9375,0 19.2188,-2.4375 9.375,-2.4375 18.5625,-7.3125 v 16.3125 q -9.2813,3.9375 -19.0313,6 -9.75,2.0625 -19.7812,2.0625 -25.125,0 -39.8438,-14.625 -14.625,-14.625 -14.625,-39.5625 0,-25.7812 13.875,-40.875 13.9688,-15.1875 37.5938,-15.1875 21.1875,0 33.4687,13.6875 12.375,13.5938 12.375,37.0313 z m -17.25,-5.0625 q -0.1875,-14.1563 -7.9687,-22.5938 -7.6875,-8.4375 -20.4375,-8.4375 -14.4375,0 -23.1563,8.1563 -8.625,8.1562 -9.9375,22.9687 z"
       id="path1047" />
    <path
       d="m 5583.5964,1423.8398 v 16.125 q -7.3125,-4.0312 -14.7187,-6 -7.3125,-2.0625 -14.8125,-2.0625 -16.7813,0 -26.0625,10.6875 -9.2813,10.5938 -9.2813,29.8125 0,19.2188 9.2813,29.9063 9.2812,10.5937 26.0625,10.5937 7.5,0 14.8125,-1.9687 7.4062,-2.0625 14.7187,-6.0938 v 15.9375 q -7.2187,3.375 -15,5.0625 -7.6875,1.6875 -16.4062,1.6875 -23.7188,0 -37.6875,-14.9062 -13.9688,-14.9063 -13.9688,-40.2188 0,-25.6875 14.0625,-40.4062 14.1563,-14.7188 38.7188,-14.7188 7.9687,0 15.5625,1.6875 7.5937,1.5938 14.7187,4.875 z"
       id="path1049" />
    <path
       d="m 5630.6589,1389.9961 v 29.8125 h 35.5313 v 13.4062 h -35.5313 v 57 q 0,12.8438 3.4688,16.5 3.5625,3.6563 14.3437,3.6563 h 17.7188 v 14.4375 h -17.7188 q -19.9687,0 -27.5625,-7.4063 -7.5937,-7.5 -7.5937,-27.1875 v -57 h -12.6563 v -13.4062 h 12.6563 v -29.8125 z"
       id="path1051" />
    <path
       d="m 5810.7527,1435.9336 q -2.9063,-1.6875 -6.375,-2.4375 -3.375,-0.8438 -7.5,-0.8438 -14.625,0 -22.5,9.5625 -7.7813,9.4688 -7.7813,27.2813 v 55.3125 h -17.3437 v -105 h 17.3437 v 16.3125 q 5.4375,-9.5625 14.1563,-14.1563 8.7187,-4.6875 21.1875,-4.6875 1.7812,0 3.9375,0.2813 2.1562,0.1875 4.7812,0.6562 z"
       id="path1053" />
    <path
       d="m 5876.5652,1472.0273 q -20.9063,0 -28.9688,4.7813 -8.0625,4.7812 -8.0625,16.3125 0,9.1875 6,14.625 6.0938,5.3437 16.5,5.3437 14.3438,0 22.9688,-10.125 8.7187,-10.2187 8.7187,-27.0937 v -3.8438 z m 34.4062,-7.125 v 59.9063 h -17.25 v -15.9375 q -5.9062,9.5625 -14.7187,14.1562 -8.8125,4.5 -21.5625,4.5 -16.125,0 -25.6875,-9 -9.4688,-9.0937 -9.4688,-24.2812 0,-17.7188 11.8125,-26.7188 11.9063,-9 35.4375,-9 h 24.1875 v -1.6875 q 0,-11.9062 -7.875,-18.375 -7.7812,-6.5625 -21.9375,-6.5625 -9,0 -17.5312,2.1563 -8.5313,2.1562 -16.4063,6.4687 v -15.9375 q 9.4688,-3.6562 18.375,-5.4375 8.9063,-1.875 17.3438,-1.875 22.7812,0 34.0312,11.8125 11.25,11.8125 11.25,35.8125 z"
       id="path1055" />
    <path
       d="m 5963.5652,1389.9961 v 29.8125 h 35.5312 v 13.4062 h -35.5312 v 57 q 0,12.8438 3.4687,16.5 3.5625,3.6563 14.3438,3.6563 h 17.7187 v 14.4375 h -17.7187 q -19.9688,0 -27.5625,-7.4063 -7.5938,-7.5 -7.5938,-27.1875 v -57 h -12.6562 v -13.4062 h 12.6562 v -29.8125 z"
       id="path1057" />
    <path
       d="m 6021.7839,1419.8086 h 17.25 v 105 h -17.25 z m 0,-40.875 h 17.25 v 21.8437 h -17.25 z"
       id="path1059" />
    <path
       d="m 6115.8152,1431.9023 q -13.875,0 -21.9375,10.875 -8.0625,10.7813 -8.0625,29.625 0,18.8438 7.9687,29.7188 8.0625,10.7812 22.0313,10.7812 13.7812,0 21.8437,-10.875 8.0625,-10.875 8.0625,-29.625 0,-18.6562 -8.0625,-29.5312 -8.0625,-10.9688 -21.8437,-10.9688 z m 0,-14.625 q 22.5,0 35.3437,14.625 12.8438,14.625 12.8438,40.5 0,25.7813 -12.8438,40.5 -12.8437,14.625 -35.3437,14.625 -22.5938,0 -35.4375,-14.625 -12.75,-14.7187 -12.75,-40.5 0,-25.875 12.75,-40.5 12.8437,-14.625 35.4375,-14.625 z"
       id="path1061" />
  </g>
  <g
     id="g904"
     transform="translate(268.34646)"
     sodipodi:insensitive="true">
    <g
       id="g893"
       transform="translate(0,71.549362)">
      <rect
         style="fill:none;stroke:#000000;stroke-width:10;stroke-opacity:1;paint-order:markers stroke fill"
         id="rect859"
         width="1680"
         height="960"
         x="800"
         y="1920" />
      <rect
         style="fill:none;stroke:#000000;stroke-width:10;stroke-opacity:1;paint-order:markers stroke fill"
         id="rect861"
         width="720"
         height="960"
         x="1280"
         y="1920" />
    </g>
    <rect
       style="fill:none;stroke:#000000;stroke-width:10;stroke-opacity:1;paint-order:markers stroke fill"
       id="rect859-1"
       width="1680"
       height="960"
       x="4239.6479"
       y="1991.5493" />
    <rect
       style="fill:none;stroke:#000000;stroke-width:10;stroke-opacity:1;paint-order:markers stroke fill"
       id="rect895"
       width="1680"
       height="640"
       x="4240"
       y="2160" />
  </g>
</svg>
