<?xml version="1.0" encoding="UTF-8" standalone="no"?>
<svg
   xmlns:svg="http://www.w3.org/2000/svg"
   xmlns="http://www.w3.org/2000/svg"
   width="1920mm"
   height="1080mm"
   viewBox="0 0 7256.6929 4081.8896"
   version="1.1">
  <g
     id="Prompt"
     style="font-size:192px;line-height:1.25;font-family:sans-serif;letter-spacing:0px;word-spacing:0px;fill:transparent">
    <animate attributeName="fill" from="transparent" to="black" fill="freeze" begin="0s" dur="2s" />
    <path
       d="m 4794.8447,3779.4229 h 25.5 l 62.0625,117.0937 v -117.0937 h 18.375 v 139.9687 h -25.5 l -62.0625,-117.0937 v 117.0937 h -18.375 z"/>
    <path
       d="m 5027.5322,3862.5791 v 8.4375 h -79.3125 q 1.125,17.8125 10.6875,27.1875 9.6563,9.2813 26.8125,9.2813 9.9375,0 19.2188,-2.4375 9.375,-2.4375 18.5625,-7.3125 v 16.3125 q -9.2813,3.9375 -19.0313,6 -9.75,2.0625 -19.7812,2.0625 -25.125,0 -39.8438,-14.625 -14.625,-14.625 -14.625,-39.5625 0,-25.7813 13.875,-40.875 13.9688,-15.1875 37.5938,-15.1875 21.1875,0 33.4687,13.6875 12.375,13.5937 12.375,37.0312 z m -17.25,-5.0625 q -0.1875,-14.1562 -7.9687,-22.5937 -7.6875,-8.4375 -20.4375,-8.4375 -14.4375,0 -23.1563,8.1562 -8.625,8.1563 -9.9375,22.9688 z"/>
    <path
       d="m 5139.751,3814.3916 -37.9688,51.0938 39.9375,53.9062 h -20.3437 l -30.5625,-41.25 -30.5625,41.25 h -20.3438 l 40.7813,-54.9375 -37.3125,-50.0625 h 20.3437 l 27.8438,37.4063 27.8437,-37.4063 z"/>
    <path
       d="m 5183.1572,3784.5791 v 29.8125 h 35.5313 v 13.4063 h -35.5313 v 57 q 0,12.8437 3.4688,16.5 3.5625,3.6562 14.3437,3.6562 h 17.7188 v 14.4375 h -17.7188 q -19.9687,0 -27.5625,-7.4062 -7.5937,-7.5 -7.5937,-27.1875 v -57 h -12.6563 v -13.4063 h 12.6563 v -29.8125 z"/>
    <path
       d="m 5245.7822,3895.5791 h 19.7813 v 23.8125 h -19.7813 z m 0,-75.4687 h 19.7813 v 23.8125 h -19.7813 z"/>
    <path
       d="m 5383.7822,3903.6416 v 55.6875 h -17.3437 v -144.9375 h 17.3437 v 15.9375 q 5.4375,-9.375 13.6875,-13.875 8.3438,-4.5937 19.875,-4.5937 19.125,0 31.0313,15.1875 12,15.1875 12,39.9375 0,24.75 -12,39.9375 -11.9063,15.1875 -31.0313,15.1875 -11.5312,0 -19.875,-4.5 -8.25,-4.5938 -13.6875,-13.9688 z m 58.6875,-36.6562 q 0,-19.0313 -7.875,-29.8125 -7.7812,-10.875 -21.4687,-10.875 -13.6875,0 -21.5625,10.875 -7.7813,10.7812 -7.7813,29.8125 0,19.0312 7.7813,29.9062 7.875,10.7813 21.5625,10.7813 13.6875,0 21.4687,-10.7813 7.875,-10.875 7.875,-29.9062 z"/>
    <path
       d="m 5549.8135,3830.5166 q -2.9063,-1.6875 -6.375,-2.4375 -3.375,-0.8437 -7.5,-0.8437 -14.625,0 -22.5,9.5625 -7.7813,9.4687 -7.7813,27.2812 v 55.3125 h -17.3437 v -105 h 17.3437 v 16.3125 q 5.4375,-9.5625 14.1563,-14.1562 8.7187,-4.6875 21.1875,-4.6875 1.7812,0 3.9375,0.2812 2.1562,0.1875 4.7812,0.6563 z"/>
    <path
       d="m 5653.501,3862.5791 v 8.4375 h -79.3125 q 1.125,17.8125 10.6875,27.1875 9.6562,9.2813 26.8125,9.2813 9.9375,0 19.2187,-2.4375 9.375,-2.4375 18.5625,-7.3125 v 16.3125 q -9.2812,3.9375 -19.0312,6 -9.75,2.0625 -19.7813,2.0625 -25.125,0 -39.8437,-14.625 -14.625,-14.625 -14.625,-39.5625 0,-25.7813 13.875,-40.875 13.9687,-15.1875 37.5937,-15.1875 21.1875,0 33.4688,13.6875 12.375,13.5937 12.375,37.0312 z m -17.25,-5.0625 q -0.1875,-14.1562 -7.9688,-22.5937 -7.6875,-8.4375 -20.4375,-8.4375 -14.4375,0 -23.1562,8.1562 -8.625,8.1563 -9.9375,22.9688 z"/>
    <path
       d="m 5748.751,3817.4854 v 16.3125 q -7.3125,-3.75 -15.1875,-5.625 -7.875,-1.875 -16.3125,-1.875 -12.8438,0 -19.3125,3.9375 -6.375,3.9375 -6.375,11.8125 0,6 4.5937,9.4687 4.5938,3.375 18.4688,6.4688 l 5.9062,1.3125 q 18.375,3.9375 26.0625,11.1562 7.7813,7.125 7.7813,19.9688 0,14.625 -11.625,23.1562 -11.5313,8.5313 -31.7813,8.5313 -8.4375,0 -17.625,-1.6875 -9.0937,-1.5938 -19.2187,-4.875 v -17.8125 q 9.5625,4.9687 18.8437,7.5 9.2813,2.4375 18.375,2.4375 12.1875,0 18.75,-4.125 6.5625,-4.2188 6.5625,-11.8125 0,-7.0313 -4.7812,-10.7813 -4.6875,-3.75 -20.7188,-7.2187 l -6,-1.4063 q -16.0312,-3.375 -23.1562,-10.3125 -7.125,-7.0312 -7.125,-19.2187 0,-14.8125 10.5,-22.875 10.5,-8.0625 29.8125,-8.0625 9.5625,0 18,1.4062 8.4375,1.4063 15.5625,4.2188 z"/>
    <path
       d="m 5848.7822,3817.4854 v 16.3125 q -7.3125,-3.75 -15.1875,-5.625 -7.875,-1.875 -16.3125,-1.875 -12.8437,0 -19.3125,3.9375 -6.375,3.9375 -6.375,11.8125 0,6 4.5938,9.4687 4.5937,3.375 18.4687,6.4688 l 5.9063,1.3125 q 18.375,3.9375 26.0625,11.1562 7.7812,7.125 7.7812,19.9688 0,14.625 -11.625,23.1562 -11.5312,8.5313 -31.7812,8.5313 -8.4375,0 -17.625,-1.6875 -9.0938,-1.5938 -19.2188,-4.875 v -17.8125 q 9.5625,4.9687 18.8438,7.5 9.2812,2.4375 18.375,2.4375 12.1875,0 18.75,-4.125 6.5625,-4.2188 6.5625,-11.8125 0,-7.0313 -4.7813,-10.7813 -4.6875,-3.75 -20.7187,-7.2187 l -6,-1.4063 q -16.0313,-3.375 -23.1563,-10.3125 -7.125,-7.0312 -7.125,-19.2187 0,-14.8125 10.5,-22.875 10.5,-8.0625 29.8125,-8.0625 9.5625,0 18,1.4062 8.4375,1.4063 15.5625,4.2188 z"/>
    <path
       d="m 6009.8447,3817.4854 v 16.3125 q -7.3125,-3.75 -15.1875,-5.625 -7.875,-1.875 -16.3125,-1.875 -12.8437,0 -19.3125,3.9375 -6.375,3.9375 -6.375,11.8125 0,6 4.5938,9.4687 4.5937,3.375 18.4687,6.4688 l 5.9063,1.3125 q 18.375,3.9375 26.0625,11.1562 7.7812,7.125 7.7812,19.9688 0,14.625 -11.625,23.1562 -11.5312,8.5313 -31.7812,8.5313 -8.4375,0 -17.625,-1.6875 -9.0938,-1.5938 -19.2188,-4.875 v -17.8125 q 9.5625,4.9687 18.8438,7.5 9.2812,2.4375 18.375,2.4375 12.1875,0 18.75,-4.125 6.5625,-4.2188 6.5625,-11.8125 0,-7.0313 -4.7813,-10.7813 -4.6875,-3.75 -20.7187,-7.2187 l -6,-1.4063 q -16.0313,-3.375 -23.1563,-10.3125 -7.125,-7.0312 -7.125,-19.2187 0,-14.8125 10.5,-22.875 10.5,-8.0625 29.8125,-8.0625 9.5625,0 18,1.4062 8.4375,1.4063 15.5625,4.2188 z"/>
    <path
       d="m 6059.626,3903.6416 v 55.6875 h -17.3438 v -144.9375 h 17.3438 v 15.9375 q 5.4375,-9.375 13.6875,-13.875 8.3437,-4.5937 19.875,-4.5937 19.125,0 31.0312,15.1875 12,15.1875 12,39.9375 0,24.75 -12,39.9375 -11.9062,15.1875 -31.0312,15.1875 -11.5313,0 -19.875,-4.5 -8.25,-4.5938 -13.6875,-13.9688 z m 58.6875,-36.6562 q 0,-19.0313 -7.875,-29.8125 -7.7813,-10.875 -21.4688,-10.875 -13.6875,0 -21.5625,10.875 -7.7812,10.7812 -7.7812,29.8125 0,19.0312 7.7812,29.9062 7.875,10.7813 21.5625,10.7813 13.6875,0 21.4688,-10.7813 7.875,-10.875 7.875,-29.9062 z"/>
    <path
       d="m 6212.5322,3866.6104 q -20.9062,0 -28.9687,4.7812 -8.0625,4.7813 -8.0625,16.3125 0,9.1875 6,14.625 6.0937,5.3438 16.5,5.3438 14.3437,0 22.9687,-10.125 8.7188,-10.2188 8.7188,-27.0938 v -3.8437 z m 34.4063,-7.125 v 59.9062 h -17.25 v -15.9375 q -5.9063,9.5625 -14.7188,14.1563 -8.8125,4.5 -21.5625,4.5 -16.125,0 -25.6875,-9 -9.4687,-9.0938 -9.4687,-24.2813 0,-17.7187 11.8125,-26.7187 11.9062,-9 35.4375,-9 h 24.1875 v -1.6875 q 0,-11.9063 -7.875,-18.375 -7.7813,-6.5625 -21.9375,-6.5625 -9,0 -17.5313,2.1562 -8.5312,2.1563 -16.4062,6.4688 v -15.9375 q 9.4687,-3.6563 18.375,-5.4375 8.9062,-1.875 17.3437,-1.875 22.7813,0 34.0313,11.8125 11.25,11.8125 11.25,35.8125 z"/>
    <path
       d="m 6358.0322,3818.4229 v 16.125 q -7.3125,-4.0313 -14.7187,-6 -7.3125,-2.0625 -14.8125,-2.0625 -16.7813,0 -26.0625,10.6875 -9.2813,10.5937 -9.2813,29.8125 0,19.2187 9.2813,29.9062 9.2812,10.5938 26.0625,10.5938 7.5,0 14.8125,-1.9688 7.4062,-2.0625 14.7187,-6.0937 v 15.9375 q -7.2187,3.375 -15,5.0625 -7.6875,1.6875 -16.4062,1.6875 -23.7188,0 -37.6875,-14.9063 -13.9688,-14.9062 -13.9688,-40.2187 0,-25.6875 14.0625,-40.4063 14.1563,-14.7187 38.7188,-14.7187 7.9687,0 15.5625,1.6875 7.5937,1.5937 14.7187,4.875 z"/>
    <path
       d="m 6477.8447,3862.5791 v 8.4375 h -79.3125 q 1.125,17.8125 10.6875,27.1875 9.6563,9.2813 26.8125,9.2813 9.9375,0 19.2188,-2.4375 9.375,-2.4375 18.5625,-7.3125 v 16.3125 q -9.2813,3.9375 -19.0313,6 -9.75,2.0625 -19.7812,2.0625 -25.125,0 -39.8438,-14.625 -14.625,-14.625 -14.625,-39.5625 0,-25.7813 13.875,-40.875 13.9688,-15.1875 37.5938,-15.1875 21.1875,0 33.4687,13.6875 12.375,13.5937 12.375,37.0312 z m -17.25,-5.0625 q -0.1875,-14.1562 -7.9687,-22.5937 -7.6875,-8.4375 -20.4375,-8.4375 -14.4375,0 -23.1563,8.1562 -8.625,8.1563 -9.9375,22.9688 z"/>
    <path
       d="m 6642.5635,3866.9854 q 0,-19.0313 -7.875,-29.8125 -7.7813,-10.875 -21.4688,-10.875 -13.6875,0 -21.5625,10.875 -7.7812,10.7812 -7.7812,29.8125 0,19.0312 7.7812,29.9062 7.875,10.7813 21.5625,10.7813 13.6875,0 21.4688,-10.7813 7.875,-10.875 7.875,-29.9062 z m -58.6875,-36.6563 q 5.4375,-9.375 13.6875,-13.875 8.3437,-4.5937 19.875,-4.5937 19.125,0 31.0312,15.1875 12,15.1875 12,39.9375 0,24.75 -12,39.9375 -11.9062,15.1875 -31.0312,15.1875 -11.5313,0 -19.875,-4.5 -8.25,-4.5938 -13.6875,-13.9688 v 15.75 h -17.3438 v -145.875 h 17.3438 z"/>
    <path
       d="m 6736.7822,3866.6104 q -20.9062,0 -28.9687,4.7812 -8.0625,4.7813 -8.0625,16.3125 0,9.1875 6,14.625 6.0937,5.3438 16.5,5.3438 14.3437,0 22.9687,-10.125 8.7188,-10.2188 8.7188,-27.0938 v -3.8437 z m 34.4063,-7.125 v 59.9062 h -17.25 v -15.9375 q -5.9063,9.5625 -14.7188,14.1563 -8.8125,4.5 -21.5625,4.5 -16.125,0 -25.6875,-9 -9.4687,-9.0938 -9.4687,-24.2813 0,-17.7187 11.8125,-26.7187 11.9062,-9 35.4375,-9 h 24.1875 v -1.6875 q 0,-11.9063 -7.875,-18.375 -7.7813,-6.5625 -21.9375,-6.5625 -9,0 -17.5313,2.1562 -8.5312,2.1563 -16.4062,6.4688 v -15.9375 q 9.4687,-3.6563 18.375,-5.4375 8.9062,-1.875 17.3437,-1.875 22.7813,0 34.0313,11.8125 11.25,11.8125 11.25,35.8125 z"/>
    <path
       d="m 6867.5635,3830.5166 q -2.9063,-1.6875 -6.375,-2.4375 -3.375,-0.8437 -7.5,-0.8437 -14.625,0 -22.5,9.5625 -7.7813,9.4687 -7.7813,27.2812 v 55.3125 h -17.3437 v -105 h 17.3437 v 16.3125 q 5.4375,-9.5625 14.1563,-14.1562 8.7187,-4.6875 21.1875,-4.6875 1.7812,0 3.9375,0.2812 2.1562,0.1875 4.7812,0.6563 z"/>
    <path
       d="m 6870.4697,3895.5791 h 19.7813 v 23.8125 h -19.7813 z"/>
    <path
       d="m 6931.501,3895.5791 h 19.7812 v 23.8125 h -19.7812 z"/>
    <path
       d="m 6992.5322,3895.5791 h 19.7813 v 23.8125 h -19.7813 z"/>
  </g>
  <g
     transform="translate(39.804238,200)">
    <g
       aria-label="WebP animation converted from video"
       style="font-style:normal;font-variant:normal;font-weight:bold;font-stretch:normal;font-size:293.333px;line-height:1.25;font-family:sans-serif;letter-spacing:0px;word-spacing:0px;fill:#ffe680;stroke:#000000;stroke-width:10;stroke-miterlimit:4;stroke-dasharray:none;stroke-opacity:1">
      <path
         d="m 421.19562,707.74619 h 52.8515 l 36.95309,155.40347 36.66662,-155.40347 h 53.13796 l 36.66663,155.40347 36.95308,-155.40347 h 52.42182 L 676.42971,921.5871 H 612.83603 L 574.02097,759.02217 535.6356,921.5871 h -63.59368 z"
         style="stroke:#000000;stroke-width:10;stroke-miterlimit:4;stroke-dasharray:none;stroke-opacity:1" />
      <path
         d="m 910.32267,840.94917 v 14.60935 H 790.43999 q 1.86198,18.04686 13.03384,27.07029 11.17186,9.02342 31.22392,9.02342 16.18488,0 33.08591,-4.72655 17.04425,-4.86979 34.94787,-14.60936 v 39.5312 q -18.19008,6.875 -36.38016,10.31249 -18.19009,3.58073 -36.38017,3.58073 -43.54162,0 -67.74732,-22.05727 -24.06248,-22.20049 -24.06248,-62.16139 0,-39.24475 23.63279,-61.7317 23.77602,-22.48695 65.31243,-22.48695 37.81246,0 60.44264,22.77341 22.77341,22.77341 22.77341,60.87233 z M 857.6144,823.90491 q 0,-14.60935 -8.59374,-23.48955 -8.45052,-9.02343 -22.2005,-9.02343 -14.89582,0 -24.2057,8.45051 -9.30989,8.30728 -11.60155,24.06247 z"
         style="stroke:#000000;stroke-width:10;stroke-miterlimit:4;stroke-dasharray:none;stroke-opacity:1" />
      <path
         d="m 1034.5022,888.5012 q 16.4714,0 25.0651,-12.03124 8.737,-12.03124 8.737,-34.94788 0,-22.91664 -8.737,-34.94788 -8.5937,-12.03123 -25.0651,-12.03123 -16.4713,0 -25.3515,12.17446 -8.737,12.03124 -8.737,34.80465 0,22.77341 8.737,34.94788 8.8802,12.03124 25.3515,12.03124 z m -34.0885,-103.84103 q 10.599,-14.03645 23.4896,-20.62498 12.8906,-6.73176 29.6484,-6.73176 29.6484,0 48.6978,23.63278 19.0495,23.48956 19.0495,60.58587 0,37.09631 -19.0495,60.7291 -19.0494,23.48956 -48.6978,23.48956 -16.7578,0 -29.6484,-6.58854 -12.8906,-6.73176 -23.4896,-20.7682 v 23.2031 H 949.13774 V 698.72276 h 51.27596 z"
         style="stroke:#000000;stroke-width:10;stroke-miterlimit:4;stroke-dasharray:none;stroke-opacity:1" />
      <path
         d="m 1161.4032,707.74619 h 91.5233 q 40.8203,0 62.5911,18.19008 21.914,18.04686 21.914,51.56245 0,33.65881 -21.914,51.8489 -21.7708,18.04685 -62.5911,18.04685 h -36.3802 v 74.19263 h -55.1431 z m 55.1431,39.96089 v 59.7265 h 30.5078 q 16.0417,0 24.7786,-7.73437 8.737,-7.87759 8.737,-22.20049 0,-14.32291 -8.737,-22.05727 -8.7369,-7.73437 -24.7786,-7.73437 z"
         style="stroke:#000000;stroke-width:10;stroke-miterlimit:4;stroke-dasharray:none;stroke-opacity:1" />
      <path
         d="m 1548.1215,849.39968 q -16.0417,0 -24.2057,5.4427 -8.0209,5.4427 -8.0209,16.04165 0,9.73957 6.4453,15.3255 6.5886,5.4427 18.1901,5.4427 14.4662,0 24.349,-10.31248 9.8828,-10.45572 9.8828,-26.06768 v -5.87239 z m 78.3462,-19.33592 v 91.52334 h -51.7056 v -23.77602 q -10.3125,14.60936 -23.2031,21.34112 -12.8906,6.58854 -31.3672,6.58854 -24.9218,0 -40.5338,-14.46613 -15.4687,-14.60936 -15.4687,-37.81246 0,-28.21611 19.3359,-41.39318 19.4791,-13.17707 61.0155,-13.17707 h 30.2214 v -4.01041 q 0,-12.17447 -9.5964,-17.7604 -9.5963,-5.72916 -29.9348,-5.72916 -16.4714,0 -30.6511,3.29427 -14.1796,3.29426 -26.3541,9.8828 v -39.10152 q 16.4713,-4.01041 33.0859,-6.01562 16.6146,-2.14843 33.2291,-2.14843 43.3984,0 62.5911,17.18748 19.3359,17.04425 19.3359,55.57285 z"
         style="stroke:#000000;stroke-width:10;stroke-miterlimit:4;stroke-dasharray:none;stroke-opacity:1" />
      <path
         d="m 1835.4389,823.90491 v 97.68219 h -51.5625 v -15.89842 -58.86712 q 0,-20.76821 -1.0026,-28.64581 -0.8593,-7.87759 -3.151,-11.60155 -3.0078,-5.01301 -8.1641,-7.73436 -5.1562,-2.86458 -11.7447,-2.86458 -16.0417,0 -25.2084,12.46092 -9.1666,12.3177 -9.1666,34.23173 v 78.91919 h -51.276 V 761.17061 h 51.276 v 23.48956 q 11.6015,-14.03645 24.6354,-20.62498 13.0338,-6.73176 28.789,-6.73176 27.7864,0 42.1093,17.04425 14.4662,17.04425 14.4662,49.55723 z"
         style="stroke:#000000;stroke-width:10;stroke-miterlimit:4;stroke-dasharray:none;stroke-opacity:1" />
      <path
         d="m 1882.9909,761.17061 h 51.276 V 921.5871 h -51.276 z m 0,-62.44785 h 51.276 v 41.82287 h -51.276 z"
         style="stroke:#000000;stroke-width:10;stroke-miterlimit:4;stroke-dasharray:none;stroke-opacity:1" />
      <path
         d="m 2132.2094,787.8112 q 9.7395,-14.89581 23.0598,-22.63018 13.4635,-7.87759 29.5052,-7.87759 27.6432,0 42.1093,17.04425 14.4662,17.04425 14.4662,49.55723 v 97.68219 h -51.5625 v -83.64574 q 0.1432,-1.86198 0.1432,-3.86719 0.1433,-2.0052 0.1433,-5.72916 0,-17.04425 -5.013,-24.63539 -5.0131,-7.73436 -16.1849,-7.73436 -14.6094,0 -22.6302,12.03123 -7.8776,12.03124 -8.1641,34.80465 v 78.77596 h -51.5624 v -83.64574 q 0,-26.6406 -4.5833,-34.23174 -4.5834,-7.73436 -16.3281,-7.73436 -14.7526,0 -22.7734,12.17446 -8.0209,12.03124 -8.0209,34.51819 v 78.91919 h -51.5624 V 761.17061 h 51.5624 v 23.48956 q 9.4531,-13.60676 21.6276,-20.48175 12.3177,-6.87499 27.0703,-6.87499 16.6146,0 29.3619,8.02082 12.7474,8.02082 19.336,22.48695 z"
         style="stroke:#000000;stroke-width:10;stroke-miterlimit:4;stroke-dasharray:none;stroke-opacity:1" />
      <path
         d="m 2361.0892,849.39968 q -16.0416,0 -24.2057,5.4427 -8.0208,5.4427 -8.0208,16.04165 0,9.73957 6.4453,15.3255 6.5886,5.4427 18.1901,5.4427 14.4661,0 24.3489,-10.31248 9.8828,-10.45572 9.8828,-26.06768 v -5.87239 z m 78.3463,-19.33592 v 91.52334 h -51.7057 v -23.77602 q -10.3125,14.60936 -23.2031,21.34112 -12.8906,6.58854 -31.3671,6.58854 -24.9219,0 -40.5338,-14.46613 -15.4688,-14.60936 -15.4688,-37.81246 0,-28.21611 19.336,-41.39318 19.4791,-13.17707 61.0155,-13.17707 h 30.2213 v -4.01041 q 0,-12.17447 -9.5963,-17.7604 -9.5964,-5.72916 -29.9349,-5.72916 -16.4713,0 -30.651,3.29427 -14.1797,3.29426 -26.3541,9.8828 v -39.10152 q 16.4713,-4.01041 33.0859,-6.01562 16.6145,-2.14843 33.2291,-2.14843 43.3984,0 62.5911,17.18748 19.3359,17.04425 19.3359,55.57285 z"
         style="stroke:#000000;stroke-width:10;stroke-miterlimit:4;stroke-dasharray:none;stroke-opacity:1" />
      <path
         d="m 2543.1334,715.62378 v 45.54683 h 52.8515 v 36.66662 h -52.8515 v 68.03378 q 0,11.17187 4.4401,15.18228 4.4401,3.86718 17.6172,3.86718 h 26.3541 v 36.66663 h -43.9713 q -30.3645,0 -43.1119,-12.60416 -12.6041,-12.74738 -12.6041,-43.11193 v -68.03378 h -25.4948 v -36.66662 h 25.4948 v -45.54683 z"
         style="stroke:#000000;stroke-width:10;stroke-miterlimit:4;stroke-dasharray:none;stroke-opacity:1" />
      <path
         d="m 2627.3521,761.17061 h 51.276 V 921.5871 h -51.276 z m 0,-62.44785 h 51.276 v 41.82287 h -51.276 z"
         style="stroke:#000000;stroke-width:10;stroke-miterlimit:4;stroke-dasharray:none;stroke-opacity:1" />
      <path
         d="m 2804.2398,793.97005 q -17.0443,0 -26.0677,12.3177 -8.8802,12.17446 -8.8802,35.23433 0,23.05987 8.8802,35.37757 9.0234,12.17446 26.0677,12.17446 16.7578,0 25.638,-12.17446 8.8802,-12.3177 8.8802,-35.37757 0,-23.05987 -8.8802,-35.23433 -8.8802,-12.3177 -25.638,-12.3177 z m 0,-36.66662 q 41.3932,0 64.5963,22.34372 23.3463,22.34373 23.3463,61.87493 0,39.53121 -23.3463,61.87493 -23.2031,22.34373 -64.5963,22.34373 -41.5364,0 -65.026,-22.34373 -23.3463,-22.34372 -23.3463,-61.87493 0,-39.5312 23.3463,-61.87493 23.4896,-22.34372 65.026,-22.34372 z"
         style="stroke:#000000;stroke-width:10;stroke-miterlimit:4;stroke-dasharray:none;stroke-opacity:1" />
      <path
         d="m 3090.6978,823.90491 v 97.68219 h -51.5625 v -15.89842 -58.86712 q 0,-20.76821 -1.0026,-28.64581 -0.8593,-7.87759 -3.151,-11.60155 -3.0078,-5.01301 -8.1641,-7.73436 -5.1562,-2.86458 -11.7447,-2.86458 -16.0417,0 -25.2083,12.46092 -9.1667,12.3177 -9.1667,34.23173 v 78.91919 h -51.276 V 761.17061 h 51.276 v 23.48956 q 11.6016,-14.03645 24.6354,-20.62498 13.0338,-6.73176 28.789,-6.73176 27.7865,0 42.1094,17.04425 14.4661,17.04425 14.4661,49.55723 z"
         style="stroke:#000000;stroke-width:10;stroke-miterlimit:4;stroke-dasharray:none;stroke-opacity:1" />
      <path
         d="m 3369.9944,766.18362 v 41.82287 q -10.4558,-7.16145 -21.0547,-10.59894 -10.4557,-3.4375 -21.7708,-3.4375 -21.4844,0 -33.5156,12.60415 -11.888,12.46093 -11.888,34.94788 0,22.48696 11.888,35.09111 12.0312,12.46092 33.5156,12.46092 12.0312,0 22.7734,-3.58072 10.8854,-3.58073 20.0521,-10.59895 v 41.9661 q -12.0313,4.4401 -24.4922,6.58853 -12.3177,2.29167 -24.7786,2.29167 -43.3984,0 -67.8906,-22.2005 -24.4921,-22.34372 -24.4921,-62.01816 0,-39.67443 24.4921,-61.87493 24.4922,-22.34372 67.8906,-22.34372 12.6041,0 24.7786,2.29166 12.3177,2.14843 24.4922,6.58853 z"
         style="stroke:#000000;stroke-width:10;stroke-miterlimit:4;stroke-dasharray:none;stroke-opacity:1" />
      <path
         d="m 3490.5933,793.97005 q -17.0442,0 -26.0677,12.3177 -8.8802,12.17446 -8.8802,35.23433 0,23.05987 8.8802,35.37757 9.0235,12.17446 26.0677,12.17446 16.7578,0 25.638,-12.17446 8.8802,-12.3177 8.8802,-35.37757 0,-23.05987 -8.8802,-35.23433 -8.8802,-12.3177 -25.638,-12.3177 z m 0,-36.66662 q 41.3932,0 64.5963,22.34372 23.3463,22.34373 23.3463,61.87493 0,39.53121 -23.3463,61.87493 -23.2031,22.34373 -64.5963,22.34373 -41.5364,0 -65.026,-22.34373 -23.3463,-22.34372 -23.3463,-61.87493 0,-39.5312 23.3463,-61.87493 23.4896,-22.34372 65.026,-22.34372 z"
         style="stroke:#000000;stroke-width:10;stroke-miterlimit:4;stroke-dasharray:none;stroke-opacity:1" />
      <path
         d="m 3777.0513,823.90491 v 97.68219 h -51.5624 v -15.89842 -58.86712 q 0,-20.76821 -1.0026,-28.64581 -0.8594,-7.87759 -3.1511,-11.60155 -3.0078,-5.01301 -8.164,-7.73436 -5.1563,-2.86458 -11.7448,-2.86458 -16.0417,0 -25.2083,12.46092 -9.1667,12.3177 -9.1667,34.23173 v 78.91919 h -51.276 V 761.17061 h 51.276 v 23.48956 q 11.6016,-14.03645 24.6354,-20.62498 13.0338,-6.73176 28.789,-6.73176 27.7865,0 42.1094,17.04425 14.4661,17.04425 14.4661,49.55723 z"
         style="stroke:#000000;stroke-width:10;stroke-miterlimit:4;stroke-dasharray:none;stroke-opacity:1" />
      <path
         d="m 3804.408,761.17061 h 51.276 l 39.9609,110.85925 39.8177,-110.85925 h 51.4192 l -63.164,160.41649 h -56.289 z"
         style="stroke:#000000;stroke-width:10;stroke-miterlimit:4;stroke-dasharray:none;stroke-opacity:1" />
      <path
         d="m 4175.944,840.94917 v 14.60935 h -119.8826 q 1.8619,18.04686 13.0338,27.07029 11.1719,9.02342 31.2239,9.02342 16.1849,0 33.0859,-4.72655 17.0443,-4.86979 34.9479,-14.60936 v 39.5312 q -18.1901,6.875 -36.3802,10.31249 -18.1901,3.58073 -36.3801,3.58073 -43.5417,0 -67.7474,-22.05727 -24.0624,-22.20049 -24.0624,-62.16139 0,-39.24475 23.6328,-61.7317 23.776,-22.48695 65.3124,-22.48695 37.8124,0 60.4426,22.77341 22.7734,22.77341 22.7734,60.87233 z m -52.7082,-17.04426 q 0,-14.60935 -8.5938,-23.48955 -8.4505,-9.02343 -22.2005,-9.02343 -14.8958,0 -24.2057,8.45051 -9.3099,8.30728 -11.6015,24.06247 z"
         style="stroke:#000000;stroke-width:10;stroke-miterlimit:4;stroke-dasharray:none;stroke-opacity:1" />
      <path
         d="m 4333.9256,804.85546 q -6.7318,-3.15104 -13.4635,-4.58333 -6.5885,-1.57552 -13.3203,-1.57552 -19.7656,0 -30.5078,12.74738 -10.5989,12.60415 -10.5989,36.23694 v 73.90617 h -51.276 V 761.17061 h 51.276 v 26.35414 q 9.8828,-15.75519 22.6301,-22.91665 12.8907,-7.30467 30.7943,-7.30467 2.5781,0 5.5859,0.28645 3.0078,0.14323 8.737,0.85938 z"
         style="stroke:#000000;stroke-width:10;stroke-miterlimit:4;stroke-dasharray:none;stroke-opacity:1" />
      <path
         d="m 4415.423,715.62378 v 45.54683 h 52.8515 v 36.66662 h -52.8515 v 68.03378 q 0,11.17187 4.4401,15.18228 4.4401,3.86718 17.6172,3.86718 h 26.3541 v 36.66663 h -43.9713 q -30.3646,0 -43.1119,-12.60416 -12.6042,-12.74738 -12.6042,-43.11193 v -68.03378 h -25.4948 v -36.66662 h 25.4948 v -45.54683 z"
         style="stroke:#000000;stroke-width:10;stroke-miterlimit:4;stroke-dasharray:none;stroke-opacity:1" />
      <path
         d="m 4659.7717,840.94917 v 14.60935 H 4539.889 q 1.862,18.04686 13.0338,27.07029 11.1719,9.02342 31.224,9.02342 16.1848,0 33.0859,-4.72655 17.0442,-4.86979 34.9478,-14.60936 v 39.5312 q -18.19,6.875 -36.3801,10.31249 -18.1901,3.58073 -36.3802,3.58073 -43.5416,0 -67.7473,-22.05727 -24.0625,-22.20049 -24.0625,-62.16139 0,-39.24475 23.6328,-61.7317 23.776,-22.48695 65.3124,-22.48695 37.8125,0 60.4427,22.77341 22.7734,22.77341 22.7734,60.87233 z m -52.7083,-17.04426 q 0,-14.60935 -8.5937,-23.48955 -8.4506,-9.02343 -22.2005,-9.02343 -14.8959,0 -24.2057,8.45051 -9.3099,8.30728 -11.6016,24.06247 z"
         style="stroke:#000000;stroke-width:10;stroke-miterlimit:4;stroke-dasharray:none;stroke-opacity:1" />
      <path
         d="m 4807.7272,784.66017 v -85.93741 h 51.5625 V 921.5871 h -51.5625 V 898.384 q -10.5989,14.17967 -23.3463,20.7682 -12.7474,6.58854 -29.5052,6.58854 -29.6484,0 -48.6978,-23.48956 -19.0495,-23.63279 -19.0495,-60.7291 0,-37.09631 19.0495,-60.58587 19.0494,-23.63278 48.6978,-23.63278 16.6146,0 29.362,6.73176 12.8906,6.58853 23.4895,20.62498 z m -33.802,103.84103 q 16.4713,0 25.065,-12.03124 8.737,-12.03124 8.737,-34.94788 0,-22.91664 -8.737,-34.94788 -8.5937,-12.03123 -25.065,-12.03123 -16.3281,0 -25.0651,12.03123 -8.5937,12.03124 -8.5937,34.94788 0,22.91664 8.5937,34.94788 8.737,12.03124 25.0651,12.03124 z"
         style="stroke:#000000;stroke-width:10;stroke-miterlimit:4;stroke-dasharray:none;stroke-opacity:1" />
      <path
         d="m 5116.2427,698.72276 v 33.65882 h -28.3594 q -10.8854,0 -15.1822,4.01041 -4.2969,3.86718 -4.2969,13.60676 v 11.17186 h 43.8281 v 36.66662 h -43.8281 V 921.5871 h -51.276 V 797.83723 h -25.4948 v -36.66662 h 25.4948 v -11.17186 q 0,-26.21091 14.6094,-38.67184 14.6093,-12.60415 45.2603,-12.60415 z"
         style="stroke:#000000;stroke-width:10;stroke-miterlimit:4;stroke-dasharray:none;stroke-opacity:1" />
      <path
         d="m 5257.4661,804.85546 q -6.7317,-3.15104 -13.4635,-4.58333 -6.5885,-1.57552 -13.3203,-1.57552 -19.7656,0 -30.5078,12.74738 -10.5989,12.60415 -10.5989,36.23694 v 73.90617 h -51.276 V 761.17061 h 51.276 v 26.35414 q 9.8828,-15.75519 22.6302,-22.91665 12.8906,-7.30467 30.7942,-7.30467 2.5781,0 5.5859,0.28645 3.0078,0.14323 8.737,0.85938 z"
         style="stroke:#000000;stroke-width:10;stroke-miterlimit:4;stroke-dasharray:none;stroke-opacity:1" />
      <path
         d="m 5359.3023,793.97005 q -17.0443,0 -26.0677,12.3177 -8.8802,12.17446 -8.8802,35.23433 0,23.05987 8.8802,35.37757 9.0234,12.17446 26.0677,12.17446 16.7578,0 25.638,-12.17446 8.8802,-12.3177 8.8802,-35.37757 0,-23.05987 -8.8802,-35.23433 -8.8802,-12.3177 -25.638,-12.3177 z m 0,-36.66662 q 41.3932,0 64.5963,22.34372 23.3463,22.34373 23.3463,61.87493 0,39.53121 -23.3463,61.87493 -23.2031,22.34373 -64.5963,22.34373 -41.5364,0 -65.026,-22.34373 -23.3463,-22.34372 -23.3463,-61.87493 0,-39.5312 23.3463,-61.87493 23.4896,-22.34372 65.026,-22.34372 z"
         style="stroke:#000000;stroke-width:10;stroke-miterlimit:4;stroke-dasharray:none;stroke-opacity:1" />
      <path
         d="m 5633.1559,787.8112 q 9.7396,-14.89581 23.0599,-22.63018 13.4635,-7.87759 29.5051,-7.87759 27.6432,0 42.1094,17.04425 14.4661,17.04425 14.4661,49.55723 v 97.68219 h -51.5625 v -83.64574 q 0.1433,-1.86198 0.1433,-3.86719 0.1432,-2.0052 0.1432,-5.72916 0,-17.04425 -5.013,-24.63539 -5.013,-7.73436 -16.1849,-7.73436 -14.6093,0 -22.6302,12.03123 -7.8776,12.03124 -8.164,34.80465 v 78.77596 h -51.5625 v -83.64574 q 0,-26.6406 -4.5833,-34.23174 -4.5833,-7.73436 -16.3281,-7.73436 -14.7526,0 -22.7734,12.17446 -8.0208,12.03124 -8.0208,34.51819 v 78.91919 h -51.5625 V 761.17061 h 51.5625 v 23.48956 q 9.4531,-13.60676 21.6275,-20.48175 12.3177,-6.87499 27.0703,-6.87499 16.6146,0 29.362,8.02082 12.7474,8.02082 19.3359,22.48695 z"
         style="stroke:#000000;stroke-width:10;stroke-miterlimit:4;stroke-dasharray:none;stroke-opacity:1" />
      <path
         d="m 5872.0618,761.17061 h 51.276 l 39.9609,110.85925 39.8177,-110.85925 h 51.4192 l -63.164,160.41649 h -56.289 z"
         style="stroke:#000000;stroke-width:10;stroke-miterlimit:4;stroke-dasharray:none;stroke-opacity:1" />
      <path
         d="m 6083.4681,761.17061 h 51.2759 V 921.5871 h -51.2759 z m 0,-62.44785 h 51.2759 v 41.82287 h -51.2759 z"
         style="stroke:#000000;stroke-width:10;stroke-miterlimit:4;stroke-dasharray:none;stroke-opacity:1" />
      <path
         d="m 6293.1554,784.66017 v -85.93741 h 51.5625 V 921.5871 h -51.5625 V 898.384 q -10.5989,14.17967 -23.3463,20.7682 -12.7474,6.58854 -29.5052,6.58854 -29.6484,0 -48.6978,-23.48956 -19.0495,-23.63279 -19.0495,-60.7291 0,-37.09631 19.0495,-60.58587 19.0494,-23.63278 48.6978,-23.63278 16.6146,0 29.362,6.73176 12.8906,6.58853 23.4895,20.62498 z m -33.802,103.84103 q 16.4713,0 25.0651,-12.03124 8.7369,-12.03124 8.7369,-34.94788 0,-22.91664 -8.7369,-34.94788 -8.5938,-12.03123 -25.0651,-12.03123 -16.3281,0 -25.0651,12.03123 -8.5937,12.03124 -8.5937,34.94788 0,22.91664 8.5937,34.94788 8.737,12.03124 25.0651,12.03124 z"
         style="stroke:#000000;stroke-width:10;stroke-miterlimit:4;stroke-dasharray:none;stroke-opacity:1" />
      <path
         d="m 6554.1186,840.94917 v 14.60935 h -119.8827 q 1.862,18.04686 13.0339,27.07029 11.1718,9.02342 31.2239,9.02342 16.1849,0 33.0859,-4.72655 17.0442,-4.86979 34.9479,-14.60936 v 39.5312 q -18.1901,6.875 -36.3802,10.31249 -18.1901,3.58073 -36.3802,3.58073 -43.5416,0 -67.7473,-22.05727 -24.0625,-22.20049 -24.0625,-62.16139 0,-39.24475 23.6328,-61.7317 23.776,-22.48695 65.3124,-22.48695 37.8125,0 60.4427,22.77341 22.7734,22.77341 22.7734,60.87233 z m -52.7083,-17.04426 q 0,-14.60935 -8.5937,-23.48955 -8.4505,-9.02343 -22.2005,-9.02343 -14.8958,0 -24.2057,8.45051 -9.3099,8.30728 -11.6016,24.06247 z"
         style="stroke:#000000;stroke-width:10;stroke-miterlimit:4;stroke-dasharray:none;stroke-opacity:1" />
      <path
         d="m 6669.2745,793.97005 q -17.0443,0 -26.0677,12.3177 -8.8802,12.17446 -8.8802,35.23433 0,23.05987 8.8802,35.37757 9.0234,12.17446 26.0677,12.17446 16.7577,0 25.6379,-12.17446 8.8802,-12.3177 8.8802,-35.37757 0,-23.05987 -8.8802,-35.23433 -8.8802,-12.3177 -25.6379,-12.3177 z m 0,-36.66662 q 41.3931,0 64.5962,22.34372 23.3464,22.34373 23.3464,61.87493 0,39.53121 -23.3464,61.87493 -23.2031,22.34373 -64.5962,22.34373 -41.5365,0 -65.026,-22.34373 -23.3463,-22.34372 -23.3463,-61.87493 0,-39.5312 23.3463,-61.87493 23.4895,-22.34372 65.026,-22.34372 z"
         style="stroke:#000000;stroke-width:10;stroke-miterlimit:4;stroke-dasharray:none;stroke-opacity:1" />
    </g>
    <g
       aria-label="using FFMpeg"
       style="font-style:normal;font-variant:normal;font-weight:bold;font-stretch:normal;font-size:293.333px;line-height:1.25;font-family:sans-serif;letter-spacing:0px;word-spacing:0px;fill:#ff9955;stroke:#000000;stroke-width:10;stroke-miterlimit:4;stroke-dasharray:none;stroke-opacity:1">
      <path
         d="m 435.37529,1337.1393 v -97.9686 h 51.56244 v 16.0416 q 0,13.0339 -0.14323,32.7995 -0.14323,19.6223 -0.14323,26.2109 0,19.3359 1.00261,27.9296 1.0026,8.4505 3.43749,12.3177 3.15104,5.013 8.16406,7.7344 5.15624,2.7213 11.74478,2.7213 16.04164,0 25.2083,-12.3177 9.16666,-12.3177 9.16666,-34.2317 v -79.2056 h 51.27598 v 160.4165 h -51.27598 v -23.2031 q -11.60155,14.0364 -24.63539,20.7682 -12.89061,6.5885 -28.50257,6.5885 -27.78643,0 -42.39579,-17.0443 -14.46613,-17.0442 -14.46613,-49.5572 z"
         style="fill:#ff9955;stroke:#000000;stroke-width:10;stroke-miterlimit:4;stroke-dasharray:none;stroke-opacity:1" />
      <path
         d="m 771.24732,1244.1837 v 38.9583 q -16.47134,-6.875 -31.79684,-10.3125 -15.32551,-3.4375 -28.93226,-3.4375 -14.60936,0 -21.77081,3.7239 -7.01822,3.5808 -7.01822,11.1719 0,6.1589 5.29947,9.4531 5.4427,3.2943 19.33592,4.8698 l 9.02342,1.2891 q 39.38798,5.013 52.99474,16.4713 13.60675,11.4583 13.60675,35.9505 0,25.638 -18.90623,38.5286 -18.90623,12.8906 -56.43223,12.8906 -15.89842,0 -32.94267,-2.5781 -16.90102,-2.4349 -34.80465,-7.4479 v -38.9583 q 15.32551,7.4479 31.36716,11.1718 16.18487,3.724 32.79944,3.724 15.03904,0 22.63018,-4.1536 7.59114,-4.1537 7.59114,-12.3177 0,-6.875 -5.29947,-10.1693 -5.15625,-3.4375 -20.76821,-5.2995 l -9.02343,-1.1458 q -34.23173,-4.2969 -47.98172,-15.8984 -13.74998,-11.6016 -13.74998,-35.2344 0,-25.4947 17.47394,-37.8124 17.47394,-12.3177 53.56765,-12.3177 14.17967,0 29.79163,2.1484 15.61196,2.1485 33.94528,6.7318 z"
         style="fill:#ff9955;stroke:#000000;stroke-width:10;stroke-miterlimit:4;stroke-dasharray:none;stroke-opacity:1" />
      <path
         d="m 820.51811,1239.1707 h 51.27599 v 160.4165 h -51.27599 z m 0,-62.4479 h 51.27599 v 41.8229 h -51.27599 z"
         style="fill:#ff9955;stroke:#000000;stroke-width:10;stroke-miterlimit:4;stroke-dasharray:none;stroke-opacity:1" />
      <path
         d="m 1082.3407,1301.905 v 97.6822 h -51.5624 v -15.8985 -58.8671 q 0,-20.7682 -1.0026,-28.6458 -0.8594,-7.8776 -3.1511,-11.6015 -3.0078,-5.0131 -8.164,-7.7344 -5.1563,-2.8646 -11.7448,-2.8646 -16.04164,0 -25.2083,12.4609 -9.16665,12.3177 -9.16665,34.2318 v 78.9192 h -51.27599 v -160.4165 h 51.27599 v 23.4895 q 11.60155,-14.0364 24.63539,-20.625 13.03386,-6.7317 28.78906,-6.7317 27.7864,0 42.1093,17.0442 14.4661,17.0443 14.4661,49.5573 z"
         style="fill:#ff9955;stroke:#000000;stroke-width:10;stroke-miterlimit:4;stroke-dasharray:none;stroke-opacity:1" />
      <path
         d="m 1239.0332,1372.3736 q -10.5989,14.0365 -23.3463,20.625 -12.7474,6.5886 -29.5052,6.5886 -29.3619,0 -48.5546,-23.0599 -19.1927,-23.2031 -19.1927,-59.0104 0,-35.9504 19.1927,-58.8671 19.1927,-23.0599 48.5546,-23.0599 16.7578,0 29.5052,6.5886 12.7474,6.5885 23.3463,20.7682 v -23.776 h 51.5625 v 144.2316 q 0,38.6718 -24.4922,59.0103 -24.3489,20.4818 -70.7551,20.4818 -15.039,0 -29.0755,-2.2917 -14.0364,-2.2916 -28.2161,-7.0182 v -39.9609 q 13.4635,7.7344 26.3541,11.4583 12.8906,3.8672 25.9245,3.8672 25.2083,0 36.9531,-11.0286 11.7447,-11.0287 11.7447,-34.5182 z m -33.802,-99.8306 q -15.8984,0 -24.7786,11.7448 -8.8802,11.7448 -8.8802,33.2291 0,22.0573 8.5937,33.5156 8.5938,11.3151 25.0651,11.3151 16.0417,0 24.9218,-11.7448 8.8802,-11.7447 8.8802,-33.0859 0,-21.4843 -8.8802,-33.2291 -8.8801,-11.7448 -24.9218,-11.7448 z"
         style="fill:#ff9955;stroke:#000000;stroke-width:10;stroke-miterlimit:4;stroke-dasharray:none;stroke-opacity:1" />
      <path
         d="m 1444.2804,1185.7462 h 148.815 v 41.6797 h -93.6718 v 39.8177 h 88.0858 v 41.6796 h -88.0858 v 90.664 h -55.1432 z"
         style="fill:#ff9955;stroke:#000000;stroke-width:10;stroke-miterlimit:4;stroke-dasharray:none;stroke-opacity:1" />
      <path
         d="m 1644.6578,1185.7462 h 148.8149 v 41.6797 h -93.6717 v 39.8177 h 88.0858 v 41.6796 h -88.0858 v 90.664 h -55.1432 z"
         style="fill:#ff9955;stroke:#000000;stroke-width:10;stroke-miterlimit:4;stroke-dasharray:none;stroke-opacity:1" />
      <path
         d="m 1845.0352,1185.7462 h 70.1823 l 48.6978,114.44 48.9843,-114.44 h 70.039 v 213.841 h -52.1353 v -156.4061 l -49.2708,115.2993 h -34.9479 l -49.2708,-115.2993 v 156.4061 h -52.2786 z"
         style="fill:#ff9955;stroke:#000000;stroke-width:10;stroke-miterlimit:4;stroke-dasharray:none;stroke-opacity:1" />
      <path
         d="m 2185.9202,1376.3841 v 84.2186 h -51.276 v -221.432 h 51.276 v 23.4895 q 10.5989,-14.0364 23.4896,-20.625 12.8906,-6.7317 29.6484,-6.7317 29.6484,0 48.6978,23.6328 19.0495,23.4895 19.0495,60.5858 0,37.0964 -19.0495,60.7291 -19.0494,23.4896 -48.6978,23.4896 -16.7578,0 -29.6484,-6.5885 -12.8907,-6.7318 -23.4896,-20.7682 z m 34.0885,-103.8411 q -16.4713,0 -25.3515,12.1745 -8.737,12.0312 -8.737,34.8046 0,22.7735 8.737,34.9479 8.8802,12.0313 25.3515,12.0313 16.4713,0 25.0651,-12.0313 8.7369,-12.0312 8.7369,-34.9479 0,-22.9166 -8.7369,-34.9478 -8.5938,-12.0313 -25.0651,-12.0313 z"
         style="fill:#ff9955;stroke:#000000;stroke-width:10;stroke-miterlimit:4;stroke-dasharray:none;stroke-opacity:1" />
      <path
         d="m 2504.748,1318.9492 v 14.6094 h -119.8827 q 1.862,18.0468 13.0339,27.0703 11.1718,9.0234 31.2239,9.0234 16.1849,0 33.0859,-4.7266 17.0442,-4.8697 34.9479,-14.6093 v 39.5312 q -18.1901,6.875 -36.3802,10.3125 -18.1901,3.5807 -36.3802,3.5807 -43.5416,0 -67.7473,-22.0573 -24.0625,-22.2005 -24.0625,-62.1614 0,-39.2447 23.6328,-61.7317 23.776,-22.4869 65.3124,-22.4869 37.8125,0 60.4427,22.7734 22.7734,22.7734 22.7734,60.8723 z m -52.7083,-17.0442 q 0,-14.6094 -8.5937,-23.4896 -8.4505,-9.0234 -22.2005,-9.0234 -14.8958,0 -24.2057,8.4505 -9.3099,8.3073 -11.6016,24.0625 z"
         style="fill:#ff9955;stroke:#000000;stroke-width:10;stroke-miterlimit:4;stroke-dasharray:none;stroke-opacity:1" />
      <path
         d="m 2652.7035,1372.3736 q -10.5989,14.0365 -23.3463,20.625 -12.7474,6.5886 -29.5052,6.5886 -29.3619,0 -48.5546,-23.0599 -19.1927,-23.2031 -19.1927,-59.0104 0,-35.9504 19.1927,-58.8671 19.1927,-23.0599 48.5546,-23.0599 16.7578,0 29.5052,6.5886 12.7474,6.5885 23.3463,20.7682 v -23.776 h 51.5625 v 144.2316 q 0,38.6718 -24.4922,59.0103 -24.3489,20.4818 -70.7551,20.4818 -15.0391,0 -29.0755,-2.2917 -14.0364,-2.2916 -28.2161,-7.0182 v -39.9609 q 13.4635,7.7344 26.3541,11.4583 12.8906,3.8672 25.9245,3.8672 25.2083,0 36.9531,-11.0286 11.7447,-11.0287 11.7447,-34.5182 z m -33.802,-99.8306 q -15.8984,0 -24.7786,11.7448 -8.8802,11.7448 -8.8802,33.2291 0,22.0573 8.5937,33.5156 8.5938,11.3151 25.0651,11.3151 16.0416,0 24.9218,-11.7448 8.8802,-11.7447 8.8802,-33.0859 0,-21.4843 -8.8802,-33.2291 -8.8802,-11.7448 -24.9218,-11.7448 z"
         style="fill:#ff9955;stroke:#000000;stroke-width:10;stroke-miterlimit:4;stroke-dasharray:none;stroke-opacity:1" />
    </g>
  </g>
</svg>
