<?xml version="1.0" encoding="UTF-8" standalone="no"?>
<svg
   xmlns:dc="http://purl.org/dc/elements/1.1/"
   xmlns:cc="http://creativecommons.org/ns#"
   xmlns:rdf="http://www.w3.org/1999/02/22-rdf-syntax-ns#"
   xmlns:svg="http://www.w3.org/2000/svg"
   xmlns="http://www.w3.org/2000/svg"
   xmlns:sodipodi="http://sodipodi.sourceforge.net/DTD/sodipodi-0.dtd"
   xmlns:inkscape="http://www.inkscape.org/namespaces/inkscape"
   width="1920mm"
   height="1080mm"
   viewBox="0 0 7256.6929 4081.8896"
   version="1.1">
  <g
     id="Prompt"
     style="font-size:192px;line-height:1.25;font-family:sans-serif;-inkscape-font-specification:sans-serif;letter-spacing:0px;word-spacing:0px;fill:transparent"
     inkscape:label="Prompt">
    <animate
       attributeName="fill"
       from="transparent"
       to="black"
       fill="freeze"
       begin="1.5s"
       dur="2s" />
    <path
       d="m 4794.8447,3779.4229 h 25.5 l 62.0625,117.0937 v -117.0937 h 18.375 v 139.9687 h -25.5 l -62.0625,-117.0937 v 117.0937 h -18.375 z"
       />
    <path
       d="m 5027.5322,3862.5791 v 8.4375 h -79.3125 q 1.125,17.8125 10.6875,27.1875 9.6563,9.2813 26.8125,9.2813 9.9375,0 19.2188,-2.4375 9.375,-2.4375 18.5625,-7.3125 v 16.3125 q -9.2813,3.9375 -19.0313,6 -9.75,2.0625 -19.7812,2.0625 -25.125,0 -39.8438,-14.625 -14.625,-14.625 -14.625,-39.5625 0,-25.7813 13.875,-40.875 13.9688,-15.1875 37.5938,-15.1875 21.1875,0 33.4687,13.6875 12.375,13.5937 12.375,37.0312 z m -17.25,-5.0625 q -0.1875,-14.1562 -7.9687,-22.5937 -7.6875,-8.4375 -20.4375,-8.4375 -14.4375,0 -23.1563,8.1562 -8.625,8.1563 -9.9375,22.9688 z"
       />
    <path
       d="m 5139.751,3814.3916 -37.9688,51.0938 39.9375,53.9062 h -20.3437 l -30.5625,-41.25 -30.5625,41.25 h -20.3438 l 40.7813,-54.9375 -37.3125,-50.0625 h 20.3437 l 27.8438,37.4063 27.8437,-37.4063 z"
       />
    <path
       d="m 5183.1572,3784.5791 v 29.8125 h 35.5313 v 13.4063 h -35.5313 v 57 q 0,12.8437 3.4688,16.5 3.5625,3.6562 14.3437,3.6562 h 17.7188 v 14.4375 h -17.7188 q -19.9687,0 -27.5625,-7.4062 -7.5937,-7.5 -7.5937,-27.1875 v -57 h -12.6563 v -13.4063 h 12.6563 v -29.8125 z"
       />
    <path
       d="m 5245.7822,3895.5791 h 19.7813 v 23.8125 h -19.7813 z m 0,-75.4687 h 19.7813 v 23.8125 h -19.7813 z"
       />
    <path
       d="m 5383.7822,3903.6416 v 55.6875 h -17.3437 v -144.9375 h 17.3437 v 15.9375 q 5.4375,-9.375 13.6875,-13.875 8.3438,-4.5937 19.875,-4.5937 19.125,0 31.0313,15.1875 12,15.1875 12,39.9375 0,24.75 -12,39.9375 -11.9063,15.1875 -31.0313,15.1875 -11.5312,0 -19.875,-4.5 -8.25,-4.5938 -13.6875,-13.9688 z m 58.6875,-36.6562 q 0,-19.0313 -7.875,-29.8125 -7.7812,-10.875 -21.4687,-10.875 -13.6875,0 -21.5625,10.875 -7.7813,10.7812 -7.7813,29.8125 0,19.0312 7.7813,29.9062 7.875,10.7813 21.5625,10.7813 13.6875,0 21.4687,-10.7813 7.875,-10.875 7.875,-29.9062 z"
       />
    <path
       d="m 5549.8135,3830.5166 q -2.9063,-1.6875 -6.375,-2.4375 -3.375,-0.8437 -7.5,-0.8437 -14.625,0 -22.5,9.5625 -7.7813,9.4687 -7.7813,27.2812 v 55.3125 h -17.3437 v -105 h 17.3437 v 16.3125 q 5.4375,-9.5625 14.1563,-14.1562 8.7187,-4.6875 21.1875,-4.6875 1.7812,0 3.9375,0.2812 2.1562,0.1875 4.7812,0.6563 z"
       />
    <path
       d="m 5653.501,3862.5791 v 8.4375 h -79.3125 q 1.125,17.8125 10.6875,27.1875 9.6562,9.2813 26.8125,9.2813 9.9375,0 19.2187,-2.4375 9.375,-2.4375 18.5625,-7.3125 v 16.3125 q -9.2812,3.9375 -19.0312,6 -9.75,2.0625 -19.7813,2.0625 -25.125,0 -39.8437,-14.625 -14.625,-14.625 -14.625,-39.5625 0,-25.7813 13.875,-40.875 13.9687,-15.1875 37.5937,-15.1875 21.1875,0 33.4688,13.6875 12.375,13.5937 12.375,37.0312 z m -17.25,-5.0625 q -0.1875,-14.1562 -7.9688,-22.5937 -7.6875,-8.4375 -20.4375,-8.4375 -14.4375,0 -23.1562,8.1562 -8.625,8.1563 -9.9375,22.9688 z"
       />
    <path
       d="m 5748.751,3817.4854 v 16.3125 q -7.3125,-3.75 -15.1875,-5.625 -7.875,-1.875 -16.3125,-1.875 -12.8438,0 -19.3125,3.9375 -6.375,3.9375 -6.375,11.8125 0,6 4.5937,9.4687 4.5938,3.375 18.4688,6.4688 l 5.9062,1.3125 q 18.375,3.9375 26.0625,11.1562 7.7813,7.125 7.7813,19.9688 0,14.625 -11.625,23.1562 -11.5313,8.5313 -31.7813,8.5313 -8.4375,0 -17.625,-1.6875 -9.0937,-1.5938 -19.2187,-4.875 v -17.8125 q 9.5625,4.9687 18.8437,7.5 9.2813,2.4375 18.375,2.4375 12.1875,0 18.75,-4.125 6.5625,-4.2188 6.5625,-11.8125 0,-7.0313 -4.7812,-10.7813 -4.6875,-3.75 -20.7188,-7.2187 l -6,-1.4063 q -16.0312,-3.375 -23.1562,-10.3125 -7.125,-7.0312 -7.125,-19.2187 0,-14.8125 10.5,-22.875 10.5,-8.0625 29.8125,-8.0625 9.5625,0 18,1.4062 8.4375,1.4063 15.5625,4.2188 z"
       />
    <path
       d="m 5848.7822,3817.4854 v 16.3125 q -7.3125,-3.75 -15.1875,-5.625 -7.875,-1.875 -16.3125,-1.875 -12.8437,0 -19.3125,3.9375 -6.375,3.9375 -6.375,11.8125 0,6 4.5938,9.4687 4.5937,3.375 18.4687,6.4688 l 5.9063,1.3125 q 18.375,3.9375 26.0625,11.1562 7.7812,7.125 7.7812,19.9688 0,14.625 -11.625,23.1562 -11.5312,8.5313 -31.7812,8.5313 -8.4375,0 -17.625,-1.6875 -9.0938,-1.5938 -19.2188,-4.875 v -17.8125 q 9.5625,4.9687 18.8438,7.5 9.2812,2.4375 18.375,2.4375 12.1875,0 18.75,-4.125 6.5625,-4.2188 6.5625,-11.8125 0,-7.0313 -4.7813,-10.7813 -4.6875,-3.75 -20.7187,-7.2187 l -6,-1.4063 q -16.0313,-3.375 -23.1563,-10.3125 -7.125,-7.0312 -7.125,-19.2187 0,-14.8125 10.5,-22.875 10.5,-8.0625 29.8125,-8.0625 9.5625,0 18,1.4062 8.4375,1.4063 15.5625,4.2188 z"
       />
    <path
       d="m 6009.8447,3817.4854 v 16.3125 q -7.3125,-3.75 -15.1875,-5.625 -7.875,-1.875 -16.3125,-1.875 -12.8437,0 -19.3125,3.9375 -6.375,3.9375 -6.375,11.8125 0,6 4.5938,9.4687 4.5937,3.375 18.4687,6.4688 l 5.9063,1.3125 q 18.375,3.9375 26.0625,11.1562 7.7812,7.125 7.7812,19.9688 0,14.625 -11.625,23.1562 -11.5312,8.5313 -31.7812,8.5313 -8.4375,0 -17.625,-1.6875 -9.0938,-1.5938 -19.2188,-4.875 v -17.8125 q 9.5625,4.9687 18.8438,7.5 9.2812,2.4375 18.375,2.4375 12.1875,0 18.75,-4.125 6.5625,-4.2188 6.5625,-11.8125 0,-7.0313 -4.7813,-10.7813 -4.6875,-3.75 -20.7187,-7.2187 l -6,-1.4063 q -16.0313,-3.375 -23.1563,-10.3125 -7.125,-7.0312 -7.125,-19.2187 0,-14.8125 10.5,-22.875 10.5,-8.0625 29.8125,-8.0625 9.5625,0 18,1.4062 8.4375,1.4063 15.5625,4.2188 z"
       />
    <path
       d="m 6059.626,3903.6416 v 55.6875 h -17.3438 v -144.9375 h 17.3438 v 15.9375 q 5.4375,-9.375 13.6875,-13.875 8.3437,-4.5937 19.875,-4.5937 19.125,0 31.0312,15.1875 12,15.1875 12,39.9375 0,24.75 -12,39.9375 -11.9062,15.1875 -31.0312,15.1875 -11.5313,0 -19.875,-4.5 -8.25,-4.5938 -13.6875,-13.9688 z m 58.6875,-36.6562 q 0,-19.0313 -7.875,-29.8125 -7.7813,-10.875 -21.4688,-10.875 -13.6875,0 -21.5625,10.875 -7.7812,10.7812 -7.7812,29.8125 0,19.0312 7.7812,29.9062 7.875,10.7813 21.5625,10.7813 13.6875,0 21.4688,-10.7813 7.875,-10.875 7.875,-29.9062 z"
       />
    <path
       d="m 6212.5322,3866.6104 q -20.9062,0 -28.9687,4.7812 -8.0625,4.7813 -8.0625,16.3125 0,9.1875 6,14.625 6.0937,5.3438 16.5,5.3438 14.3437,0 22.9687,-10.125 8.7188,-10.2188 8.7188,-27.0938 v -3.8437 z m 34.4063,-7.125 v 59.9062 h -17.25 v -15.9375 q -5.9063,9.5625 -14.7188,14.1563 -8.8125,4.5 -21.5625,4.5 -16.125,0 -25.6875,-9 -9.4687,-9.0938 -9.4687,-24.2813 0,-17.7187 11.8125,-26.7187 11.9062,-9 35.4375,-9 h 24.1875 v -1.6875 q 0,-11.9063 -7.875,-18.375 -7.7813,-6.5625 -21.9375,-6.5625 -9,0 -17.5313,2.1562 -8.5312,2.1563 -16.4062,6.4688 v -15.9375 q 9.4687,-3.6563 18.375,-5.4375 8.9062,-1.875 17.3437,-1.875 22.7813,0 34.0313,11.8125 11.25,11.8125 11.25,35.8125 z"
       />
    <path
       d="m 6358.0322,3818.4229 v 16.125 q -7.3125,-4.0313 -14.7187,-6 -7.3125,-2.0625 -14.8125,-2.0625 -16.7813,0 -26.0625,10.6875 -9.2813,10.5937 -9.2813,29.8125 0,19.2187 9.2813,29.9062 9.2812,10.5938 26.0625,10.5938 7.5,0 14.8125,-1.9688 7.4062,-2.0625 14.7187,-6.0937 v 15.9375 q -7.2187,3.375 -15,5.0625 -7.6875,1.6875 -16.4062,1.6875 -23.7188,0 -37.6875,-14.9063 -13.9688,-14.9062 -13.9688,-40.2187 0,-25.6875 14.0625,-40.4063 14.1563,-14.7187 38.7188,-14.7187 7.9687,0 15.5625,1.6875 7.5937,1.5937 14.7187,4.875 z"
       />
    <path
       d="m 6477.8447,3862.5791 v 8.4375 h -79.3125 q 1.125,17.8125 10.6875,27.1875 9.6563,9.2813 26.8125,9.2813 9.9375,0 19.2188,-2.4375 9.375,-2.4375 18.5625,-7.3125 v 16.3125 q -9.2813,3.9375 -19.0313,6 -9.75,2.0625 -19.7812,2.0625 -25.125,0 -39.8438,-14.625 -14.625,-14.625 -14.625,-39.5625 0,-25.7813 13.875,-40.875 13.9688,-15.1875 37.5938,-15.1875 21.1875,0 33.4687,13.6875 12.375,13.5937 12.375,37.0312 z m -17.25,-5.0625 q -0.1875,-14.1562 -7.9687,-22.5937 -7.6875,-8.4375 -20.4375,-8.4375 -14.4375,0 -23.1563,8.1562 -8.625,8.1563 -9.9375,22.9688 z"
       />
    <path
       d="m 6642.5635,3866.9854 q 0,-19.0313 -7.875,-29.8125 -7.7813,-10.875 -21.4688,-10.875 -13.6875,0 -21.5625,10.875 -7.7812,10.7812 -7.7812,29.8125 0,19.0312 7.7812,29.9062 7.875,10.7813 21.5625,10.7813 13.6875,0 21.4688,-10.7813 7.875,-10.875 7.875,-29.9062 z m -58.6875,-36.6563 q 5.4375,-9.375 13.6875,-13.875 8.3437,-4.5937 19.875,-4.5937 19.125,0 31.0312,15.1875 12,15.1875 12,39.9375 0,24.75 -12,39.9375 -11.9062,15.1875 -31.0312,15.1875 -11.5313,0 -19.875,-4.5 -8.25,-4.5938 -13.6875,-13.9688 v 15.75 h -17.3438 v -145.875 h 17.3438 z"
       />
    <path
       d="m 6736.7822,3866.6104 q -20.9062,0 -28.9687,4.7812 -8.0625,4.7813 -8.0625,16.3125 0,9.1875 6,14.625 6.0937,5.3438 16.5,5.3438 14.3437,0 22.9687,-10.125 8.7188,-10.2188 8.7188,-27.0938 v -3.8437 z m 34.4063,-7.125 v 59.9062 h -17.25 v -15.9375 q -5.9063,9.5625 -14.7188,14.1563 -8.8125,4.5 -21.5625,4.5 -16.125,0 -25.6875,-9 -9.4687,-9.0938 -9.4687,-24.2813 0,-17.7187 11.8125,-26.7187 11.9062,-9 35.4375,-9 h 24.1875 v -1.6875 q 0,-11.9063 -7.875,-18.375 -7.7813,-6.5625 -21.9375,-6.5625 -9,0 -17.5313,2.1562 -8.5312,2.1563 -16.4062,6.4688 v -15.9375 q 9.4687,-3.6563 18.375,-5.4375 8.9062,-1.875 17.3437,-1.875 22.7813,0 34.0313,11.8125 11.25,11.8125 11.25,35.8125 z"
       />
    <path
       d="m 6867.5635,3830.5166 q -2.9063,-1.6875 -6.375,-2.4375 -3.375,-0.8437 -7.5,-0.8437 -14.625,0 -22.5,9.5625 -7.7813,9.4687 -7.7813,27.2812 v 55.3125 h -17.3437 v -105 h 17.3437 v 16.3125 q 5.4375,-9.5625 14.1563,-14.1562 8.7187,-4.6875 21.1875,-4.6875 1.7812,0 3.9375,0.2812 2.1562,0.1875 4.7812,0.6563 z"
       />
    <path
       d="m 6870.4697,3895.5791 h 19.7813 v 23.8125 h -19.7813 z"
       />
    <path
       d="m 6931.501,3895.5791 h 19.7812 v 23.8125 h -19.7812 z"
       />
    <path
       d="m 6992.5322,3895.5791 h 19.7813 v 23.8125 h -19.7813 z"
       />
  </g>
  <g
     id="g931"
     transform="translate(-542.24044)">
    <g
       aria-label=""
       style="font-size:192px;line-height:1.25;font-family:sans-serif;-inkscape-font-specification:sans-serif;letter-spacing:0px;word-spacing:0px;fill:#8b008b;stroke:#000000;stroke-width:4.90262;stroke-miterlimit:4;stroke-dasharray:none;stroke-opacity:1"
       inkscape:label="t1"
       transform="matrix(2.4476695,0,0,2.4476695,-2654.1552,-1265.0745)"
       id="t1-and">
      <path
         d="m 1637.4718,898.43213 -25.6875,69.65625 h 51.4688 z m -10.6875,-18.65625 h 21.4688 l 53.3437,139.96872 h -19.6875 l -12.75,-35.90622 h -63.0937 l -12.75,35.90622 h -19.9688 z"
         
         style="stroke:#000000;stroke-width:4.90262;stroke-miterlimit:4;stroke-dasharray:none;stroke-opacity:1" />
      <path
         d="m 1808.5656,956.36963 v 63.37497 h -17.25 v -62.81247 q 0,-14.90625 -5.8125,-22.3125 -5.8125,-7.40625 -17.4375,-7.40625 -13.9688,0 -22.0313,8.90625 -8.0625,8.90625 -8.0625,24.28125 v 59.34372 h -17.3437 V 914.74463 h 17.3437 v 16.3125 q 6.1875,-9.46875 14.5313,-14.15625 8.4375,-4.6875 19.4062,-4.6875 18.0938,0 27.375,11.25 9.2813,11.15625 9.2813,32.90625 z"
         
         style="stroke:#000000;stroke-width:4.90262;stroke-miterlimit:4;stroke-dasharray:none;stroke-opacity:1" />
      <path
         d="m 1912.0656,930.68213 v -56.8125 h 17.25 v 145.87497 h -17.25 v -15.75 q -5.4375,9.375 -13.7813,13.9688 -8.25,4.5 -19.875,4.5 -19.0312,0 -31.0312,-15.1875 -11.9063,-15.18752 -11.9063,-39.93752 0,-24.75 11.9063,-39.9375 12,-15.1875 31.0312,-15.1875 11.625,0 19.875,4.59375 8.3438,4.5 13.7813,13.875 z m -58.7813,36.65625 q 0,19.03125 7.7813,29.90625 7.875,10.78127 21.5625,10.78127 13.6875,0 21.5625,-10.78127 7.875,-10.875 7.875,-29.90625 0,-19.03125 -7.875,-29.8125 -7.875,-10.875 -21.5625,-10.875 -13.6875,0 -21.5625,10.875 -7.7813,10.78125 -7.7813,29.8125 z"
         
         style="stroke:#000000;stroke-width:4.90262;stroke-miterlimit:4;stroke-dasharray:none;stroke-opacity:1" />
    </g>
    <g
       id="t2-finally"
       style="font-size:192px;line-height:1.25;font-family:sans-serif;-inkscape-font-specification:sans-serif;letter-spacing:0px;word-spacing:0px;fill:#9400d3;stroke:#000000;stroke-width:4.90262;stroke-miterlimit:4;stroke-dasharray:none;stroke-opacity:1;opacity:0"
       transform="matrix(2.4476695,0,0,2.4476695,-2654.1552,-1265.0745)">
      <animate attributeName="opacity" from="0" to="1" begin="0.5s" dur="0.5s" fill="freeze" additive="sum" />
      <path
         d="m 2157.0967,914.74463 v 104.99997 h -17.3438 v -91.59372 h -47.3437 v 91.59372 h -17.3438 v -91.59372 h -16.5 v -13.40625 h 16.5 v -7.3125 q 0,-17.15625 8.0625,-25.3125 8.1563,-8.25 24.9375,-8.25 h 17.3438 v 14.34375 h -16.5 q -9.2813,0 -12.9375,3.75 -3.5625,3.75 -3.5625,13.5 v 9.28125 z m -17.3438,-40.6875 h 17.3438 v 21.84375 h -17.3438 z"
         
         style="stroke:#000000;stroke-width:4.90262;stroke-miterlimit:4;stroke-dasharray:none;stroke-opacity:1" />
      <path
         d="m 2280.4717,956.36963 v 63.37497 h -17.25 v -62.81247 q 0,-14.90625 -5.8125,-22.3125 -5.8125,-7.40625 -17.4375,-7.40625 -13.9688,0 -22.0313,8.90625 -8.0625,8.90625 -8.0625,24.28125 v 59.34372 h -17.3437 V 914.74463 h 17.3437 v 16.3125 q 6.1875,-9.46875 14.5313,-14.15625 8.4375,-4.6875 19.4062,-4.6875 18.0938,0 27.375,11.25 9.2813,11.15625 9.2813,32.90625 z"
         
         style="stroke:#000000;stroke-width:4.90262;stroke-miterlimit:4;stroke-dasharray:none;stroke-opacity:1" />
      <path
         d="m 2362.5967,966.96338 q -20.9063,0 -28.9688,4.78125 -8.0625,4.78125 -8.0625,16.3125 0,9.1875 6,14.62497 6.0938,5.3438 16.5,5.3438 14.3438,0 22.9688,-10.12502 8.7187,-10.21875 8.7187,-27.09375 v -3.84375 z m 34.4062,-7.125 v 59.90622 h -17.25 v -15.9375 q -5.9062,9.5625 -14.7187,14.1563 -8.8125,4.5 -21.5625,4.5 -16.125,0 -25.6875,-9 -9.4688,-9.0938 -9.4688,-24.28127 0,-17.71875 11.8125,-26.71875 11.9063,-9 35.4375,-9 h 24.1875 v -1.6875 q 0,-11.90625 -7.875,-18.375 -7.7812,-6.5625 -21.9375,-6.5625 -9,0 -17.5312,2.15625 -8.5313,2.15625 -16.4063,6.46875 v -15.9375 q 9.4688,-3.65625 18.375,-5.4375 8.9063,-1.875 17.3438,-1.875 22.7812,0 34.0312,11.8125 11.25,11.8125 11.25,35.8125 z"
         
         style="stroke:#000000;stroke-width:4.90262;stroke-miterlimit:4;stroke-dasharray:none;stroke-opacity:1" />
      <path
         d="m 2432.5342,873.86963 h 17.25 v 145.87497 h -17.25 z"
         
         style="stroke:#000000;stroke-width:4.90262;stroke-miterlimit:4;stroke-dasharray:none;stroke-opacity:1" />
      <path
         d="m 2485.8779,873.86963 h 17.25 v 145.87497 h -17.25 z"
         
         style="stroke:#000000;stroke-width:4.90262;stroke-miterlimit:4;stroke-dasharray:none;stroke-opacity:1" />
      <path
         d="m 2582.9092,1029.4946 q -7.3125,18.75 -14.25,24.4688 -6.9375,5.7187 -18.5625,5.7187 h -13.7813 v -14.4375 h 10.125 q 7.125,0 11.0625,-3.375 3.9375,-3.375 8.7188,-15.9375 l 3.0937,-7.875 -42.4687,-103.31247 h 18.2812 l 32.8125,82.125 32.8125,-82.125 h 18.2813 z"
         
         style="stroke:#000000;stroke-width:4.90262;stroke-miterlimit:4;stroke-dasharray:none;stroke-opacity:1" />
      <path
         d="m 2657.2529,995.93213 h 19.7813 v 16.12497 l -15.375,30 h -12.0938 l 7.6875,-30 z"
         
         style="stroke:#000000;stroke-width:4.90262;stroke-miterlimit:4;stroke-dasharray:none;stroke-opacity:1" />
    </g>
    <g
       style="font-size:192px;line-height:1.25;font-family:sans-serif;-inkscape-font-specification:sans-serif;letter-spacing:0px;word-spacing:0px;fill:#9932cc;stroke:#000000;stroke-width:4.90262;stroke-miterlimit:4;stroke-dasharray:none;stroke-opacity:1;opacity:0"
       transform="matrix(2.4476695,0,0,2.4476695,-2654.1552,-1265.0745)"
       id="t1-some">
      <animate attributeName="opacity" from="0" to="1" begin="1s" dur="0.5s" fill="freeze" additive="sum" />
      <path
         d="m 2880.9092,917.83838 v 16.3125 q -7.3125,-3.75 -15.1875,-5.625 -7.875,-1.875 -16.3125,-1.875 -12.8438,0 -19.3125,3.9375 -6.375,3.9375 -6.375,11.8125 0,6 4.5937,9.46875 4.5938,3.375 18.4688,6.46875 l 5.9062,1.3125 q 18.375,3.9375 26.0625,11.15625 7.7813,7.125 7.7813,19.96875 0,14.62502 -11.625,23.15622 -11.5313,8.5313 -31.7813,8.5313 -8.4375,0 -17.625,-1.6875 -9.0937,-1.5938 -19.2187,-4.875 v -17.81252 q 9.5625,4.96872 18.8437,7.50002 9.2813,2.4375 18.375,2.4375 12.1875,0 18.75,-4.125 6.5625,-4.21877 6.5625,-11.81252 0,-7.03125 -4.7812,-10.78125 -4.6875,-3.75 -20.7188,-7.21875 l -6,-1.40625 q -16.0312,-3.375 -23.1562,-10.3125 -7.125,-7.03125 -7.125,-19.21875 0,-14.8125 10.5,-22.875 10.5,-8.0625 29.8125,-8.0625 9.5625,0 18,1.40625 8.4375,1.40625 15.5625,4.21875 z"
         
         style="stroke:#000000;stroke-width:4.90262;stroke-miterlimit:4;stroke-dasharray:none;stroke-opacity:1" />
      <path
         d="m 2954.6904,926.83838 q -13.875,0 -21.9375,10.875 -8.0625,10.78125 -8.0625,29.625 0,18.84375 7.9688,29.71875 8.0625,10.78127 22.0312,10.78127 13.7813,0 21.8438,-10.87502 8.0625,-10.875 8.0625,-29.625 0,-18.65625 -8.0625,-29.53125 -8.0625,-10.96875 -21.8438,-10.96875 z m 0,-14.625 q 22.5,0 35.3438,14.625 12.8437,14.625 12.8437,40.5 0,25.78125 -12.8437,40.50002 -12.8438,14.625 -35.3438,14.625 -22.5937,0 -35.4375,-14.625 -12.75,-14.71877 -12.75,-40.50002 0,-25.875 12.75,-40.5 12.8438,-14.625 35.4375,-14.625 z"
         
         style="stroke:#000000;stroke-width:4.90262;stroke-miterlimit:4;stroke-dasharray:none;stroke-opacity:1" />
      <path
         d="m 3113.2217,934.90088 q 6.4687,-11.625 15.4687,-17.15625 9,-5.53125 21.1875,-5.53125 16.4063,0 25.3125,11.53125 8.9063,11.4375 8.9063,32.625 v 63.37497 h -17.3438 v -62.81247 q 0,-15.09375 -5.3437,-22.40625 -5.3438,-7.3125 -16.3125,-7.3125 -13.4063,0 -21.1875,8.90625 -7.7813,8.90625 -7.7813,24.28125 v 59.34372 h -17.3437 v -62.81247 q 0,-15.1875 -5.3438,-22.40625 -5.3437,-7.3125 -16.5,-7.3125 -13.2187,0 -21,9 -7.7812,8.90625 -7.7812,24.1875 v 59.34372 h -17.3438 V 914.74463 h 17.3438 v 16.3125 q 5.9062,-9.65625 14.1562,-14.25 8.25,-4.59375 19.5938,-4.59375 11.4375,0 19.4062,5.8125 8.0625,5.8125 11.9063,16.875 z"
         
         style="stroke:#000000;stroke-width:4.90262;stroke-miterlimit:4;stroke-dasharray:none;stroke-opacity:1" />
      <path
         d="m 3308.3154,962.93213 v 8.4375 h -79.3125 q 1.125,17.8125 10.6875,27.1875 9.6563,9.28127 26.8125,9.28127 9.9375,0 19.2188,-2.4375 9.375,-2.4375 18.5625,-7.31252 v 16.31252 q -9.2813,3.9375 -19.0313,6 -9.75,2.0625 -19.7812,2.0625 -25.125,0 -39.8438,-14.625 -14.625,-14.62502 -14.625,-39.56252 0,-25.78125 13.875,-40.875 13.9688,-15.1875 37.5938,-15.1875 21.1875,0 33.4687,13.6875 12.375,13.59375 12.375,37.03125 z m -17.25,-5.0625 q -0.1875,-14.15625 -7.9687,-22.59375 -7.6875,-8.4375 -20.4375,-8.4375 -14.4375,0 -23.1563,8.15625 -8.625,8.15625 -9.9375,22.96875 z"
         
         style="stroke:#000000;stroke-width:4.90262;stroke-miterlimit:4;stroke-dasharray:none;stroke-opacity:1" />
    </g>
    <g id="t4-video"
       style="font-size:192px;line-height:1.25;font-family:sans-serif;-inkscape-font-specification:sans-serif;letter-spacing:0px;word-spacing:0px;fill:#ff00ff;stroke:#000000;stroke-width:4.90262;stroke-miterlimit:4;stroke-dasharray:none;stroke-opacity:1;opacity:0"
       transform="matrix(2.4476695,0,0,2.4476695,-2654.1552,-1265.0745)">
      <animate attributeName="opacity" from="0" to="1" begin="1.5s" dur="0.5s" fill="freeze" additive="sum" />
      <path
         d="m 3437.5654,914.74463 h 18.2813 l 32.8125,88.12497 32.8125,-88.12497 h 18.2812 l -39.375,104.99997 h -23.4375 z"
         
         style="stroke:#000000;stroke-width:4.90262;stroke-miterlimit:4;stroke-dasharray:none;stroke-opacity:1" />
      <path
         d="m 3563.5654,914.74463 h 17.25 v 104.99997 h -17.25 z m 0,-40.875 h 17.25 v 21.84375 h -17.25 z"
         
         style="stroke:#000000;stroke-width:4.90262;stroke-miterlimit:4;stroke-dasharray:none;stroke-opacity:1" />
      <path
         d="m 3686.0029,930.68213 v -56.8125 h 17.25 v 145.87497 h -17.25 v -15.75 q -5.4375,9.375 -13.7812,13.9688 -8.25,4.5 -19.875,4.5 -19.0313,0 -31.0313,-15.1875 -11.9062,-15.18752 -11.9062,-39.93752 0,-24.75 11.9062,-39.9375 12,-15.1875 31.0313,-15.1875 11.625,0 19.875,4.59375 8.3437,4.5 13.7812,13.875 z m -58.7812,36.65625 q 0,19.03125 7.7812,29.90625 7.875,10.78127 21.5625,10.78127 13.6875,0 21.5625,-10.78127 7.875,-10.875 7.875,-29.90625 0,-19.03125 -7.875,-29.8125 -7.875,-10.875 -21.5625,-10.875 -13.6875,0 -21.5625,10.875 -7.7812,10.78125 -7.7812,29.8125 z"
         
         style="stroke:#000000;stroke-width:4.90262;stroke-miterlimit:4;stroke-dasharray:none;stroke-opacity:1" />
      <path
         d="m 3828.5967,962.93213 v 8.4375 h -79.3125 q 1.125,17.8125 10.6875,27.1875 9.6562,9.28127 26.8125,9.28127 9.9375,0 19.2187,-2.4375 9.375,-2.4375 18.5625,-7.31252 v 16.31252 q -9.2812,3.9375 -19.0312,6 -9.75,2.0625 -19.7813,2.0625 -25.125,0 -39.8437,-14.625 -14.625,-14.62502 -14.625,-39.56252 0,-25.78125 13.875,-40.875 13.9687,-15.1875 37.5937,-15.1875 21.1875,0 33.4688,13.6875 12.375,13.59375 12.375,37.03125 z m -17.25,-5.0625 q -0.1875,-14.15625 -7.9688,-22.59375 -7.6875,-8.4375 -20.4375,-8.4375 -14.4375,0 -23.1562,8.15625 -8.625,8.15625 -9.9375,22.96875 z"
         
         style="stroke:#000000;stroke-width:4.90262;stroke-miterlimit:4;stroke-dasharray:none;stroke-opacity:1" />
      <path
         d="m 3897.5967,926.83838 q -13.875,0 -21.9375,10.875 -8.0625,10.78125 -8.0625,29.625 0,18.84375 7.9687,29.71875 8.0625,10.78127 22.0313,10.78127 13.7812,0 21.8437,-10.87502 8.0625,-10.875 8.0625,-29.625 0,-18.65625 -8.0625,-29.53125 -8.0625,-10.96875 -21.8437,-10.96875 z m 0,-14.625 q 22.5,0 35.3437,14.625 12.8438,14.625 12.8438,40.5 0,25.78125 -12.8438,40.50002 -12.8437,14.625 -35.3437,14.625 -22.5938,0 -35.4375,-14.625 -12.75,-14.71877 -12.75,-40.50002 0,-25.875 12.75,-40.5 12.8437,-14.625 35.4375,-14.625 z"
         
         style="stroke:#000000;stroke-width:4.90262;stroke-miterlimit:4;stroke-dasharray:none;stroke-opacity:1" />
      <path
         d="m 3985.2529,995.93213 h 19.0313 v 23.81247 h -19.0313 z m 0,-116.15625 h 19.0313 v 61.40625 l -1.875,33.46875 h -15.1875 l -1.9688,-33.46875 z"
         
         style="stroke:#000000;stroke-width:4.90262;stroke-miterlimit:4;stroke-dasharray:none;stroke-opacity:1" />
    </g>
  </g>
</svg>
